<mxfile host="app.diagrams.net" modified="2022-12-11T12:30:14.295Z" agent="5.0 (Windows NT 10.0; Win64; x64) AppleWebKit/537.36 (KHTML, like Gecko) Chrome/108.0.0.0 Safari/537.36" etag="kIulll1y9LFSPA4dIRDn" version="20.6.2" type="github">
  <diagram id="FXfjrvI9_y_PHoF1YBZz" name="Page-1">
    <mxGraphModel dx="782" dy="428" grid="1" gridSize="10" guides="1" tooltips="1" connect="1" arrows="1" fold="1" page="1" pageScale="1" pageWidth="827" pageHeight="1169" math="0" shadow="0">
      <root>
        <mxCell id="0" />
        <mxCell id="1" parent="0" />
        <mxCell id="ulPZ76-8H28wxEypy-h8-7" value="" style="edgeStyle=orthogonalEdgeStyle;rounded=0;orthogonalLoop=1;jettySize=auto;html=1;" parent="1" source="ulPZ76-8H28wxEypy-h8-1" target="ulPZ76-8H28wxEypy-h8-6" edge="1">
          <mxGeometry relative="1" as="geometry" />
        </mxCell>
        <mxCell id="ulPZ76-8H28wxEypy-h8-1" value="setApiHeader" style="ellipse;whiteSpace=wrap;html=1;" parent="1" vertex="1">
          <mxGeometry x="130" y="60" width="120" height="80" as="geometry" />
        </mxCell>
        <mxCell id="ulPZ76-8H28wxEypy-h8-3" value="" style="edgeStyle=orthogonalEdgeStyle;rounded=0;orthogonalLoop=1;jettySize=auto;html=1;" parent="1" source="ulPZ76-8H28wxEypy-h8-2" target="ulPZ76-8H28wxEypy-h8-1" edge="1">
          <mxGeometry relative="1" as="geometry" />
        </mxCell>
        <mxCell id="ulPZ76-8H28wxEypy-h8-2" value="key &amp;amp; value" style="ellipse;whiteSpace=wrap;html=1;" parent="1" vertex="1">
          <mxGeometry x="20" y="60" width="90" height="80" as="geometry" />
        </mxCell>
        <mxCell id="ulPZ76-8H28wxEypy-h8-6" value="config.headers[key]=value" style="whiteSpace=wrap;html=1;" parent="1" vertex="1">
          <mxGeometry x="280" y="70" width="200" height="60" as="geometry" />
        </mxCell>
        <mxCell id="ulPZ76-8H28wxEypy-h8-9" value="" style="shape=image;verticalLabelPosition=bottom;labelBackgroundColor=default;verticalAlign=top;aspect=fixed;imageAspect=0;image=data:image/png,iVBORw0KGgoAAAANSUhEUgAAAggAAAElCAYAAACBJhoWAAAAAXNSR0IArs4c6QAAIABJREFUeF7snQd0VVXWx3+vJS+990YKJIHQAoHQi3QUO+qAigXHNs7ojDP6OY46VkYdu9i7NKWD0nsLISQE0nvvvbz38tq37o0kL40SiaMz967FAu47Z599//fcc/5nn332luUWlJrpcQm3ZD1v9/NOT2lXUr4ZM7Ju2vZ2r5/KAwOr/0DLl/C54Js3mzHLevafger/9nY2ODvao1Ip+98hLWqaTCZaWrXU1TdhNJl+6qtX8vsa4P75C+A/0OObpXwRebMZZFdo/PyN43Nle+IV+WQkIZeBgKx3gnAZEi6jqNlsRnalPpzu7V7Jj/Iynum3VXQAP1cJ/wt3BbMZe3tbPNycB6TLtOn1lJRVD4jsX0LogI4NwgMMdP8cYPkDjc9Ay78Y/gPe/i/Rif8L2/jvIQjiGDCABAQQVmtyuXzAusFA6/9bl/9bx9/P2x0rK9WA9Z+C4nJMpl4Mgleoxd96/xlI/QdS9vnX90u0cYW6Sk+btMmMTN7TqjLAvGqgHud/Ru4vShBycnIIDQ0dMHCLiooICAgYMPnxJ08SM27cgMlPSkxk1OjRAya/sLCQwMDAAZNfXl6Ot7f3gMkfaPwHun/6+3qgUl6ZrYXeQM7JK0KuGDj5GenphEdEDNj7raqqwsPDY0Dk6/V66uvrB0x+XV2duHhwcnIaEP0FoWWlpfj4+g6IfIF8CxhZW1sPiPy8vDyCg4MHRPb/ktBfmiRekCDIC9OwzYxHE78fuZMbyuET0IxbCNbqfr2T7OxswsLCxLob1m/glRdfFP8tbDucf3Dh741btuDn73fZbXSfALds3siLLzxHTXU1ahsbZs68irfeWdnvbY64EycYHxvboVdc3HEe++MfKC8vw8rKmjFjx/Lhx59jZ2d32boLFU4nJBA9ZoxYV8Dh66++4J2336C2pgZbW1umTpvBm2+/h0rVv1Vofn4+gwYN6tDtyNGjvL9yJbW1tVhZWRE9ejTP/OMf/canrKwMHx+fDvmKMwdQZSehz0pG6ReCOWoibaNn9gsboVJ3/C0FqWrS0buG/6y9X8v+KeC/dsvnLBrzAfaqWuo0nuxJ/ys3zL223/h0JwjfbvqesT5/QS2vQmdyJbHsCRZf+2C/5XcnCFaJe5GlnsRQlIUqZCj68BiMI6f1G//0tDQiIiPF+jvP1VHTZMRoNhPpZU3CoWMcOZHC5+/9CaVS0a82Kisr8fT0FOvWVBeitq5BpVCg1+lpatRSWalj+NgZ/cJHmPyESfy8fKGNikIFrl5Gvv67M3e8VE91qRzvIFO/dBe+IYVC0UEQhP7z8iuvEHfyJDqdDmdnZ35/333MmD69X/KFSqUlJfj6tY+LLmsGIzPpkXuPRuk3EX3WVkyNhRjdo2mcs+Gy2+hOEPZqbAmXtTHc+kMc9IeoN00gtfSP2FqbcfVru2z5Pch3L7ud27ZvY87sOeJY9J+8hL5yfoytqqrEw6O9T/6nLqEvbdjwPSVFRaisVISFDWH2nLn9Ukej0bB1yyYW33IbZ5PP4ODgwKDgkD5l9U0Qasqw3fstCp8gHKZdTdmKPyLTtqBaeBe66FkdArW5h9F4jsPF3priggJ8goLoa3jojSBMmTKZ4OBBxJ86xexZs3jrrXfYtHVrB0EoL87C23+w2F5FajwOg2Ow7WN+tCQI5WWlTJsyQWTF5y+BiNyx7G6eefb5jntNdTXUN9QRdzqVm25Y1AtQnT3ZcoIqKS5m/tyZNDc3d6mz+Nbf8cqK1zruNdZU0NDaSlZuBTOndZKL3t6IJUFISkrktsU3iIOLpf7PPf8SS2+/s+Nec20VNU0tnM6t4/oZF7Y+WBKEltYWbvvdEv76+OMiRgI2AssXBtHHHn20zw5jqC9Go/LEwa7nR2xJEBTl+Si3fID9LQ+jVMipePMJVPYOcPW96MMurKfZZKLNaMS6GxHqiyCoKs4i19WBXInOf+IlfThGvR6jQoWVxY6RZf88eiqZUR63kJBpj5eTlpI6W8aHt1Bq3sng4E7ymnk2mSHDR9CYn4hd4CgUvZhRzytkSRAyslMwlk9g9V5vJkXVcS7fgdlj6yg1rmL+zPm9PsO3q9dw8003kpubK27pRkaEdylnSRBU2Ynw4xc4L38ac0M11f/+K9YhERiufRCjdydJPHfiJMNix4lOvvEnTxMzLrpP/CwJglAou7yV/emNLJ/uLRLa2+5ZwfuvP4Sri8NF30FTQz06bSvuXp0rYkuCcC5pF6+sOMC/Xp7D5i0ZXH9NFI0NegaPnNaFIOTmlRAivg8dG77eyw23L+i17e4EQcDvxFYbXD3MlBfJ8A4wUVcpJ/ZaTY/66zZs46YbriYxPg5nB1s0Nr7IayoYGj20o2x3gvD+Bx9g1BsYMXKE6P+gsrLihRdf5KsvvsDd3f2neibijhzEJzBUtHye989KSUoiOCwEuZUNaostqS4EYXUIMpMB9fwPUY1YRt3q30POl8h8RtEwd3OHXgWp8eTUWTFx3HDUqvbOfjS1iElDu1pauxOEH6sdOJlrxzO+tzJInUhBVTRH9r3JmKUy1E4/kSizibfefpd7H3gYO3kLW7YeZPq0sTi69rQiXop17t7l9/Daq6+LZOo/eR07eoSJkyaTn5+Hlcqqg5Rdrk57du/CaDR2VBs1ajRe/bCwCpY1wTIlECehH3/4wfs8/Ic/Xq46HeU1mlbWrV3N5MlTCQ1rn1v7uvokCFa5Z9B/9QqOT32MU3AoRfs2oPrhH8g9rkK75P865AkEIbXOERNKWmsL8Y8Yia62CHtnD7x8g7BSyjtWdV0JwnpeefElliy5VewQbu5u4urz/t8/1IUglOSn0KKVUVDeilVVEl4TrkfRUIqVnT2efoGolfKOD8uSIHzw/rv8a8VLPZ7b19ePI8fju9xPiT+Ge/gYsg7tY9LV8ymsqkfWWoebmye2djbIZO0fluUE9f13a/nrX3pOpPb29iSnZHaRf2rfNnxHzaC5OItBwYEkVplxMTfj7+uFjdqqQ74lQXjk4QfYtrXzQz8v0NXVjVOJZy3kmzm7bzPBExaQkprH+KGuJOY0YGMlI8DPFzs7m46ylgThxx9/5LsN6/n4gw/FlY9wnTlzRhzE1qxe3XEvNSkBo8lAo16Foa6c8aMG0az0pqW5CRdXZxwdO02qlgRBFfcDhm2fo/rXdjzd7Cn76HFk53aimvQAmik3dg6sZQXk5RcRGB5ByqkUnF2tiYqOQXC6s+1mqeqNIMi0Ddjm/IiytRxZWwsN4/+MWdlp4co6uoM2nyhaaiswanX4+XnTqNMT5OWKXmWLq32ntceyf775wXKsFTnMiakkp9QWV0cD8anOmBTzeOiev3bon3zyOCPGTaAu8wiOfsGkZFViVNkzxM8Ns5U19rad8i0Jwvotr1Kc/z4udm1kFtsxaUQdJTU2+HjOYOGiL3v9XkvLynjuhZdwd3Xlmaef6rHSsiQINofX03Z8B4qnv8XDxZaqF2/CUJKDYu6j6Md3TqIHNmxmyMhwajQaKiu1hAe50KgxEBgWjsmgx9HetkOX7gQhIa+RPefqmOTeRH1jM+99vJmN3zyHWt2VPBr0WgqLShkUHIz8JyfllqZ6qirrGBTaaXa2JAjZaUdpaqrDy9OJZ549wK03D+O6hSOoaPHG1s6+Q6fTSRl4Osqpb2kkKamCcVEOGBX2BIWEYDDKcHRyFMt2JwhF6SrMmDAb5WiaQG1vRmmFqJ/v4M5Fhab0DNU1DZjdR1CSn87oYSHEpzVgo2tk7NR2a59wdScIdyxbxn3LlzN50iTxd2ECfvDhh8QV8g3XX/9TLRMHt20neMwEAj3tOZOSgdLaCTT1eHm5Ye/qhdq6E8veCIIq9gma8wsxaZtpy9iBOnwYLQs7xw19dTanStR4KWtpNYFTwBAKSysIdVLg4e3T8Z13JwgtbXJW7Xfneqe/Ee29irLCaeSZVuI3TdN5QMNs4pO125k2PhptVR41jW1ERQbh4uFNXbMOFydHFD9teV2IIJw4cYLKqko2btzA/PkLsLWxYc6cuf8xS0JDfT3JyUl4eXkzJHzgttQuNDFb/lZVWYnHT5Y14f4HK9/j/gceutTqPcplZqajb9NTVV3F1KnTL+hX1zdByElC/+WLuN75V+zHD6Fh7WyaE51Qek1Fe/vTXQhCq0cMp44dxsfTnYioMLbvSOXaq2OobdLiaq9G9pNjX3eC8PKLL7J0yW2EhLSbOHz9fHsQhNKiTHwDhrDxk5VEBHviM+k6ss4lMmZ4BMW1BgK8nXolCG+/+W/efKNzJX9eYYGEHD2R0KG/prGcE4kFzJg2ns2ffsGie5aRVlSJlbYOLy8/HByFAb7ducZyglq7ZhVP/u0vPcBXq9WkZuR23Ne31JKUW0vM8DBOHz1IRORgDpWq8DeVMCgsAntbYc+vXb4lQXjw9/eyY8cPPeQLJqEz5zI67rfUlnMor5X5Y0LYvjue+eM8OZjegoetkUFhQ7C36dxTtCQImzZvZsuWLXz04Ycof9oXTzh9mpdfeZm1q9d0DBxnT51iaEQgW0/WEdJ0hEFRQymt0eIwOBZPW1Ba23QcMe1CEI5tpW3TRwR9fgBzxds07X6PxpOuWE29F+20xR36Jxw9QHNDOQ7+I2ipNzEs0hO5qysKnQ4Hi8m1O/7C/4VVq6o2G1VNJnZF+6me8BTYunTB7Oz2bxm2YAnbd+3F3txC4OChFJbVETt2OGaVGlsLc5dl/3zrgzuwVhQzJKiZ7GJbgrw05JXaoWcmf1j+9442kuNPMCImlorkvbgHD6LR4EV6chIBwf74B3au1IUKlgRh3aaXKC/8mOJKa6rqrBg1uBFnJyOe7lOZf823vX78KampfPTJZxgMBla89AICGbW8LAmC+uA6tDtWE/Tpfgw5j9NyZBP1R9xQLXwI/cRrOqqte+s92twcWbL0dk6eOEVrZS4OPoG4BQ3D29UeG2WnY1l3gnAqt4E9Z+uY7NlEY3MreQXlNDQ283+PLensny2t2NnZYjJo+OjDddz1+zsozM1lcLA7+w8XMGPmiI6ylgShrDgNPy8Dj/xpO3ffGc2WLZm8/8YNpJeocHTu9FPYuz8eRwczMWOGs/brXVSV5DN5/mSCAvxQWTlh79BOkLsThJQjNsjlBly8Tez80IW599dRXyEcd1USHqv9SScz37z7BqExk9CaVNBSibOHP6NHRnLqUNIFCcLtd9zBvffcw7Rp7Vs6wkrygYceYub06dx6661d3ltq3A/4O1sTX2aFSa7G11FFYHAQdk4uWLpEdyEIa4dgHfMoRrsIqr95EPfbP0KTsZ+WgjOYl67vHH9EgmBNbdEZFsydxTe7s7BvS2fytPk42ypQWbfj05sPQn6WDWlb5SyZNJmE3WsJeNQFpZ2FE6xAEDYcxd/OgKe3OzTW4OXrjJ3CgEPQGOSYkMnbP7ALEYScnGyqq2v48KMPuH3p7djbOzBmzJgBdQjv9QP7ld5sbGykoCAfG7UNbW068bsPDOo6tlyq6rW1NeKW+NChUbS1tZGZkU7U8M5vsLucvrcYyguwO7hW3GNU3f9nCh6/FdcWE9bX3ovOYgXSVpzAjrPVePkEEeRgJLdRgYuxBIPSgciosSjkgvdqeyfpThC2bdkiMvZ7l9/NSy++wiN/fJgnn/h71y2GwlRS0oqQeYYy3r2FMw2OOLaWYrR2JGrEMGRmOjqSpQWhqKiQq6ZPFgfT85dgwrv6mkWiH8L5a+emDcjsHbBzcCbIVktajQn/0GHIGovx9A3G1UVYgfQkCEKnXjhvlgiy5bVg4TW8+/6HHbc2ffRvrAcNx8XNB0dZAyXldViFjMfDWIlfUDBOFis0S4Jw5PAh7l62tIv+gtA//+VvPGRhXtr//ScYnYPAwQv7uhKa5AbsnYNQq+UEBYfh6tC5mrYkCEKn++DDD0XsHnzgAU4nJvKvV19lxPDhvPB85xZMVkoKocE+7D/bSEBLAj5BPjQ5DqOxPA8P30Dc3Fw7ntWSIChLc2DNa7jc9jDNKhMVbz2Fi607yhseQBce01Hn0A/bMKDDJ3Q4Jw/E4e3jzOyFC9Do27BTd1o/hArdLQhV1dX4UoWyKh25SUey9ZgeJrPMQ9sYPOVqdu3YitLGlcF+TuQU1TBp6kTq6hrx8nDr0MWyf/544DgzQpdxpsAOpclMq0HJmJBmMlu3M2po555dfXku+05n4+boxbQxbjS2uZKblUbIID8MCmtcXToJiyVBSElPwKFlCp/+4EdkYDPFNTbMi6khrf4jbr7mll6/9x9+3MGC+fPQ6nQUFhUx5Cd/nvOFLQmCdUY8hvXv4fLwczSUZ1P79Vu4uPjBrX/B4NvpKLzjm9XETB1G3NlKHJyc8XVVUlrTzPiJsZhQoFb0TRASchvYdaaWJ69vtwIUlVRy293PcmTn+x3619RUU1VRRUFVDVdNmYRSLmPv9q2Y5DIChk8hwr/TAmVJEBobKvBxrufDT06w/M4JpGVWMzl2MMlZrbh6BXXIP3HyHO7WOlF+Q6uaEQE6ypptGDdmBEazFbZ27f2/Nx+EtGPWNFSb0bWosLMx4+DTRvj4zvHCoNNyPKeJKUM9OHrgMLYuTowWtgwwkZKQxrAxwzr06G5BeOmVVxD2e6+aMYMJEybw8ooVCCvlLz77zMKRV8e2b7ahdFEzZ8Fsdu/eR2DocFT6Jnz9fbGxd+wS38WSILh+H4X97zMxGw2UvhCN7z+SMVRkUL72L10IgqGukHOV1jgbisgqrWPSzJmk51fiqWjC0y8Eq5/icfRGEIx6SHzFgwmhd1AX/jb20fqu4UHMJtbvSWRuuIJKVTDa0gzcPBxx8w6kpKIGP29vlD9tE17KFsPy++4VtxgG0tHzUidSqVw7AhdwUjQjz0rErjaPdaE1+GdWMK7ZH83UW0DdaXa8HCC7E4QVL73cxTnxvLPilXJS/PzTj3npxX+K7F2QPWLESDZs3t4vJ6feJqg9e3Zx//K7RfYtyBcciH7YsQcHh3az5uVe3Z0UX39tBcJWyXn5grlr89Yf+2166+6kuP3HHzh+/ATPP/ccW7Zu5YcffmDl++/3ydxNJiPfr/qa625bhlUvjibdnRSVx7ZgZ61gbwR4n8kijGA0Exb1jr++jmMny5k4qd0JrrerO0Goratv348XwgOZwdnFhcGhfTvcXOx9dHdSfO/LFfzfTR/ibKejvM6Wd3Y+yX233t3v/mNJEATrx9uffcQdkx7BSd1Go1bF6rgnuP+O5/ot35IgCPJtjm+hxUXOGV8Z3klpBKoiMFhYDy6GR/ffe1gQcgSCUMPV4SYqq+pITS9Ao9Xytz8t7SG6MjMZt7DhCHzjTGoGI4f1NN1aEoTWplrslYU01tajMLVh1DTQ1NSAbcginFwu32mshw8CkHdWRUC4nlVPO7P0xXryU5WEjugkCJeDT3eCIHyz/3zhBaZPm8a0qVNZeM01LL/nXq6//rrLEdulbBcLwqoQtI0GtA1KEBZgpva9bplfNKal3192G32dYmgrUVD1lAs+H1cjv0Tf6DZtDSWlDQQEBqBUtlfq6aTYM5iUMH4Ip6AsY+UMYOSWy8bof7HCRY45mkHTKpqKhAHYJJijfsYxKssBWHDuq62p7RVzYavhvNn7cl5Kb8f4ampqaGpqFCdVwRu1vycAeiMIwj3h6FR9fR1KhRJPL69+T96CLEuCIPxfGOQF/ZubmrCytsLb2+dnmd26EwShDcGS4OjoKK5KlQpFv3A//466EwTBOUumaRb3LAWnMLPaTjD3XM4r7VL2QqcY+i3UoqJl/zyPf0NjPWazBpncFmfR36L/EfK6n2IQ329dHWZTsyjfxdkVxc/Ap8cxR4G4als68bex/1mnPLoTBJ3eRKvOiK6lkTa9Ablchq+3+wX7qKa1BStrGxSKnv3AkiAI2Bh0jaIsMwpkciXI5B172pf7vnuzILS/Y2iqVuDgLiwiLldqZ/nuBEH4RViYCBZGGxsbGhoafvbK2JIgKJoKREuG0dBNacH/xuHyjxr3ecxRGPdb5Mjt+3e64zxCvVkQpMm///3tl6r5i8ZB0Go1qLuZja/kgwoe/wN1jlfQs6mpSTwWMlCXQJq67ytfybZ0Oi3W/Tyieil6CIPhQB5RGmj8tVotgg/JQF2B/l4/iwBcTK/qmnqaWnp64V+s3qX+Lng/29j0z3p48TbM6PWGn0XgL9SGSDgMAyf//FZmfxY2F8dGpDK0tekH7PsS8BH+DFQguIH+ti4NQ6nU5SLwixKEy1Xu11Ve4rsXfh8SPhfCx8nRDlfn/m09Xep3IORiEPwAhIFeuiQEJAQkBH4uArLisqr20UQa3y+I5YCHBJXw/8/yjwHEX22twtVZOG3zcz/Xi9fX6trExE2mK00SBhCfiz+VVEJCQELgP4GAzCwtN/4TuEttSghICEgISAhICPyqEfhNEwRxX9FoFL38pUtCQEJAQkBC4LeLgOD/IDhKX07G3/Pr28up89tF6JfX/DdLEFo1WpEcSJeEgISAhICEwH8PAgJJsLW5sLOwcEJEWBiejwLbfpRdOOXSGVn3vweR/9yT/CYJgkQO/nMdRmpZQkBCQEJgoBHoiyScP40inBbpbjW40G+W+vbH6tCfOgONUXblGdac+BdVjaViOHxHW1digudw/Zj+h2HurvNFCUJdfT0ul5k8QzhzLARMcbzEI4H19Q0cj4sXs8BNmzKJ8vIKAgN7T9usa9Oj6xa9cKBfhCRfQkBCQEJAQuDiCAhHtYXjyJZZXS9UKysri9DQ0F6PV1pbWWFtkaxKkCMcZRdi2fS1pSBM5MJxa+G4e29lMjMzxZgUwnaGEP+lr7YtdTZoNZz8vwcwtekY++xbqN0vHqhLmANff+tdlt91Z5dos31h8e3qdVTX1HT5WThSf/edPYOOCYVSS06wcv/f0Ot17ZFZxGAz7WFaxofNY9nkZy74skpKSsVIn2FhnVFVe6twQYJQWVUtKj20W9a4i3UT4bjV2XMphAwahKPjheMGCAloNm3ezry5s8Rz0Gu++x6FXMHfn3y812aaWzW9+hwcP3GSlpYWJk+aiFp9ZXOa5yYdIWTU5Is9dsfvLXWVZFY0oVN7Ezvo8lI/5yUexn/EJFS9BJIxtVTQghMOdmoyMjIID++azc9SQZ2mmQaDGk8H5SXrfbGCZrOJ8nodPi5dQyD3Vc9kaCOvvIlQfygo0BMU1HcAlxNHjxE76dIyMZaeOYDZLwY/957Ylmcno/IOx83+yvaBi2Ej/S4h8L+KgGDeF0z9QibYtNQ0hDH9qqtm4mIRZrwvbD7/7HMGDxnM5Mk9x1dhEre37RxrzgdzEmKttDXoaS7W4BLpIBKB+uxmVHYK7HxtxHgXQt3z2w/n2xaCNQl/hJT3ApGorq4WM2teaBxNLWnm1Kl0rF6/A4XMzOTH5uM580YUDu1JuHq7jh6P4+ixE6SlZxAaEoyXpwfL71l2we7x4iuvc+9dd3SU+dtT/xCJxesrXuxRT7AWvLBlKeX1BciQMyJgCgZTG3lVKbToGsT587F5Kwn16jvHQnzCaVqaW5g+bcoF9eqTIAjJM3Lz8gkP70wHqba2vmAgolaNpjO9shnOnD3H6FEjcOiWVMZSo9Vrv+f6665BkC0wmjfefh9XVxcxhHFvV2NzS4/bggXixx27xMxtzk6OTJo4oVsZE0f37UancmbC6CHs3bMfhYMXs6ZP5MTBHbTgyLioIM4VNlCRl868hVeTnV/E6HAvDh7LwdVYwfDp7fm3444dpKSygdipM0iP20Zdgy2jh/lyJrcCtZ0H82eNJ+3safz8/UltsCOAYgpKaogcMYrGyiLKqhoYMzaawyfP4OHmjlnXQHNDI0NGjsXVBr7ddoobpg/mbGo2gUOGoa0roaVVi86sZkyoI41yNxyszSQk5+Ko0tGkMTI42Je07CKCI4ZTX5pLq1GFjaGWc9VybpgzoT2Dnqaaw4nZ+AYMoqWqmGa9gvExIziTkIDZZMA1IIKm4myixozmZFopER4K0nMK8Q+NwNRUTkWdhiAPO3YnFXLd3OnY2VhBWxN741JRm7W4uzpT1SJjYsxQUs8mozUqCfawZs2+FO69bSJn4nLRyeXEjBtLQUYatY3NDB09lraaYrIKK8RkP/PmzBQxNrRUoJE7o6/OR6d2p7wgF6wdiAxzpzgzD1NrLZW4ig5NI0dEci4pESu3AEYODuDHPceYN2viz4h3+L86zEvPLSHQPwSKiopQqazIyc5m0uRJ4uS7cuVKli9f3mvgK2Gi//677xGsDZFDI8nKzKKxqZHY2FjGjh3bRQlHi2yrouXYbBaDRVUnN6Ct16FyEbJymqlLasB1sCOesW6YjEZxHhIiWJ6/hDYPHz4stikEbRIIhBAUTbg/d+7cXiPI6g0mfvdOMi/eEoK9uUls21lxEHPVW9gOO4xM0fsi5Lv1m/hx5+4uC9m3Xn/lgpE0X/7Xv3nyr4916Lvs3gf6JAiFNem8su0uMQqoSmHFzMhb2X7mM+Sydv8L4U/0oOksn/5yny9UWPgLlhZfH5/+EYTi4lIqKivx9+/M1+7o4IjNBZxHGpuaxEn+/JWdkydaH1xc+s7vvWrNd9x2y00d5iDhhQl/+opI1htBOHDgEBs2bRGbDQoM5M+PPdLtofV8/uk3XHfzTWTsWU3sDffRkLqVMvVYFNpq1m3dzZ03zSFTFsrMEBsOphbQVF7G1VPC+HTVSQIM2cy55xEwVJKc0ciIYYNY9cVaWlryuPf3f+ZPr2/lrb8t5qtvtnH7bbM4sP8UY8cM4VydmvQT+wnxc8bK3pXwAHdOJ5wiaNwcNm3dw+PLFnI04SwTwz3YcqqMSRGu2HoGIdc0kZGeTpUGHBUaxk2YSsm5Q3i5O1GtGkR1ZgLeI6eRdnwXU2bO5o0VK4meMIImoy3WxkbGxcY7OjAOAAAgAElEQVRibKkmT+9BpLqa+NQ8osP9iC/QMcRNRlJBFfb6WiIDPdG7D8NBW0pWqxPVZ48z57qr+e5gOs2laYQF+aIxKLA11BE1fpqYWOpEdg3DXHScSc9j1PAIfjiZzzUTgtCo3cnZswqXgKGczatBbdYxevo0jp4uZPFMX7LytNjqSimoV2Cy82JihDuf/ZiAg8rELfMnc+zIUaIiB5OYkkXspPEcSSqirTgTLzcZlW3WmFobmDJlBBprfwwZR9B7jcJOW0J6FVTVNjJ3+ljUilYKyloJDrhwp+/fMCjVkhCQEOgNAYEgCGHKDXoDQjj3oEFBjBs3DucLbE0L88QnH3/Cgw89SEFBAcePH2fJks4soOfbsSQIra2tYmZgYTFZdbqOmvRGZJ5Kmqu1qBrMeI92xWOcq0gQBBJgGZVWmAzfektIWOYibn8ICaHS09PFNN0PPvhgrxFsBaLzf6szuXuqJyv//TzBwcFcf5M7Tg1rsQ/fIDpF9nV9u3otu/ce6PhZmDdXvvNGn+UvhyCkl8bz1q72OU6lsOaR2W9RVJvJtsSPaWlrFOfSEI/hPL7woz7bO3zkGPUNDVyzcH7/CIJQq7SsXDTbD77IPkVvLSSfTWFQUOBFtxjiTp4StzEWzm9foX/0yRfMnzebAH+/XhVvamntESnu4gRBCLNq5sC2VXg6K4mafivJG99E7uJLs3MsGYk7mT11AjvzrLlrgprUChkJiSncPMmf93cWMOI8QaCVPcczmTHCh2+2JiBvPsvSu/7EvX96n0/eeZS33/mWhVOHYD9kDHbaalLqbTh78gT3LJ6Fvq2WwwezCQ+yptE5kpNxCdy1aCInk9MZF+rMhrhiXJpzmbHoZj55/zvuunc+e46mYGduYNz0ucT/8DWxMSOpUgaRk1fIpLHDOXloH+OmTueL195gyaOP0WYwYKOUk5AQR1hQANkaV2IG2bUnxGoq5FiBkVAnA3laV8aH2tNWl0+RxhV5bRa11oOoSz3MtPnXsOFIJtrCdH637FaMbTpxH7AsNwmfkJEcy6hm8lDvdpnaGr4/Xsi8sQGYbFxI27Ma3yFjKGq2ZmxkADKDlvXH87n1Kj9xi0GpKaa01ZqSWj0LJ4fz4+ky6vIzuf13C/hx+zYWLry6I3nXlq++wX/CNByacjF6jiLU0xqtrhIbtS+VqUdodIpEVpOFVXAMQc4yPnhrHZFBZsYvWoqtRYpiaUiXEJAQGFgEBIKg1erE/WzB/0AYGy4lI+O6tetEfwDB8hsVFcWwYZ3ZMQWNhYnOwa4ztLcw6QuWAQcHe5pLNLQ16XEKtRdJQ11GIyaDGffhTuLKWNhmsLPrugX57bffUlxczKhRo8RFqJDoTSARd9xxR58+Dbrck9Se2ozHjf9kT/IW4vMPER0Sy8KRvWdcFfQWFr279+4Xre2CzsL1yQfvXDDPzeUQhEZNDU+su6Y93b3CillDfydaEM77XAh/zxt5B9eOfqDPFy/4cgh+gs5OndlUeyt8USfFmpraS3KysBTeptfT2tKKs/OFGxfqCA95LiWNfQcOiv++btHVIrHo69JodegtUjgL5VpaWskvEJKXIHaewIDuDo4mykvKUNrY4epkR0lZJUprW7zdHCgrqxQTUJlaKsk2+RJq3Yqvvx/1NZUYzDKUSjVWZh12jnaY5NbUVVfRZjTj6eVNc30VLm6etNRX0aAxsvPwGYYFuTJufAwmowGtUQ66Rlp1BhydXNA012M0y7B1dBHxEXRp1eiwtVZQmJ9DhdGDmMGuaJrq0ejNqKytyU45TVBoJHKVDc62cupLs6hT+BLs50ZrczO29vboda00NWuwdXBE29yETKnC0d6W6tp63N3d2s3txjZa9GBnrRSTZJmQi++1rrYGbXUhpWZPhgUISZv0oLLBXmUWzf5Cylm9pgkjClxdnMW87ULWRKXgI2EyUN+qx9FGhVmuQNdUj7WDM011teL/XZycqKqqxs3dGeGVycx6DDIrjJom2gwmnF3dRNlNGr1oinSy8FfRtTYiU9miUsioratDrhB+t0EmU2HQtoh1hMRPTvY2YuRAldqGpOxqpo3qu+8M7DApSZcQ+N9EYMeOHV1y1KSkpHDfffddFIyNGzdy1cyrqKmtIS7uJLfe2nXSVSmV2Fj4kwnkQEjx7uPdvkAxak0obdrTyhrbTMiVMuQKOYIDnoeHe4+8FcJk/fHHH4sJ9gQHQGHMufPOOy+Y/8ZUX0bVm/PE9p7x86RZZuLZRe8w2KsrmbF8WMGavWffQd5541+8+u+3EebQV195/oJ4/OO5F8WEeeevysqqPrcYBF0+O/wMp3J3t28zKK3QG3QdBMHGyp4Xb9qEjVXf/m8n4xOob2hkzqwZF9TrogThom/5Fy4ggCM4Kl7pAJA1FYXU2QQSdtnh8s2c3rebwkYNo8dPIsjH/YoikpedQXBY386IV6IxTU0ppVprQv3croQ4SYaEgITA/xACwr6+5Xgs7O93X733Bodohfwp/riwordMFCXcFxwULU8iCGUEi4Mw0XdPC31evkAgZGYzrm5uPU5GCPUFXSsqKsRMm4KDorANcrEEWyZNg5hOW6uyxmjS46Due8u8v6+9uaUFk7FrwD+ZXNan/16jppYPDzxBbsXZLk1aq9TcM+0Fhvv37UR5OTr+5giCyBaNJjQ6nRRB8XLetFRWQkBCQELgN4CAQBRsrK17TQkuWBEEi6JGoxUt1Ha2tiKJEBzkBcuA4LgsTPwDmVX21wKh3qjjRM520krjaTPo8HcNY0Lo1Xg5XTkr6m+SIAgvSDjyKXi1Gg1G8d/SJSEgISAhICHw20VA2ApVKBVYq6wumNhMjLOj0dDY2CjuowsTgLXaGsGJ3s7OVrQISKGXr0w/+M0ShCvz+JIUCQEJAQkBCQEJAQmB3hCQCILULyQEJAQkBCQEJAQkBHogIBEEqVNICEgISAhICEgISAhIBEHqAxICEgISAhICEgISAhdHQLIgWGD0SmItX2Y0iHeaKhvxb25iSqgL2XVaNt4/5uJo/swSRn0bp9LyGT9iyM+U1LV64rlMRkf1LfP4yDDR0dMmOBT74SNpq66i8cRRBr/0b9znX31Fdfk1CEta9ylVye/iWOKNetlTNGz6KzXlGqa9thVXP/9fg4pXXAdDdjZme3uaszJRVldjP3ceMtvOIDRXvMFfg0DhrLxej0Kvb9dGJsOgUqH4H3BiKy4pZe++A2LMmMiIcCZNGP9reCMDqsOehddRl3KWqOeXk/rsl3jNnIi+pRGZXsX071YNaNv/rcL7JAiWZ1T1JiMnSpPwtHcn3DlowLBorCqlRWaHj3tngKWCc3EERfXdufX1abTKA3Fy7CsohIGqsgqcvPyw6jsypvhMAkH4OrMRk3CO1qBngTOMC3Hh/zZnEv9kz3OlVRWFeHi1Hylpa67jVPxJIifOxeVieYJMRpJzqhkx2KsDy6b6SjZ9uZqgqbOYOrozCEd9cQ7NzqH4218c9tziKkL8PToKGvQtbFz5IbbRk1k4eVyfAo6NDMPz2ptwv/paavbswOuGW0i9Zwkhf3++kyCYTSQlnaZFoycsYhheru0BI2qKssk2etKgMeFhamT0sN6P2Jw+vJMGmSM2VmrGjgjjXKmeUSGuooyCwgKCAn1IO1dEZNSFs4v19hDlpel4+0ZcHKCfSmR8/yktp1/DzRSJ7I4XaFx5M41WaiL/vAUX384Inhnp56ipbcLdJ4ghwZ0hxy0bKkw+g2LwSPws8lelpWUSGSkQMgPvvPctf3jozt51M+l594vNjB7igWdABNamFvyCQxBDv5jNZFc249xciMovAid1e0CY/lxmIWpa/EnqPT2x9/EVA7JY7d2Lw4gRKCIjO0SmJ8bjExWDsbYMvbMPXhfrx30oU1WQTU5ZNSo7V8YM70pMi5L2UywPIshdja9vV0zryorILCzFLLMidtzo/jxqlzqtzz+P8t//xkoI/24yYVYoaLOxwfj229gu7cySt3fjWqZfdwtnjuwjfMJM7PrIb5Z4ZD8+Y2fgrYbtX3+MU2gU0dFjsVWrOtrVNjVRaLRhiHPvQuKPHWXsxEli8LIdP2xn3oKFF3zO3eu/xNrVi6HRU3B3urTEb0KsgPc++ITFN13Pth92cib5LNdes0AMQmd5CfdHjhjeZ/vJR3ZQjy3R4ydhr+q9/6149X3+9viDXWTohJMFKhXWir77bPquddiOu55A507sTNoajidk4OQdRFRo75F0LwSWQBDq01IY+/FTNCYWUrL7EAqVHCsb906CYDYRd+QoBpmJyIgIjConWivy8ArwRW3TOe8c2nOUqbM6x/yyhJ2ktTgwatRIXPucawCTntOJibRqTYyNHYe6W9K9ltoS7Fw7n+1s4ikaW3SoXTwZM6wz79HP7vwXECCcAhFOeghBluRyMYxen1evBKGqtQYruRWOanuqWut45tT7fJK+EUcrW07duJZgh94Hy56tmCkvzKRN7o7C1ITMygZf785J0aTXoUeFtap95i5OO00l7kRHdk4yZw9tZtjEeVTW1OPp6UX357k4QdBxOu404dETsOvsi70C8lFqPb62CurbTOzIbuDZGDcyyprZl1HD6zcP7VGnMD+FwKBI9h9M4kx6JnffcT2Otr2PqnU11ZQUlxA1ciSNjSWk7v6R4Om34OXWnu0yJzWJQo0tM8Z0DqglpeUoG0qp84omon0u7XI119eSlnSOmOlTQVvK+nWbmXDNMnx/yrbY3FjJvsRSFk4ZieICHeHYqMGM2rSTMzfMx2wyIYQ9lCkUDH7lzQ6CUFdZQY21G2FOwsBnJvH4MWraYHiwF/mmdoJg01yFramJhtpyImMnk3LqOG5+UYwe6seONV8Se+OdNGedpkLthzCGODVkk92qoij1CLPmL6K1Roeri5G0nGKmzZxD1tlTlNbomT11NDv2H2JQZCylqYdwd3LGJ2IMjZUlRAyN4HIJQk5CAo5aHQ2lhdQe3kbADffQotXhPnYszu6dga7O5JYwMqT9Yz578gjFzTImBMg4ltuMh509tUYlES5W5Gl0GHR6pgxx5siZOuxcHYkIcOHY2QxSUktZesM4ks6UEzIqEmVTJdml9cyYMVWM0PmPj/bxzwfms+777YweFoJvUAAnDhzAIzic7/ee5Pbxg3AOG07GmdNg48SYcHfOJadi7T+cESGX9h2ahOAwuTnIPL2oy8/H1s0NB7Ua28pK1GM6LWPHd2/FKWIc+opCHCPG0HAujrImLdMmDOf4oUTarBSY9QZmzJlN6smj1LVZMWPqOBTdxpivtxzl9kXtg2vqiQPUqr3RFxdg8AikJn4jTsOmkZqYyKwZMURFjeJkZh0ThnmzZedhrp45nuqGJpxtlew8eIJR0bHk52XRVFONm4sNMrtAxo0MvqTxs23GDKwOHIDgYBg9GrZsEfu2dtky1J9/3iHji1efZdbtD3B020bmLr2D+L0HcRs8ksacBDTImTRtFpmnT3I2JYP5d94rEoSVT/+Dax9+CAd9NYfSq7BTyNEYDEyPjeFUViZNNXVMjPTneGYT0UM9iU/MYHT0ODISjzNqbBTxJzJpNDQzeVQEZzLyuWr2HM6dPEqVRsWsqaNIOpNJdPRwBN1m3nIzZtwICuw7G6olIJ9+8TU3XHeNmFXxm2/XUl5RKebDETIDWh7/27NvP7NmzqCqKJv4c5nMuGomxw8eImx4NIHe7hzfvhrv8DFY+4WQc/YM/l4elOTnYlS7MGF4MDsPHefoiTT+/sclHD9xgsHR48mKS8R/dAyDfJ04e/wAOrUnfo5y8suamDktVgyoFHd4N4XnzhFz493knzuFk2cw0cND0RbGkdLowojIMCrzsziTXcSY8RPxcr40S9eehdeLFoNB98yjIS2H6oNJqBxssXbw7iQIJj3vfbKJ2xYvoDhxJ6cb3JkYbE9p8Tl0btEEKprJaAQ7bRNWSgOh46fh72xL9o6PMIQvJNC+jRKNM2pjJY7ODmSnp6Nwj0RbU0Vs7Aiykk5jKywY7ARyZGb37t2ERo5AU15Ag9FMWfJxgqcuFnPjoC0nLqWO8WMiyT57HL8A/8v+ti/pQ+hWKC7+lJjPoq6+nulT+5HN8Xj1OT5IXscIp1CeSHwfBXJ0Jr2YFTDuuq8Y69G56rBs22zSsPbjNUQtvIkofwea0ndSqfShpdWJ0oJ4AoMHMTRqLIeOHibIXo6VykSRMoLCQ6sZPPdOhvrYiudbhfOsbW16rKxUCARh+NRrwWzi+Rc/5PG/3s6Gzz7HY9wCZkeHYkkQWqvz+Gr9Ye6+7w7x5e86ls5dD/yRfUcTmDM2hI8+XUXUjOuYEtU7O23VG7l9XxmLBjlw4Gwl3+3PxslKQebLM7CzWCUIz5yZno5abSRwUATvv76GB/+8hK+/2cztS68VIUk6sImECjfuuaX9BRw5EYe8uYHocTHUYE92VikZx45y3YJIth8tYNkd11FfXsQ5nRNTgtpX56kZ2biZGkWCMNihje83bsZoMjN2wlSGBHmzZf16bDQarvrd76hq0VNRVklJdiqTxkSwdtsR7rlnCXL07DldwKzosD770omYoYzcuIPEhe3ZFMWk4pgZYkEQqsrKwN0LD4HMNeeSkCvHT1VLcr0VTj6BIkEoPpeCv62RObOHsmHbaXLzs7jrgXtxs7HuIAhteUlk6504l1PPkGFDmB5qx5YftrJowQw2fPUj9VbeLLspln1pNXhat6EqP0ObTzRnju4mu1yOs6KURx9/guOnkpC16ZgwcfxlE4T8TetxOLsTbYuS8imzCTq1g/pGIx5/eR4ni+xmmUUlDAnwE/vetu+/orikgmvH++MYfStJ6Xm0FqURHBiAOmwUyqwfsbUCrc90juzbh7u7I1OnxvL2O1/Q0qTkyf+7i5NpOZw9tAuzwcDY65czykvWQRA2bfwBdydrbF0diB41TsywuSaumNFNJ8lstiN2wUKai87g6ahE7RbBZ19u4r57bryk8UG7by/NkZGYrdXYpqcjHzIYvVKFbXMzSv/OLZXju7cTNnUh+rIc6tUeyK1tiHBu4Fx8Kq34INdkMmRoNKlt7pzauRYqc7nugSfxtdawZtMOrlq0GC9b+HZ3EktmjxJ1O/bDZsZfNZuvVq0lIamA22cGMWj2XaQIScyCfLBxtsfNyVtc0WzZc5xFsyaQmZqEsSqdxFIZha2OhIf4MNqmGk3wFFK2reGme/qwyHRDo23KFKyOHIGhQ2HzZoiNBSGL3ZIlWH3zTSdBeO15lv75afas/ZIRU6ezZ+8hKmsNuNuaWLb8HjILEzE2O6OtycMnZqZIED74x/Ms/+fTNKXupsx1EhWJexk0OBInLy8qDGqC6k+QnFWDcvAMNKn7mLxwEc/88x28bfQ4+0Vw2++uEfOP5CTH4eAbzoRrb0GlrUWWn0BWox1h4yYR7KzkC0G3R/5Ack4d0ZGXRoxef/NdUtPSxTw4f/rDgxQVFXMuNZ37l9/VBaHzBOGdF57AJWQUI6ZdRcKubSy6eQlu9lbE7/qeqAmzOFRior68jJGmTOxjrqcmLxHHtjKCx87nlVdX4u/YhtzJV0xepNDbMe+aCQgfw/dfr6a8sIEx06JQyt24atoY9PpWWjQGSo//SHaLNeUtOmRNNSx/8CcrhKaKDUdy8bRqY/K0sXz07jbue/jmS+rnAkEQUsy7TQ8n8/U1hN5/PXWnUrF28OmxxbDt43cYNmksVcrB6DIPExEThZvbIA5lNTA90h3RgjBtGN+sj2fprbNFguAy5S4cGlM5WeGGfVsOfkG+eHiF8daKL/nj39rTOZ+NiyNgTAzOSjkmQy2rvt2F0sMfF00pbpHReBkK8IuazvoNG5k+fgg51TbEjh5MQWYSrk4qbC7z274kYLoVyssvEEljbm4eS25bfEERfW4x7C2KY8GOhxnjGsFHU57h0WOvEuMdxT/HPYhS3m46aqqrp8XOjtTUYlqqyrBpzCAhp4mRV93MvDE+4sCq1bWwae16GoRVlskkxvFP3JuA72BbFEp3bvv93Wz59EvSSgoYPTqCaxfdhoOdml27DjJnzjSOb/6E3GY7WmVmbFrbaNI24eDkhGvAaBZMH96FIGxc9RlVzUaQGamobkaw8jl5eSMA4u3hgbW9Epew6Vw7IaRXUN5LqWOWjw2BDiqadEba9EZMJjNfHy/hqau7mn/ijuwnIMCf/UdOcuB0PtPHhqGXO7DslgWi7P2bPiHu+Dkee+lNrBQgJMdIOLKbtPwySmtlmE31hAyewIRgDd/tOI29TxBOCj0xc24iwkstyti3cyeDAz1o6cOC0KbTkpWwl8S8RvJqWrFurcM/YhSzRnnzxeYjKO1dxAF7yOhJxET0vbcubDEM+uvfUbm6k/Pc/xHx1gdkPPogoU+/0GFBMJuN7PrqIypVrkyeOpWTB/fQJrdm7sRo8sztFgRLgvDdd4eo0WtwCxnLzVPD2bHmI0oMTnh7+zArZjBr4ptoTd6NbeBgImxaMAeFUHquAhe7ckrrWrn6xrsoKKkQCUK1lS/pWZkUlehxtq3hsUceZdtnbxG28D4ivGxEguDuHkpJSws52WW01Vcxb/bUPjt++q4tNGU9gnf5CKomPIIs9080lbkz4i+bcLbIPHp8yxrSm2SEhwUTf+w4TlZa5kZ3Jwg+7DmVhVyrYcksPzTe0zm0Zw9D3NWcLq0io1jLwnAdWVoPAkKHois9R12rilsWX4vCqOPex19l6ohAJs+eT2lGMuHDh7Bq9W6mzr+Z3Wu/YtpQRzzHz2LHtm24urqycGpEB0FwcbQi0FGN7SAPlB6jiOzFyiSAYGpooPS1V6ldfAtOjo5iCFqrtjbcHR1ReHRuSVkSBJ1bEFs+X4mttYrFixeQkaXrIAgZRi9Obv4QV7dB3HLTfLrv3BWdS2BvQipOvkH4mhoYOXEir339IxWZ2Syd0U4QDqz9mHmLb+H5J9/n1befEClpRXYq2w/FC8HluWHOZL7bd4KJU+eRmZnXhSC4WjUQFemLzGUQxQZPRof3vq2lufZa1Fu3isl8xMg7BgNmmYzmxx7D4bXXeiUIwUPD2ZOQg6axrZMglJZyeNcuaitruP2RP4sE4b2n/ohT1EQmhdigDZplQRA8+Xb1Vmhp4OZ5UZTaR2NTfY74lBwiJszn1IZPmTolksNZrajMEB3kQFpFK7fceD2lNTUEeLjxxadfs+zedhL02Yq/ofIOYcqcxWTnpGKlacLTWUFEzOw++3dGVjYvr3id4OBBLL7xOjHXwDer1vLE4492sSB88O4buAdFMtRNQVJhHddfN4X1q3cyNHYG0ZFB7Fv7gfjNzrjmRuJSCrh+tBuffbkRBw8v5kyIYv2BOE6eKea5u6az/cg5JsycRFZcHjPnx4CtHd9//hWuIRF4KhrIK29hyW03YzYZefuNT1E1FzL3zvv4cecOhg2LYcbk0VQnfM+2dCNhQ0dCXR45RVVMnr2AjzcewLe+lNBBdkxZfA+OfViCBYIg+HG5Tggh8401jHr7UYpW70YtEITv230QzAYt//rke1xpYvHia1j/QwKDnU2Ej41m/9kKWrOTkXsEEOxs3ytBcLPV88Gbn2O0V7N40dQOgqB2tuX3v1+M2djG5m++pEnpyKIZUWzYlYy9hz+2bWW0mm2ZNNyT3BYPJo9qJ3t7f9hMeXUzXsNGM97f3EEQLvXb7g9BEBJZnQ9rbRneujdZF3RSFPJsC5cMmZhz+/y/+1Lq2KHDTLyIyaJ73TatFnNbE7viS7jmqvZVh3DVluRy9EwG4cOiGRLUuS3RvX6nBcFEfFweMeNH9Aczsc6KxBpCHZTsLm3lh7NVlGaUife9HK0ofaFrUovjh/YzYWrviS6EPR6VUs7H737KPX+4r8cAaqmgUDbxZBzDYyfzU96Rjp/3HzjE9OlT25MtXcal1WipKsnFedBQHPrYT7UUJxAEmcoKp3GxOI4eg7akmKqtGxn8wmu/SidFY3MFWw5lct2CKSI2l7vFYGhrI/mbj3A9vBPz8qepX/UiHve/gH9U3/uxlwF/j6IHd66jvl5GzKw5+LpdPIHZz2mr17omE/qcHLTVVaIZXNXUhEPsBJSufTCKK65A7wIzTh1F4xzBqLCByQFiLCvDmJyMSoy2ZxZJguCDoIyJQeHi8gs95eU1kxp/EJ1dEKOHDrq8ihalBTP+zt17OXDwiGhFEDIr3rH01j7j+ve7oV9ZRcEHoSYxiehXnyLzna9pLi4Qt0w9Yycwc8O6X5m2vw11rugpBiHVp5Al63IuXWsTRRW1hAX/fOdHITX1pSQJ6Uu/5BodOqOJ0lYjmtY2Who1YlFblYLbxnTu/5UWFeHo4YO9uvfZ12zUk5VbQFBoGNYXcYwsKylCbu2Al3vXBCCVJcWoHFxwuZBDTB8PUlddTpMWAv0vbc+yctN37bGrz1/tOww4xoxH7X/l4npfTr8Y6LJC4pbGikrqtBq8PTyxsb80B7CB1mvA5AsTpGBNqK9HZm+PTHURh5wBU0QS/Esh0NraisFgFDPc/i+EHi7dtQdNeQVKe1vsAgJQOTqKxFDl6IBtN4fYX+od/NbbuaIE4bcOhqS/hICEgISAhICEgIRAOwISQZB6goSAhICEgISAhICEQA8EJIIgdQoJAQkBCQEJAQkBCYGeBKGmplbKlix1DAkBCQEJAQkBCQEJgS4IyAwGg0QQpE4hISAhICEgISAh8D+IgODMajQae31yaYvhf7BDSI8sISAhICEgISAhICAgnP6TCILUFyQEJAQkBCQEJAQkBLogYEkQqqurcbcIN3/ZFoTmVg1lldUI0Zhs1GoCfb06ojJJuEsISAhICEgISAhICPx2EDhPEIqLi/n73//Ogw8+yLhx7cn9LpkgFJdX8t5X33Lo+BY8nFqwVxuparCiodWR++94mFkX6rEAACAASURBVBvmzsTxvz3YzG/nnUuaSghICEgISAhICFwUgfMEYf/+/R1lY2NjsbGxuThBEMJ2btp1gFdXPsvGZ07g7tjWo8GjKa78YeV41r77PhGh/Q8RetEnkQpICEgISAhICEgI9IWAoQxj6WzQp0gYdSAgQ+byHHLXv/+UiK8rND/LB+HrTT+QHP84Ly5LQyE3i1aDslo1I4Ib2RHvyZyxlWIK5matkqX/msKKpz9haFjvyZCkNyYhICEgISAhICEwUAiYKu/F3PTpQIn/DcuVI/c7gEzdM71zvwlCcnoWz664ne/+HicC89UefxKznbGxNpJRbM+s0VVsPubNZ39OwtdNS0WdNfevvJUtn37RA0iNVsf2/UdobG5l6rhRhAUF/GywT59LJzoqooucgydPM21cNJt2HWTR7KliimrpkhCQEJAQkBD470fAVH4T5pb1//0P2o8nlPtsR2bbnm3Y8uo3QfjDM8/w1KIVuDvpOJbqyktrhrDykTMEemioa1bhYq/n4Fk39ie5s/SqYsJ8W1h70I82pw9YduPVHToI5GDxH57k5gWzsLNRE5+cyguPPYBS2Z42ur/XX195m3898UiX6jc//ATfvfsKQ666kZSda1EpLyGdYX8VkOpJCEgISAhICPxqEJAIQt+v4ooShOq6en7/57mse+ok5/IdeH9rMA8tymOwb4uQ/5mlK6L58i+JYhLAbXFefPJjEOueOkWbQc4tr97JoTUfdmialp3PSys/5+vXn+uifWlFFV+s30p9YzMTx4zgutnTxd8/XrOJzPxC3JwdeeTOW9EbDGQXFLHz0AlqGxq5Yc4MsbxEEH4136WkiISAhMB/OQKCP1pKVi5llTWEBvoREuh32U9sMpnZdzyekID+1b9YgxJB+IUIwv4TCRzYuYR/LM3gqS8iuWVaCaE+rTz+yVCuGlVNRrEdy+cVcOvLY9n18nH+9ulQFsWWM3V4DQufvYYdX2/p0FQIwrDgnke584aFzJo0Dk+39lzsi+77M688/jChQf48/MwK7v/djYwZHklWfhGDBwXw1Ybt1NQ1cMvVs5l22/3EbfhMPFK5+OEnWffeK7z03mf/1RYEgUAZfopwJTy3v7fnxb4Pdh2O46qJY1Eofp51pq+GqmvrcXftmpr6okpd4QJGo4mSikqxL3i4OGNtbXWFW7h0cQJ5FY79Crr4eLqjkF8kv/eli5ZKSgj8ahAQyMHn329leHgYo4YOYffhOHGhOH/axH6lkn7nq3XMiB3T4/l0bXqGh4di1c905L8GgqA3yDCbZVipTL+a9ycockUtCOt37KMxfxl3zC5Cp5fzl4+GMXNUNUaTjA+3D8LJTs/yBfm88G04G/4RzzPfhPP+w8kiIA+8O5mP3jjcBRxhUH/363V8uGoDj937O26/biH3P/0yn6/4h1guu6CYPzz7Kj989ia19Y2cSc8kMTWT3MISnnrwLv792Spee/KPYtk3PltFaKA/R04l/VcThFWbd5CUliVuxQwOCuDOm66+qE/FW1+s4cElN6FS9b210qrVYqtWd3k/wgCg1bVho7bus1ObzGbufeIFPlvx9H+041fW1LLig6/EPhCXfE7crgrw8eq3ToIVTK/X9xiUDAYjggvLhchWRm4Bb3+xhoiwYLbsOcj2T9/s9+DW7weQKkoIDDACRxPO4O3hJn5z56+UzBx8vT1xcXS47NaFeeCeW64Vv62CkjICfb3Fse2DVetZeu187O1sL1umUOFiBOFUlhP//Pb/2TsLKCuPJApf3N0luJMACZDg7sHd3Z3g7k5wdwvuGoIEh+Du7m4DA8wge74ij52QwSEw8PfunPDe+6W7Wup2ddWtBLp6y7/ChfTQ1BbbFCSg9zTDPI/NMRZ0js+7Vzr4Rkr/yPmgunffj76Pc/sfbTh7NaD6z42tX6s/i7DI2zaVAgV4pCq5zihRNDeduBhYmZJet99qD0qic9cDKVo4dw2us/edZPHiTR8UICxf/5e2byirpkWPqd+c2Iod6Z5CBvXUwTNBVTnXGeVunVpz2m1Rmobptb7vetUZnERtSh9Wwmh3Vax7Ls0ZvdTbRnl4PlLSn0tr2fiB6jJkrEZ2bWXXAQQqt+ikvFnSG0BoVr2c+SrMW77GAMLI6fPUoX41u3bIpJk2WP/ate8fAOHO3Xuq0qLzF+WDAAgK4M+/UiZNJJR4zTbddebCZfVt3VAJ48TUig1b1G3YeOXLkk4NK5XSwAnTVatMUY2ZMV+zl65U6YK5Vblovn/0xcqNWxUjamQzE7rK3D9WK17MaEoc9+URKN4BhBFT52justXq3aKevksQV92Hj9efG7epUeXSyvjTDxozc4EWrVqnge2aaNPOvVq6ZqNChQiu4Z1bvPOgByDsPXRcWdOmlKfnI1Vt2UUT+nQQY7bHiAnKm/mZLG7edrPxcPOOmxaN6qcm3fvr1LmL6tumkRLFifmP93cdOlaNq5RRwAD/B0gNO/dVt6a1/wWmvN4IQNh/5IQK58qsfmOnqlzB3Lp8/YZa9h6ilEkSqU2dKho+ZZZmLl1lFrTyhfIIELdo1Xo1qVpGuTKmUZPuAwz8nr90VX+s36wsqVPI/f4Dlf2lnTbOGqOOA0eZZWjeiD7y8PBU3Y69lT5FMjWvUUEjp83V3GV/qmCOTKpVpsg7y9S50ZHAqyTw65gpalixxD/Asoenp80n1o23LawDPyROYMfHzXsOUv6sGcxS3HP4BDWrUf6drBJvAhBc9fxtVVSVyXJOy3eE05VbAbT5YCgVTndRmZNeM1+7pkWPyp/fp3Z0XjX3aZ26FNgsJtdu+9fQhTGUP/Ul5f3pshoN/1a37vlTn2r7bfPcZnwCfRP+gXKluKzVe8KqZYmjGrMsmgqkuqStR0I+s7qkuGLVWLU7rLIkvaZJK6Mq43fX/wEQuk+Pa/dSDp0Nqn2nglsEYeqENzVwXkzlT31ZBVJf1KD5sbTrRHD1rHJA4UL8m4LAa798UIBw+txFten6s8Y32anft4U3p8Qi6S6oat/v5c/vE4UK5qkgAR8pcuiHKpftrCr0/kG9q+1XmOAe+rljWW2YOe553TCT+/3b5M2CnihncW2cNVYVmrTXlP5dFDJ4MFP6YUKGMJ+Evm1+sQV80ITpOnTitAGE7BXqaufCybY7K1yrmYZ2am7nYSi2Qe2b2IAaOXWuLl27rnb1qn4xTopeAcLgiTNUOFcWRQwbWn3HTFGZArk0fs5itaxZQdv2EobqW2u37lS1EgXVuFt/9Wvzi/z48f0vR00U/R9rNxtqTxQ3pqYt+sMsFBzvvKq8CBC27N6vdVt3KlnCeOo8ZKyWjR8kP7592SLSbeg4U9I4p84f8atZQXqOmKim1cuJ3UiCmNEV7u+jprddXLwCBO5FkfduWV8T5ixWlWL5tXbLTt1/+FAHjp5UnXJFrf1Xrt+0sVKtZEEbKy8eBWBVAVRVL1FIvv34VrMeg9ShQTWFCBb0ldUDIDTs/KtdVzJvTuXPlkHt+g1XplTJRRRQ9nQ/2QKI4yxHIeu27BRyBARQ39L5c+mXrv00uENTnb14WUtWb1Dmn1Lo+NlzypUhtcbPXmSROknixzELT6mGbVSvfHFt23tA2dP+pLnLV6tZ9fIKGMC/45D7tgPJuf6NJcAakS3Nj/84Xrx646ZwQnuXeXzl2g3tOnhESRPG09177s8tBkShFc+T7Y3r9eKFr7MgvAgQFmyKqGjh7ytJrNu2yR1ce6/51BVIc8ku7Twlnu7d96tIoR+oVr5TGrYohkXv/bk7rOrmP6nTVwLpr0OhFCXMA+04FkK18p7SgTPB9OixLy3fHk51C5w0x/1yWc9qyMJYKpbhvE5dCqS0iW+qdI/kptQLpbmgWJHc/wEQ6g39Tg88/NjGHLARIZSH1aHPrNjKnfKKAZs8Ka9o5/EQ+jbGHcFFVD3P6VfK7YMCBHarZRvW1ciaww1JTV4ZVbPXR9bQeru1cX9onboSWCnj3bIGUumCaS6pYJqLVvGtl7qrbb0qzyt74OgJdR82Xg88PMwcVSRnFuXMmFp7Dx/XuFkLdO/+A8WLEU2Nq5bRvsPH1X/8VAMNyRMn0MVr11Xy5+z6dcxvevLkia7fuqNcGVLZwgr6HDp5ljZu3yPfvn0pacK4alCxpFFAl2rQRpP7dvxoZ/HvPILf8kavAKFV76FqVqOcyQaAUDBHRjsLrFG6sPBXOH3hklDaHDGg8Lh3z6Fjalmr4r/eill9zrI/deTEafMLYbf7uvIiQFi5YYuu3LilJAni2K0AvGXrNitO9KhauHKd2tatosbdBmh4l2fWAs4wKxXNZ5YhjgSwAr1L8QoQ7t2/r3od+tg7lq7eqALZM2rfkRPad+SYDh8/rfYNnlmdKCfOnteav3YoRtRIypwqxb9e7XbPXWNnLDDZ1atQXEEDv97M6bIgpE2R1AjF6IsOA0apWJ6s9vwYUSLZf9dt26WTZy8oUrgwih4lkr5PHF/L1m5Sxp+SG5gb0rGZ/Y4FIdNPyRUsSGBFjhDOQFXp/DlNXiykZRq1U7cmtW0nwrOxyG3csUf7jhxX8xrl30Wczj2OBF4rATZ2rNWlMf8HDqTL124Y8B3ZrdU7HanhrMhmMMULmxIsm+/DyPsuACF53FuKEvaB9p8OZhw/KOWYEd1NJlgQKuQ4oxajE6lH1QMaNC+Wcqa4YjrRn58nZn2IF/WuWda3HQ2pevlP6uCZYHYsHzvyPe09Gdyeg3XhxMUgChfyoWasiWzUAEQAYkGgnLkS6KUWhD0ng9sRhF8/T9VjelzlS3VJ/vw81ZOnsuMPrPahg3kagHhV+aAAgRet2rRN8+ZWUr8a++y9bSckUKTQDxU6mId2nwihn3+6pCHzY6pXtQP6Jtx93XvgR5UH5NGkgTNMSX+ogvJjt+WdovtQ7/hcn+MVILALnv37SvMTQHlhVu4/dorChw2jMxcuqW65YianqsULaMbSFfLr248uX79pwOtlbBAXr15TpHBh36j5AIS8VRopV8bUdn2pfDnM8oPCQ6H9lOxbTVnwu4E9FGe9CiU+GkDoOmSc4seOLnf3Byr+czZToL1HTVK40KGEIyWWggPHTmr3wSPy58+fcqZPZeP5wcOHxvYJV4Z35f6DB2LxChI40BvJxOsRA+8vlS+nHfs89PCw44rCOTNr1tJV8ufXj1k1SubNoRFTZtuu69KV62ZO5VgkXKhQesr/nj61urkAAs6Yv83/XcGCBDHQMX/5WgPK/v37VYFsGfX7mk3C1Hv91m071nGKI4GPJQHAOCCc8cf6nvzbBJqxZIXqlC32Sp8n7+rDOO875jfjxYkfK5puud1VoAABbLPyPv5EbwoQ/tgRTjl+uKr1+0MrftS7ttFl119jQFKNaLDblDFl4eYIypfqss5fC6j7Hr514XognbsWUGGCeypF3FvCAhEx9APFiOBu9+88EUIB/T1Rsli3FS/qPdUalEQ9Kx8wmgCABT5N24+GsN+OnA+i5H/7KVy+FUAXrgV87rfAsUO5rOesDscvBlaMCPeNqBBQQV1gNMYncMLyaAoayFPJ4942P4n/FCDQiU179FO6aL3svIUQRhAVyIXPoJniGS8oS9Kr9lvLscmUMWsfWxQ/ZPmaAcKHlKPzLEcCjgQcCXxICbA2c1SQJ1Pat3osuoXNhD+//gzgA4TxK4obM9o/fKPe6qFv4KT4suexwz97NZAuXAugNIlvvu1r/3X906fStTsBtOiv8KqU4+x7P+9DPOCDWxCoFP4D5Zu013cRZqpGnpMWvfBiuXQjgOoOTaWiBZurTIHcH6It/3jG4ydPzGmLXZVTHAk4EnAk4EjAkYB3EnhTC8KL95IqYPmOsCqY+pLt8t+3YE2YuS6yiqa7aD57n0P5KADB1bC/du1/BhSinVaxjOcVKdRD7T8dXKN/j6YwYb/T1P5dFSZUiI8uh0tXr2vI5JmqV76EVm/erqJ5smrY5FmqUaqwEXDgeEecPhwKZQvmtnP4E2cu2Nn0H+s2K3L4sPZvTOOxo3+jPJnSaNLcJSpXKI+ZxZes3qiapQu/MtzvozfSeYEjAUcCjgQcCby1BN4VILz1i3zgDR8VICAPHFVgWOTvtttdRQ4fTsGDBTHnNDzDX1bImYDSxrnu0aNHOnPxsqJZ3Lov3bl7V2FChdTRU2cszAsyIBi68ETPlzW9edgTtnbX/b4ihA1tjnWEQRJDW7pBG3VsWN3Osga0a6IFK9bqxu3b5oDGOfTwqbM1pntb+75Qzsyq1LyTeZsTIvjr6N/M+ZGz5gETphkN9I2bt81pBhbH5N++2qPfB44Pp8qOBBwJOBL4oiXgAISXd+9HBwjvOrLwDifk6577fXOmIuaVkLIkCePZscHWPfstKmHXgSPy78+veeMDBvDmnjB7kWJFi2pkGlgE4ACYv2KNhYkR1njo+CkLlWlXv6qmLlxmDmaZfvrBrAv+/PtV5aL5DSAQflaxaUfzsG9es4L6j5tqYWSwNoYKEUybd+5VyiSJBZfCD4njG0+AUxwJOBJwJOBIwOdI4Mmtnnp6/d05VnxOS9+ypr6DyPc3e+XL7z/5X3jKOydressqvPTyW3fcLMQRG4Nv335EmNr1m7eepYX2JQXw78+8tFHWxO1HCBNad93dFSFsGAtNCxU8uMXRAyZuubmZdYBskFDcYhEAgJh14vEjwX5HTDh+Czdu3VbUiBFM6RM6c+TkGfsv4IN/8zxi07GAcHTB58CBAr6WUfBDycV5jiMBRwKOBBwJfEAJPHXXU7ep0pOrH/ChPv1RvqSAGeUrYCpvG/LJAYJPF69Tf0cCjgQcCTgScCTwJUrAAQhfYq86bXIk4EjAkYAjAUcC7ykBByC8pwCd2x0JOBJwJOBIwJHAlygBByB8ib3qtMmRgCMBRwKOBBwJvKcEXgkQHjx4+PTJ0ydG8cqfq/z/X+/5duf2z1oCvn37fufMaZ91w5zKORJwJOBIwJHAPyTgIiPwJV/y5duXfPvyrYcPH+jxY+9TXvu6dev200dPHlt44FP+SM/llK9GAv79+xcgwSmOBBwJOBJwJPBlS8AAgi+AgS9b94ka9PTwsPwa3hVfd9zcnj63Hjwle6cDEL7sIfLP1gXwH8DSGzvFkYAjAUcCjgS+fAlgPbD/+/Jlfw8fvMKCcPfuXUMEz2HBv//x5UvsK26h/wAB5MexIHzFI8BpuiMBRwJfjwSegQMzJPzd6Pv377/8iMHd3d0sCE75OiUQIEAA54jh6+x6p9WOBBwJOBKQu7v7qwGCI6OvVwIOQPh6+95puSMBRwKOBF4ZxYAFwRHR1ysBByB8vX3vtNyRgCMBRwIOQHDGwEsl4AAEZ3A4EnAk4Ejg65WAAxC+3r5/bcsdgPBaETkXOBJwJOBI4IuVgAMQvtiuff+GOQDh/WXoPMGRgCMBRwI+VQLvBBBwTCC6wRUK4VMb79T7mQSId/WufGiA4OHpaSQcfv36/SxFz2QgwCdIkMBWv0ePHj2vK+OdkJ/AgZ/99imLp6en/Pnz98ZVoO733N0VNEiQN77nQ1344MEDBQwY8Pnj3qTuyNl1z8vG5pvWz8Xj8q6EX7du3VKQIEHeSt5vUje8w72OJdjq/Pjx8ya3mle5d9dCaOOKX+dBNt98+5bfN3zuG738PS+ijvTJm7b1PV/3QW6nzh4eHv8Yxx/kwe/4EK/r0js+4o1vu3v3rrX9xWIsuy9zUvTwfKzbt2+Jm2FecorPlAALTZQoURTQvz9vQcL7AoQtW7frl6bNdPPmLYUOHUp1a9dU/HhxlSxp0k8isGvXrytsmDDevvvhw4fq2aevihYupEQJExh7WOt2HdW9S0e7/uzZc9q0+S8VL1bkveqOzC9cvKhvokZ95+dUrlZTI4cNfmOgBfDp2qOXunV+1pZ3KcdPnFTsWDGf37px02alSe19DnkuOnT4iBLEj6dJv01VuTKlnt/3S9Pm6tmtq/z5ezlIHDJshLJkzqQnTx4rcaJE71Ld5/fs3LXbxl+WzBnf+DmHjxzV0WPHlSzpd1qwcIlKFC+iMKFDv/H9r7rQJbfev/ZTw/p1nwOPPn37q3bNGgocONBr3zNs+EjVqln9X9etXrNWUaNGVZzYsey3tes2KHz4sEoQP/5rn/kmF1y9elXhwoV75aUAQMYKfe+1XLx0SeHChtWtW7d1566bYsWI8Sav/CjXnD5zxta9x48e6dbt24oQPvwr33Pjxg0t+X2Zypb+/zj+KBV7zUOfj52+/VS/Th0FCOD/o1fj8uXLOnz48L/ewzh7KUC4fPWavokS2UehwI8uSR/6gmMnTipC+HDe7jLeFyAgEhaMBr801dBB/bVm3Tpt3PSXzp09p6ZNGinaN9+obftOdk2H9m0UONCzxfH3ZX9o7PiJ6tW9q06fPqMp02coZ/ZsypUzh36bMtWUz48/plCJYkW1YNFiTZk2Xf379NLR4yc0Y8YsVapYXoECBtSWrdu0Zds2Nf2lkdauW6/lK1epft1aSpkihVkHUJrnzp1X966dtHDxEi1evNTeGStWTKvT/gMHFDFCRHXt0VPffPONypUupZu3bgoF1qhBfe3bt1/33O9ZHWPHiqVVq1dr6KABtphs2rxFGdKlVfZsWdS7Tz+dPntGvXt0V/eevU2xN25UX526dBcy7tKpvZYsXaYZs2arUYN69qzWbTsoRIjgatOquTp06mqLfpXKFU0+z5RsF3Xs0k333e+rR7fOpmiuXLmqvfv2acfOnSpVqqR69+6rZMmSqnjRwtbWrp06qEOnLvLt248qViirHTt3qVCB/GrVpr0a1KujXn36KmKkCPqlQX317P2rrl27rmjRoqlwofxq+EsTZcuaTbVrVtPly1dUsGhxlSpRXMWLFlH3Xn0UOVJENW/a2Op3/MQJNW7aQsWKFLZd7KVLl3Xh4gUN6NvH2t+4UQN169FbWBd6du/yHJx26trd+N+DBw+mPLlz2fqyc+cuofgAZokTJ1Kbdh0UNGhQFSlU0JQQu/sVq/40wDV85ChFjBDB+h+Zx4kTS5kzZpTb3buKESOG2rbvYGOuRbMmmrdgkY4ePWoKokfXzv+YvQAExtiu3bt1/dp1de/a2axKixYv1e9/LFfO7FmVNWsWNW3eUsGCBVX7tm305+o1OnbsuE6dOq2kSb/Tqj/XqF+fnoJGpkv3HooZI4aNV5fcAKT+/PrVufMXTAbjJ01WmZIltWz5cq1Zu17fJk6kCuXKmLwAtiGCh1D7tq3MIjBtxizlzZNLbdp11EMPD/Xt3VOBAgXU5r+26JtvosrTw1O9+vZT/LhxlTNHNuvvAYMGK3WqVCpZvKgWLV6iP1asUq6c2U22CeLFU9kypbV8xUqt+nO1cufMoVy5cmjCxMnaun2Hmv7SUFu3b9fceQtUu2Z1swBMnzFLFcqX1XffJtbc+Qus/VUqVrRxzm8tmzdT8h+SmVy5vn7DxvIfwL+aNf5Fq9eu05+rV6talcr64ftk6jdgkI0RxvGAQUP1+PEjnb9wwQBtoECBbK4OGjJcKKtYMWOqerXK2rBxk6ZMna6cObMrf96f7T0bN/+lAwcOaOeuPapYvpxGjhmj5o0bGWhq16GzKVTGaOFipRQ/fjwFDxZMZ8+dU9tWLbRj925t2rRZHdq10fbtO6z/6XOeA0BgPeLan3PnVo7sWa2N69ZvUM0aVbVnz17lzfuzZs+Zpx9TprC1g/kQPnx4Lf19mfYfOKhz588ra+bMWrpsmbp26mjjpmXrdvbfNq1aaPioMTp54qT1Y706tXXl6lUlTpRQU6fNUKmSxf8x55BJpQrlNHjocAF2Uib/QQcPHbF50axJI5PNs/4pY+CwfacutjFq2bzpW2updwYIMaJ989Yvc274/CRw/ORJhQ/33wGEx4+fKNWPP6pzt+4qXLCgWCj9+vOja1evK+/PuXX5yhXNmTtftWpUM2FNnjJNZUuXNCCQPm1aNWneQqNHDFPHzt1UtUpF/bF8pSpXLG/mf75D8U2bPlMFC+TT0WMnVLhgfpWvVFWjhg/R/v0HlDJlCnvujh07FTFSREWKGFE9ev2qGrbobFa+vHnsd3b5KKuJk6eoUYO6Gj9xsgoXKiB2elhAvk2cULPmzDOryPwFi+w9Q4eP0i8N61mdmcDDRozS998nM+UeOlQo7d6zV+vWrVe9urU1bcZMRY0cRfMWLrJFa+3adbbLnb9wsS2oKAeUPkAhY4Z0OnP2nKpVqWR1K1u+kgb276vZc+fZ7txljsfKcf36DSVLlkTduvdSgQL5zOpRpHBBsWNNmuQ72y2hmB88eKgjR4+pbp2aGjV6rOrVqaXdu/do7oKFatKooX5p0kyjRw5T3wGDVLFcWS1YtMgWSwpWkAqVqmryxHEmD8AFC+rNGzeVIUM6u2b8xEl2/YhRY6x/Ll68pECBA6l7j15q3KihgaFaNaorYMAAdv2ePfuMvi1hgvjq23+g8uX92QBCvwED1bxpE8WIHs0W6TKlShioYnFO8t23Cho0mNXNjx+/ChUyhNKlTaPFS5YqcOAgypQxvQGm23fuaN36jWrdopkpnqtXrpkibtSwvo0JQEPYsP+3LLksCIkSxFekSBFNSVEGDB6q3DmyK06c2BozboIqlCtr43f9xo1mYSpVopiOHT+hCBEiKFTIkAYwUNrZsmbRgYMHlStHdtWp19Dk1qVbDxs7KJ379x9o/YaNNuaRF/IE9GbOlFG/L1tuY+GvLduUJvVPVo+Ro8cqd64cNvbLly393Arx5+q1ih49moG74UMGmozpc56RM0d2G2OVK1fUiJGjVadWDVPMAFKsPEVsbA9QuzYtrU+zZsmsCxcuGFCrVrOOhgzsr+07durHlMnVo/evKla4kMnj117dtW3bDqVPn1bjJkxS5owZtHf//udK27XizV+4yNrv5nbXwkPH3QAAIABJREFUgHfGDOk1eux4xYwRXXfvudsm5ciRozpw6JAByKtXrur0mbPWThRu6XIVNX3KJPUfONjkPm7CRDX5paEp0J9/zm3KfuWfqw10AcYWLVli42v4yNGqUa2KDh48ZOCuXNnS+rXfAHVs18aABKABID5/wWJlz5pZQ4ePNHAUOVIkpUj+g1UfgDBsxGi1btnMlG2VihW0cfNmFS9WVJ06d1WNalXlfv++Nm3erIABAoocNqwjHPfMnD3HQBCWkzNnzypDunSaMGmyfmlYX1i3WOtqVK9i46ld65a2UUiXNrWmz5xt6w2f6WOvc85lferctYc6tm+jytVradig/ibPQgXz2zyhf/oPGqLqVSv/DWxyvbHF0auWcgDC56ez/9MaHT95SuHDhf3PLAghggdXooQJ1aZ9R+XNk8cGPhM02jdRFTZsWF24eEkrV61SuTKlTQ4zZs2xHTCTO2WK5Da52Vl06trDlOOGjRvN9McZe9duPVS0SGFTIJ6eHjpz5pyBDhaXsaOGa9/+A4bwKVgW2GGFCBHCduhYFrwCBHYn+fPntZ1g7pzZbTEtkC+v9uzbZ4sboGr8hEmq+DeSZ2dVqWoN9ejaSZcuX1bsWLFtkQe5Fy1SyBaHhw8eas269apauaI6delmu2IQPjvCtGlS6cTJkyL/xeIlv6tzx3ZWT3aJ7ASwKrjO0QEIE8aNNjA1c9YclSld0t7DLiVY0KDWpo6duyrvz3mMKjt27Fi2y2fhRIFwLUrx0JEjChY0iKJHj267ERaVTX9tMatCx85d1LdPL1NGLDpYV2irCyAAun6bOM6ABwv10aPHdPLUKVNEBhD+lo3riIEdIqVXn1/Vu2d3s07MW7BQpUuWsF0Ux1EhQwRX3LhxTNZYi7C0xI0T26w/bm5utsvEisLCiyUKMMGOC4CGLOlfdrltW7cwhYwCBSTccXPTqlVrbDG9eeuW7fSxLqEk9+zdp3DhwhpQdJWXAQR2srz34KFDdi5Lnz95+lTL/liuGzduGngBdAFmAHco9fUbNpiype/YEXI85JIbRwxYW65cuaZt27cbQJi/aIlKFitiABIrSdMWrU1JYo1yARX6hIUf0AUYRukBcAwgRPvGrEWjRwzV4qXLFCd2TC1YuNhACmMhUeJEWrh4qQoXyPccxE2bOVv58uQyy1izJr+od99+psgAVtmzZlH1mnU1sP+vZpliDqKYGBOu/jl1+oz1xbiJk5UpfToDZfnz5f3HOkYfYbEAILiOGGhHlCiR9cjzkVk+6IMBg4fYjvrK5SvWNwB9r1bIAYOGqGSJYpo0eYqNu0VLflf6tGlsDQEgsGsPEzqU7aKxYA0aOlzP1pwEpuiTJk1i48srQECu7PSZ10ECB9bho0f1XeLEihnz2TGI1yMGAEKFsmW0c/du659uPXupeZPGmjd/oSJECK/z5y/YGKtZvardC0BImya1rt+4qStXrij5999ryPARZi3Nni2rtm7bZuODeQwwYqwDfGfPnW/tLlywgMKHD2frpNc5x9jp02+AWjZrotr1GmpA394aN3GSWVpHj3kGFOgfLDyM9znzFtjm5W18l6i/AxD+U3X8+b3sYwMEFlV2JJh1WWAwCWMmBKlz5jpm/HiFCBZc6dOlVdSoUezsn10UOzAWNRZYDw9PmyAsFmPGT1DdWjU1asw421nNmDlbvv34Ua4c2WwhxPGLBT9UqJCmaDkuYDeQIX06jR4zzhQPi9Hdu/cMaYcLF0YpfvhB4SOEtx0011HYgTdv1lgjR41V1G+i6Mnjx8qaJYsGDx1mO8ifc+cyE33y5D+YUiqYP58mTv7NzOPU9949d5UuWUyXr1w1k+XVa9dMIbF7yJQxoynUu/fumSWCxaBJowZavPR3m+CYenEEzpEtq6ZMm6GQIUPoh2TJTNE/Aw0d1KBeXa1Zu043bt40oMQixwIUKFBgU7h/bdmqQ4cPm9kxT66cJreqlSrabpHvUJzsdHr17mtHLLPmzMUWrKvXrptc6QMWrDnz5ttOdunSZQYuWOywcNCnP/2Y0tq7d+9+eT56ZDsdlwPqsBEjDYxdunzFZHXt+g1zasaygMl0w4aNuv/goe26WbToXxa2cOHDmm8T1iJSzq7fsMnO5aNEjmwL/dr1Gwyc2aI6e7b1d9gwYU1G7OIBTSyKV69e0/0H9233hg9GsKDBbAeM6bZyxQpasvR3AxVHjx2zsTZw8DC1bN7E5MjOFUAHoAoXNowBTgoglWexS/zpxxR2lOTuft8WcQBn7pw5debsGRtvWDT2798vv/78mRWBPkFhueR26vRpA0cccdGHBw4eUrEihbR67Xo7wli2fIVS//Sjmrdqo++TJTNFihwps+fNV8Z0aQ1sAhKwVjGvtm3fYXI6ePiwrl+/rtu3bytblixmDQOI0DbGKTLMkimjFi5abJaaZctXKl2aVGrXsbP5lZC5FwXDWGWscLzBUQVjAvP6wYOHdfvObZM9gPDixYsmqwWLlihLpgwaNGSY9TFKvG3rllZnQANWoty5clq/UE/akSdnDo0dP0HhwoVXujSpzSoGgL5+44b5gWCR8LqGYDHIn+9nazuOnhyroYwBYIC+0KFDG1jAepM9a1ZNnznLjp2eWWrum1I/eOiwgXjeN3f+QltXFi1aopChQipG9Ohyd7+n2LFjWx0pACXGK9aU4aNGq1rlypo2fYbNHz9+/Zr1sH3Hzqpdq4YOHDioO3fcVCD/M4C0YuUqAyW3b98xoJEwQQKz7LAG3b51246PkPXyFWyKStmaAihmjv3af6ABGYrXOecaO5N+m6JKFcqrR68+BpawsgLskIP1T6DAtlYd4Sjt1i2zvLyts+5HAQhPHj+SfPsxj3WnfN4S+NgA4VO1ngWCiZ0xffr/tAoNf2mq3r26m6nTKY4E3kcCWFWiRolsAAll0al925dGHL3Pe7gX4MNu13WM9L7PQ6kD0jiiccrbSQDZAWIAFFg1PmX5wADhqbasWaY1e07L35N7yl6oohJHe4n3r8ctXb7rSxFCh5Dbjcu64RlY0SME+5SysHc/fuSpTUeuK10i7wf2ntVzFObbnIoS9v8hY0+fPtFf69fLb/Dw+iFJ/P8EGD0m9ObxUwXw61vuHk8UNMCbhUi9KOAvFSCwm8aB632iBd52MILycfpix+0URwLvKwGsafgPYAnAj4Qd68cqmLMPHzmibxMn/livcJ77hhLAcRa/jmxZM7/hHR/vsg8KEM7vWq2LIZMpRYyQVuOLuxbKT/SsCh/Km9hx97M6cMm3EsWKoksn9+vE/TBKkzC89mzfIgWLqCTxo+vUqbOKET2ydm3brWQpk2vv1t1KlDKpUIUP3e9o247dip7we0UI+Eh/7dijBEl+UAi/j3TuhrvOnz6h71OlVRC/z6wYp86cU4xoUXVk/y7FS5xMJ/Zv0TcJUuro/p3yEzSc4sd65nRpAOHQRfm9fUbxvvtBoYMH1s2r53Xg2HmlSZVSe9fMNYCgh7d0+8p5+QkdXfGjh5en5yNdP75DNwPGUMIYET5ej2FueuCuZguOK1usEAoSNogmrb2qEeUTvNM7v1SA8E7CcG5yJOBIwJGAI4HnEvigAGHFspVKkzOr/g8H7uryZXdz3vhXcT+rwWMXKFDggHp4/66SZS6hULd3Kkz81PLjcU0nr0m3L59Wim/jaPH63SpV6GdNXrJJ5fJyRvxIi+ctVrrMmeQvYGDJ456e+var5eu2Kvv30TVn4wkVzJZCE4ZMVa0WtQxQLF66XFnTJtGEuWtUunQhjRg5U5kT+FfI+Jn08NIhPQ2fyKwdAIRZK7YpT9pvtWbDFmX4Ia7WHriq9EmiafaGo0oR7JIBhK1rlipT9py6cHSHoifPqCCP7mnp6q12Bseu/mOWQTN3qWi+JIoU0Lf02EM1fjuhRkn86HbIcFq777Ia5oqjk1fvafvesyqaJaGaLj2mRumiKXqo/xPWuOrnAISP2VPOsx0JOBJwJOBzJfBBAcKdC0e0+cQD5UiXhH2ulk4doXQFqihYYG9Y37yxIDw8vFgZClSWH99PtXbzHgXyvKnHgYMqZrRvdNbtqQL7D6BEUUNLj25q4e97lC9vRj157Klpc5bqh6QJtH3/cRVME19rjrkrT9pEGtutl8q3bCGMCPs3r9L5BwEVK1Z07T1xTUFDhtH9nXMV8fvMCuj7kSJEjaMIoYP+44hh8bIVShY7vLYcd1PcKMHl6TeY/FzaYQBh/46NypEju65dOKYHoePo6fFNChkrhYIFenOGu3cdNn2m7VCFwt8rnH9fzwFChEeXlDpVIj18+ERxQvnRsVuecrtySyWzJNDKsw+VK6b3BCwOQHjXXnDucyTgSMCRwJctgQ8KEBDVsYN7dOriDVPcQXRf94LHVo6fvDnX8gYgJAh+W/vO3JIfj1uKEi+5gnle0YKNR1ShWC4N7j9Qles0UNBAzzyK161YIn/BwihClJgWFpcscTwdPHVRhdMl9BYgeNw6q7FzN6hmxaIaNXSISlavI/ez+7X39G0FDxJQCb5LruCB/PwLIOTM8KOWLF+rSJEiKHTkWLp3dI0BhE0r5ipG3AS6evG8cuUtoF1rFihG8hwKFfTfu/QPPYSuX76uSXtuKFqoQEoeK6S6LTqnlqkDa8N1X4oUIpA87rrpob8Aunzuqirl+k5/nvdUjujP5PZicQDCh+4d53mOBBwJOBL4MiTwwQHCi2LZtWqWgifMqliRQn0ZEvu7FSuWr1S27Fl9fJs+Z4Aw+bepKl2qhLehObt27zEmPcIBYU18sdx/8MC+5xllvVD9fqgOw6kLYhfCofz79/fK8CGYB4lTJ4QrW5bMIm6c8LsXC46VECK5CFrep67EU7tCNl/2HFdeBDzY3e7eU0TvjgLfpxKvuZfQRmLdv0/24am3aT+hs2+Sy4FwU8ICo0eL9hFb+/9Hr9uwUd8mSqhQof67NXHzlq06f/68hfl9zMJYIuQS0iTCXt8n5wLj06j8nz61uQaT5ocscBcQ4ki4JCGgq1avUdbMmf7xigsXLuq2m5se3L9v4bOvyiMDaRYhsdt37HrOIvm6+i5aslR5cuWSb98vj/jD+ZkwWLgm3jZM8XXvf93vHx0gvK4CPvV34mLTpk3jU6v/vN4fEyAQReDHtx/59evHiGSIBee/xL2TmwGFCLEJLGRMPP9/JyAiZvjhwwdG+AKNLJwFDx7ctwXV5cmNZzeT8RkLXEF7nqvw3OUr/7TJ37pNe7Vq2cwUBVzwLAYQ5xBT7yKeIUYYj3H/AQIYmQxxzMTVU08IfXz78W3kQywAJDxC4RNrDTc6vAHE+0OOwztoH3VB4YQJE8beRZ0D+Pdv5FCQ4ezcufs5YyMEQMTS8zwWo9179ypThvQKGTKkxbhHjhzJYqghBCKnADkMggcPbu9i8aWuLC7wLsBJ4GoTseUQUdEGOCEgkrrrdtdivakLiw4e8smTfy+/fvwaMAEguH6n/rBeQtLiUrKEXcF3AA8BioB3BgsezOpBjDkMjaFChjI66pAhQhjDI6QxLPTI/kVlDbHRkt9/Nyps12937tyx9kFExHe858HDhyZLTw8PPXr02PqB/gCYueRN39+8edM4KODBQFa0G49wngXTHiQ90OeiwBg/PBdiqYcPPSxOHoIa+tuPH98WT+8q8BTwburA+KF+3B88eAjduHHdZAL5FO2kbjAj8h7kEzZcWPue+/kef6xJU6Ya7W7oUCEtFJe6uRI3MQ4JD/Tj14+xb167ds3ImJA5QObxo8fyfORp/Ux/PvPv8qVr16/ZHOIeOAR4J3XiO+rU+9f+xpbJ94TRAVgZO3wOE4a2+rK2Ie+gwYLq3t17NgdcLJ3I+Sn/e/LU5E5bGBvUl1h+xjiAHMKtKpUqqnW7DkZYxfynP3gn9eJ5jI1n4/5Zwiqe5defl7p7eNocgriMMQ0bJOMrWLBgxmNBgbuCOjFGaAtjzyVDvud9/vz7M/4S5Mf4o88YN4wH5ALdNxwKcH2ULlnc6sGzXHOS9sM5AJFVkiTf2pqBfJBbqNChrC/4zDNZn+DsgA2V5/MdcuEaGwMeHvY9GxdXv9AO+qVi+bLGIkrf0U64J2gD45f2wfkAvwL8ENSbcYxcKNSV8Ut76Q/+y3ilP3je+xYHILyvBH34/R8TIKDgyE9QplRJzZu/QAcPH1Gt6tW0YdNmI5pp2LiZJo4dZWQi5DoAIbOgwwLYu0c3lShVTuPHjtTU6TONbrlVuw6Wc4EC5SpsizDOMcm97lRY5Feu+lPFihZWleq1LLERxEzkDpg7b74qGld/X2Nso0B7S3IgiH9gWatbp5aq16yt0iVLmpWCWG4YHiGiKVq4oEqVraBxo0cYjTFESHly5bAFAaVbu24DDej/q+rWa6T+fXur/6DBRkqDxYDcCS8CBJQ/ygRKZ4ABAAHiIeh2IUTq0a2L2GXA4kgbaS/MkpChpE6dSnPnzjeWtqqVK9ji4FrQ69RvpD49uxmDWqEC+Z7nw4C9DsImCkRSEOCw4JD/omCB/Aa4oNOFrChu3Li2qMaLG8cWrIWLF6tUyRLG8cAiSb25/vtkSbRi1WojPWrUuJkxBY4dN0E/58ltZE5p0qQ2amtC9bwWWAAhXmIhdVkR6KcqlSoY9TCWFBgtK1WC2Gip5TVAoRlb3Njxatq4kcmNnSpt4F7Y4pATDIQd2rY2VsDGDRuoTIVKmjtzmmrVbaDBA/oaXXCr5k1NSdSvW9sAwokTJ20MQjTEuwmRZVGHVAmSrD9WrFDEiBHtuxUrVqpr544G7u7eu6sNGzaZskRWEHcRMgjZEyRJKJFo0aMZCQ8L/YVLFw0gLFq02PJGMC7Ik0GB9hrLDwRfcHlAAoWi2HfgoBFupfrpR+sTQCqEQcdOnNCuXXtsjGFVg9p77rx5xufPbpM/xiUMhDA/5syTX/NmT9cdt7vasWOHUVMPGz7K2Bj37j+gn1Km0KgxY238uZgVqVeL1m2NaIv+JGFTjBjRTXmZFe+pjECsZvVqGjR0mJF+we5Hm6ChRiY7dj5jHhw3caKqV6ks+EL69umpX5o0N2ZNKJGhNAcgotyQeYiQz4iLAEGzZs9R1ChRDBgkSUKui9UWTvzo8WMbj5BkITNKg0ZN1KdXd6OI7tShrQHhfD/nMYIi2gXlOX1rZG21qmvOnHnGEsrYGNivj36bOt1IiyBjI9TQK9MldOqwriJXlD1jrVnzlurVo5uNWQi8SPrGWnP27FljniTPC4CTPB35fs5tz23dsrnVtUnzljYfT58+a0ANmnHWFuiyXblNuI41Ek4EAAJWN0CTax1kvkAqxdynrTWrV7Fwa+riIvl6VzXlAIR3ldwXct/HBAgsTFAFwyoWJXIkY1pDQcIiCK3wpCnT/gUQGOjsmlKn+smUDccD7DQwF48YBa/6MwpTAEL5smU0feZM41z3Wtjprly12gBCoybN1K9PL1NgsWJGt8UwXry4tutmp0Pp3K2H7a7Y7dSp39DeBQqvX6e2UbDC3w9tsXcA4crVa8qbJ7eCBn3Gi/HblGmmICJFjGC7cjLGJUyYwFuAgLJr1rK1ypYqaYlmYMpj8rNAkoXvm6jf6Oq1q7Ybhg2PxRErA0lyWFjTZ0inJN9+awvk1OkzrI4k+aHAVQ/LGosWCmbU6HHPTLRPn6pa1cp2zdJlf1hiHp6PkobBDU54FmQY/lgE6QdMq/Tl1m3bjX2vZYtmatu+oyUf2rJtu7HwAexg/MO03LBeHaNgRnnAyx8mdBjLAYFFx1UAIHkLFjHWQVgmly1eYO+DFhY+/n37DqhypfKa/Ns0s65EjBhBD+4/UObMGW0H1r5jF5UoXlRwkJDxkfohO0BH61bN7XcAAuyUMBSyEDMOatVrqD49uhpzHfWBCz9TxgwGEEhOBNUzRx8Ap7hx4pgiJrcGO7Zo0b4x6uHKVWto2JBBtlgzJlP9mFInT58xS0DWLJme7TLd3BQpImN+kVmlYPCkAAYSJIhvDIG/9h1gfcIut8bf1LztOnSyhEHIYv6ChSqQ/5nMYDFkl4wigwoaOmHoslHYS3//w8Y0wAX+/hvXnyUXat2qhcKadUAaOHioKSLoeidPGGsJlpImSWIZOgFJ5cuWsp0ruS0A17Qfem6ofF0AoU3LFqaosLRg4WCunjlz1hgHYZJsVL+e5R9p2rjhc/pfWPwAwQsXLTEF/sjTU9WqVTG5A3RdOTvIawKQZdzwbiirw4cLr1gxY9iuHhKnw4ePWvIyLEDIGMro02dOWwIor9YpAD/gv1Xb9pZ/488162xsA4JfBAh1a9ewuiDXGrXrGUCAMhw6+DFjxytt2tTPAQL01gCdDOnT2hghkRZMkvTNkIH9jN6ZjQZy46gCcEC9uO7HH1MqXNhwihcvjuU5IakbpVeffsZYSrZLlDpWmPTp0uj4iVNKnerH5/PFBRBepEp2yY9cD9SbOQATKrlRGA/01fuUdwMIV64pRnQnWdP7CP5zuZfUrJimvMsZ/yGyObLg9+7b37I5kvAoTuzYtkMrUfQZ7Sy5E9gdkE2O3RsLK4tkZShEe/fRiKFDbFeVLl0ao58l85pXgAC9MQDE/Z67LZJMIADF0BGjVKFsaXXr2fs5QIgbJ5bmzluo1Kl/1GPPx0qT5lm6YgACYIAjECwIKAzMoTGjRzczNDuAapUr2eIF6OjQuatmTfvNLAhkCmRhZcFnUWcH1KptB/X/tZftZNq2aaVTp055CxBoK8mYyLC3Hu74woVsgidIEM9oh3v37GYWCRY7qJDZWZJRENMtlKy/TZ1mlhbqAagAFLVo9iyjYss27Uwumzf/ZaAKyl4AEaDE5ePALgyzObsprBDIZ8y48UqfLp3+WL7CkgPFjBnTgAkKnR0qQILsf4OHjVDpUsUtpTA015jKSWJFDgYWYWTFrhS6XSizkS2JkTJmyGCma4AGFLQoueXLVxplNWZlFD0WpAzp09sC2aV7T8tlESRQYNv5oYDZjWElwsIyoF8f2yVhHma3znFQ+LDhNHrc+H8ABDIvklvCBRDoQxQU+QroewACoJDjKXaqLKyYtMlG2a//INtJAlQYz2QHnD1nru3SUdD0O8dp/I5l4N69u2b6jfg3QMCygNyxMpGUaP/BQ3YdVjWOeDweeDxPcjVn7jw7d48ZPYaZyJEZ8qLNHGlBq3zIAEJoy1/C+2k7zwfYATh279pj9wJYvv32mYO4CyBUqFJdk8aNEamb8YkBvB4+fEQ/585p7Q0SJKhW/vmnWWn+BRBatdCKFf8HCEeOHtfk335Tw/r1TNF379JZPXv3MWWL6Zz8AEbze/u2zp+7YEcNyAoAjmULa5xXgECGylmz5ypc+HBGoQzAPH78hNE7QyMcP148nTh5yiwSgF5M60NHjFT3zp3sPa5x3aVbTwMSLwIEMk5iJSQvBFYjLAhkVSVJVZVK5dW+U1cDCCShyvh3TgnmnFcLQr+Bg5QlUybrS4ABc5f/kgyOuVOkcCGzEHBsQHZHsqly9MXxB8epABWvAIHsqljRzp47b5lfAREtW7exdcPrEYELIGCxAKjTDsqLAAE6e/K7MFdIkuayKL6rvnkngHDb7a58cS7m5XzyXSvg3PfpJMAZKRz5YcOE8tb55UMABHbzDFbMgS5nG3aALGagcDKasUtgILvOEDGhcvbHOTwKhM+kNU3y3XfPdwokJiJr3l03NzPzE8mCJcHlxMNCwvkyCpscBuySObfFcsDZN8cGrgQ9cO9j4Xh2Xuuhffv3W14IFOPeffvNeY1dDLvJ6zeum0KCe55ns6iSnQ4GOte7SdgCdz5mTzjXMcejIHFOJA0sPhXPzn1lion0vFgggv19xsnCzjNIFkNdSTSDgkYmJG1iB8V5NCZnzI48gyyOmB1dOyn8Ki5eumxzFGXC8cMuZB0r1nN/DZQK7cNCwO/Ih50MckFRsmjxTORC35ERj9wCLNBYVTgvhacf/wj6EuXCgmJtP3fub+Bxw0yrvINjCgAJfhQkXsIqQOFesktyZEHh2fDnsxjin4KSRFlwDYqB+rA7wiKFkqFQPxzZaAdKEuCLXwhAj/Nnjg8YB+ReABBxvMJnZEu/AQTxL8GyxbGB63ueTf+hgFh4UXbQH7PooyRwHqMddsT19KmNWdrDH6ANXw6O1PBToY+w8DCOuM41FukjF+8/72P3jIwYY4x72h0/XlwbE7wLAEw/BAwQwLIEIhMUKTIhjTEKH1CSKFHC5+OBe/Fn4eiDdlCoB4CPJFL4KdAG/hg7+PuQj4L5Rzl58pRZUPApYfz5ki/rf2igkQHjmqMH5M185diBLKb0H33CXGT8kPIZywxWI/qFnAj0teszFMMoxgABA9iZP6mSySdAnbiO/kG2WGfINcJYBKADyOgPCvOZpFXsqKk/fcbYZm5QB/qWMXT+wkW7DhmTJI35zHxF/own+gqZAhLx90B+yIk6ImfaybxkPWCNoA+ChwhucuG9gDBykTAeuRYfK+rBdViqKMwzxt6TJ09tvNI2jhdatWj2D8XA+gVQpK53bt+xYxaKS37IGAsTfWPrW8QIlvzufcs7AQQa4/7ggSkXPX3yvnVw7v8kEvBlg4kMev78ek/T/L4AgcFPIiLSFL/K+/eTNN8Hv5TFlJ06vhcAlK+tsJDjl0L2RJTD2xYWfczB/xUlNjtXdokfkyr5bWXgXO+9BAAAAFQSyv3XBTDFcQfJugBbn0N5J4DwOVTcqcPHl8D7AoSPX0PnDY4EHAk4EnAk8LEk4ACEjyXZL+C5DkD4AjrRaYIjAUcCjgTeUQIOQHhHwX0NtzkA4WvoZaeNjgQcCTgS8F4CDkBwRsZLJeAABGdwOBJwJOBI4OuVgAMQvt6+f23LP2eAgDc6IZNvQqX72oa+5wV4HuP45mIxfM/HfdDbiRcnBM8VMuUKuXuRQAXvduT5PtS471vY6yWhAAAgAElEQVRxojTw5n8x1vtlzyVKhGiY93X+g33x0eNHChzI+4Rm79Mu+CSo45u0CU93HIfxWH/y5LGFxXk3vl2RJu9TL+7Fu58Cs+GblE8555hjhHO6+EbepL5er6GPKbBAugqRCjglvioUkPlCuwmxfJ9CRAjRM5/DevU27XAAwttI6yu79r8CCDCSnTl9xngMlv2xQrlyZn+tpNt17Kx2rVt+0ugIwqwI26OcO3fOiII+t0IdieOOGDG8hV4RlkX0EWGDXkvzlq3Vvl2bj6Ik31QmLvIrr7TZr7oXVshCBfNbuNzLCgszhDeEjb0Iigh5I4QOIp87d90UK0aMN63qG18HoyTkRbv37FPGDKSq976grCADyp0zp9au32BU4/nz5jWa8hfL9JmzjKTqfcvmLVvsEal+/D8hz4vPpF4QRcEs+CnmHGF9hBASOkiYMFwp71KOHT9h4DdmjOjPb+eZhDS6WAm9ey7AH4r0Xt27vstrn98DA2ONalWMxtsnFQcg+KTe+o/r+r4AgTj7GnXqPYvdDxzYYnyJ4Yb4B8IfSD2I4ydm/a8tW40EBza7kiWKG7EQZDTwD1StXEkdO3ezydW5Y3uTQqs27RQpUiQLSYI86dSZs5o6dbrF5JPgCSIhuAkgL+nWuaMgoClerKgRyrTr2MViko2P3s1Nfn37UbOmv2jm7Lnau3efseWFCBnCiGmI/y5TuqS2bt2uqlUqGg1ytGhRLeYaOl9feqoSJYpbIhxi3olLP3PmjBInTmxx2vVq17KY7qHDRthOF1KZUaPH6NadO6pdo5pxOSCL775LbHwFMDFCTrRu/Xojx4HhcfqsOSpTsriRC+XL+7O1n/fAlgidNbHgxH6j9PPkzmUAwEV69IyE5YImTppkcfXIAK7/S5cuGTEQ98E42LFzF6VLm9biwInRhmyme5eO9i6IX4gpL1KwgB56eOr4iePavXuv6tapaYAOhjlIrNKlSW1hhyhuQraQCYsiXAuFCuSXp+cjHTh4UH/9tcUocln86SP4GZr80kDTZ862+H3kCLkTu3rItYihh3xp0JBhxknQvm0r4y7gPey22XkT8gg7IGOLOHJofyEu4rftO3ZamKFXgIDia9qilXFdVK1SyZj+ILTKmDGDsUcOHjLclHT9enXsGsrwkaN04cIlazeMgfBXQLgDvS3x+enSpjZLEn1AXPpfW7bp8OHDSpXqRzVv2dZ4+hvWr2ux6/AyEPq7cdNfxmK4eu06+zd94R1A+LXfAF2+csXkADvmD99/b2Pw5MmT1p+QTsGLgfyg686VI7sxMXbq0E6b/toi93v3tGHzZvmWL6P5RRYAhD/+WGFzInvWrEYc1uvXfhZPT2gyO174LEqWKW8htQAqr3MOCw7hpsyV+nVqWXvgEJk9Z779u2XzJkbxDOdFowb1jNDr3PlzOnToiBJ/m0hHjxwz+Xl4ehhld8AAAdW8WWMNHT5CDerWsfUCgi/mBfMAlk6eBT00YItnu99/oLq1qts8opBXgbkPGKYNMIOyvhA6SA4N+CwY++RN6NOzu5FWkScB/gbmK2vJ7TtuFkYcOEhg1a1VU207/B8g9O03UAEDBTROkiaNGhqDad3aNY1PAhItGAwB4fC0QBN96NBhtW3TUlOmzZBf37516coVtWjaxO5/1fr2Hy/1L32dAxA+l574DOvxIQAC/OajRwxVw8ZN1adXD2NK+zlPLqODXbd+g/bs26c6NWsYQxoUo526dlfHdm1UpHgpNahfV+vWbbA8DJN+m6K2rVs+l1Lrtu3Vvm1rI1KB3Gj8hIkaNmSgKQSImdhtQIbkdsfNmBFZ9CDwYTGE951JDXgZMWSQWrRqY8/CHAwoYLcBex9kSZA6TZ8xy1jgMDPCtNirR1dTUHC2U2cSskApDClU0cKFtG//QTNl8n5YGGkrSofFjR0rCqVokYJGGOPiyl+6dJkdBUDOAkMidLsQnkDxu27DJm8BwtHjx5UsyXemwKGwrlm3gbp37vgPVkQUIxaEEydPqFiRwsZAiKxZqMuWLmXkMJv/2qpVf/5p7G3w0kMCQ3IgiJooEBXBUkjSG0h2yKNhfPm/LzPyn2xZMhm4YrGnoLjJHREggH9jzIPIxytAgFIWmmzqj/KFIAZGQNoLuIOwqE+/gbaQw1TH97AxQgFMO13F9R5Ip/g34CZHtqxq3a6j5aFwFRgjXwQI/DZ/4SJTpORxuHr9mhLGj2+yhLiIRFWQAAEQXe8cOWas5RFA0ZH8iqRXABZM0ABa2O2o44sAAQvC4KEjjN3PVWAxBETQ/1BFo0zaQrPsDUBA6SN//mBGhKQJimyUKgr8GRtmFON1QDmtX79R+w4cMBmjZFGYuXNm16Ahw/VLw/pG0oWpG4AAyEHhQjPMeGAMM+Y4xiCHCvOlcrUamjR+rF6ccyNGjrJcEuQFgRGVfoSOnNwQxYsXsU0BwB+W0OQ/fK/bt26bNQWiIUix6GfYP3kXuTiYH1AVu0jEkBV9x3fs9lHA33337d+MrLEM4EIqBsiFXpjjApgFAZfMY8vlMW26KpYvZ58DBAiombNmq2XzpmrfuYs6tWsrMmsCnqDd5jgOMJssaRKRDZRx2rF9O3Xo3OW5BQEa53p1a+vmjZsGPAECXgEC6xGAGdn+lDKlWacA16x15MIA/C5dtlwLFi565fr2uagDByB8Lj3xGdbjQwCE+r801bBB/Y1elKQsKBIWi9Vr16piubLq1KWbWQjYgUHByueO7duqdLlKGj1iiO1EWEQxP5Ocx1Vc5k4mNAABC0GPbp2NG568BadPn7HFMlu2LLZLgvYXpkYWPEzOcN8DXoYNHmAAoVrVKtqzd6/RqPbo1UelSha3HRTmbhIkFciXT526dLUdLxYFincAASW8d98BU46w3gEQyPFQsngxMxe7zqJR0iQwKl6siD2rV5++ZjGAHrV9x85mKSFfAIDhjxUrbQGcOOk3lS9Xxq53ca/zu6s9AITe3bta+2HeY4fFcY13AAHTKvSyMNSxk58xc7YdMSxcuNiUCoqaAtseSgge/Zmz5lj7AQj0Cwl1WLyHDR9pDI1QO7sAAqZ/ckRA/ALpS768eazOsMiRwMc7ymCAAEAiSNAgmjBpsilfEtaQywBAQn4BEtN4BQgoeDLrkdQJpUlOAOhxATivBQgLFpl8AAiuIwaABsyeocOEVuKECa2dLr8MFDKm9u07dxllMkcbrt8BDOT5SJrkW2XPltXqjgJhh+8dQCDrIfkpvvkmyt95Jyo8TzD1ogWBcYBpHYIs/gAIxYsWUdUatS1hE8ycKCrG2LoNG1S4QH6bRyT6wipDvgp+o1+RsWtco8QAjMiwZt36alivrgFbTPqudjFfKlWtrskTxj0/YnDNOY46unXuYPOT/nGdr3NP3wGDbBcPXTa0yVCSA0bpXwAC4ACQAEDA2gQQpHh9Dp9XAhAyZTSA7zpiGDdxshInTKCAAQMYaHfVlfZBn4y1YcHCxcqdK4fmL1xsbJsABHwNsHpA3cw8xKfBq6zv3nUzqvO58xbYJmDcxEkqW6rUvwBCwwb1dO3qNW3dvsOyebJ+0SY2J1gQGKMAIwCja55CXQ41N+RxUM1PnDTllevb56IOHIDwufTEZ1iP9wUITFhXJkZ24eQx2LZjpy28y5Yvt8QkmHpJeILySZXqJ6PlxbScMnlyLV6y1FLPsvCzk+A6V4FPHaXDwojpmuMClFvkyJEtmQqT0OPhQ0u6Alc6plkWMOoEmudow3W26rJqLFm6zOhM2bGRUAfHPpzG2CFBlYuCwprxPOX0nTuaP3+h8egb7eq9e0rxww86d/6CUeVCFYs1g3sBCuwY2Vmj8DFF586V08znFHYe7JBQslgyVqxaZTtLdkHsADF/snCz26NAB0xSK6wi/2/PVNsFkrGSemNSJeseChCFiQkevncUytZt2xQ1SlR7BlkWUeQoG4AV9XNlfHz85IlmzJylaNGiGbUvZvuYMWLacQ/WH5JFwWVfr07N5yZ8dl9kFUSxU3eofNmtszODa57FlCQ47BhREpiQcZJEWT15+izdMQmw6Cs4+JE3cmPRdbUfGfAeriHldp5cOW3Hj9LEYuWiveY63gftL9+Ro6FG1SomQ96zdNkyFcyfXx4eD42altS6HJXwbBQSGQhdqXWxHGAJoh/5/eSp0ypSqIApFeSWPn1aawuJh5J8m9iAC8m1sC5gZTh27MTzjJYk5woTKpQ5MM5bsMgAIHOAPiDHwaNHnpZMCTmze2b+YD0w+nA3N0sEBIUzitK3bz9mXeAIY96ChXYNTnnMD7IDAlCw1PAb2SEBRYAeQDkUzLQDC0PYsOEsD8O5s+fMyudi84MJknnKOPJuzgHoyJaIouZ4DaUeL248JfkusY0r5hJz4f6D++anQ2ZUxhIgmr7Bkrbsj+X2Dix3K0gWlT2b9REWKuYOAILjJKxypIFO9VNKY8ME6BYumP95em4DoBs26vvvkxo1+7btO5Ui+fcGTH359m1yjBo1sh2RkYfh6rUbz2XNkRLrCfOD4xQyzJI9k4RbWAYpHAcyhwA8rFUA53nzFypZ0u8UOlRou58ximxhY3TNU45CSQl989YdFfgb1Hm3vpHT5OEDUmmTxvvTl3cCCCxuTFqHPvfTd+Cb1IAFBuXIovCiFy3KkEXWu8KO2+njZ5JhIWOhaubFivEmsn+Ta+BrHzd+glk1PkQO9zd5J2eipUsW/8elLMYkhSpcsIAdqbxJIQ/F9u07n1s23uSej3GN56NH2rZtu535Yvb2rjDW2em7QNnHqMfn9EyUFFaeOrVq+jjv+Y8hR6xl+FhUrlhBU6dPV52aNZ/nJfkY7/sSnvlOAIGJxg7FKT5HAuxwUfYABK8gwQEIb9aHe/ftM3Pm+4bUefc2jkWw1rCb/K+K12RJrndevHjRdp7Ro0d742qQ4ZHkNx9DLm9cCUkAhN279zzP6Pc2936p12K9ITIIc75TnkkAKxXWKqwz7xoy+TXJ8p0AAgL6HGO+v6aOe9u2AhCwIGBmfRlAwDLEb65zcseC8LZSdq53JOBIwJHAlyMBByB8OX35ypa8DiBwrrp69Wo7B8ySJYuBCQcgfCWDw2mmIwFHAo4EvJGAAxC+kmHxOoDgnRgcgPCVDA6nmY4EHAk4EnAAwtc7BhyA8PX2vdNyRwKOBBwJvIsEHAvCu0jNB97zKoCAd693kQyEDDpRDD6ws50qOxJwJOBI4ANIAO4KdMeLBR9EX+7u7k9f9g7vnBSPHDlisaP8Bs3qhQsXLJY2RowYFh8LHeaLfOgfoA3OI95AAq8CCPv37zcikhdLmjRpHIDwBrJ1LnEk4EjAkcCXKAHYJV8WBv9WAAEntwYNGihr1qwqXLiwxowZY6GQO3fuVIECBbRp0yaVLl3auLyd8t9LwAEI/73MnTc6EnAk4EjAJ0vggwGElStXWogcQKB169YaO3asAQWsCqdPnzYLggMQPt1QcQDCp5O982ZHAo4EHAn4RAl8MIBQvXp1oyoFDAwcOFBz5szR5MmTlTx5cnXp0kXDhg1zAMInHCEOQPiEwnde7UjAkYAjAR8ogQ8CEEjOMWTIEFWrVk0HDhzQ+vXrFTJkSJUoUcJi6Sm//vqrAxA+4QBxAMInFL7zakcCjgQcCfhACXwQgEDWPFJtknYUX4SjR48aQCDhhCsTmuOk+GlHhwMQPq38nbc7EnAk4EjAp0nggwAEn9bor7G+DkD4GnvdabMjAUcCjgTeXQIOQHh32fmoOx2A4KO6y6msIwFHAo4EPrkEHIDwybvgv6mAAxD+Gzk7b3Ek4EjAkcCXIgEHIHwpPfmadjgAwWd2NM69hQoVEmm5CSEuWrSoJkyYoLNnz6pcuXLmFBw6dGhlypRJffr0UcOGDY3cavny5Vq6dKmyZ8+u33//XcGCBTM+EkhPpk2bZhwlVapU0eLFi1W3bl37fujQocqWLZtFHBGR1KhRI12/fl2TJk1SqFChlDp1arsXn6PgwYPbe69evap48eLZH++FXIuoJe4/ePCgZQbNmTOnkiZNqqlTpxpXCnWLGDGiZs6cKRycM2TIoOPHjxuxGo7NZBwdPXq0okePbu1xZRf1iT1IJBeh3j/++KP+/PNPBQwYUBUqVDDZ8BkiOT67+vb+/fv67bfflCxZMutnZFC/fn3t27dP8+bNMzlHjRpVixYtEtfGjh3b/sv85h5I6pA1940bN043b97UqVOnzFm8du3aYsE/fPiwihQpoilTpli9GGMhQoRQ1apV7Z2Eq5cvX97uW7JkieLGjWt15DcI8MqWLauECRP6xO5w6vyWEnAAwlsKzKde7gAEn9lzhA/j6Fu5cmWtWLHCFn4WexR58+bNTVmgXIgi6tatm4UYo1Chz+7Vq5fSp09vjsNk6ORZ/BdlULBgQVvsK1WqZIr62LFjdn+rVq1Mcf3888/6448/tGvXLnvOnj17TInzfefOnQ1EACB++eUXq9PcuXM1fvx4AwE1a9a0f1MXgMv3339vdUApTZw4Uf369VOTJk3sXf379zdA0LRpU9WoUUOjRo1Svnz5TCGyOKGYcHb2qQUAt3DhQgMCyB5Hbvrhhx9+MLkgH0LDa9WqpdmzZ1tfbN261WQFCARI0V8Qz6HICR8HfKGgZ8yYYWMAufEbIJBxsHHjRuOh6d69u9q3b6+OHTuqXr16VgcAGdFmgwcPVt++fe3eNm3aaPjw4TbOAJ3NmjUz4Ei/xowZ04AB182fP9/6jfFHnznly5fAOwEEdjPsQJziMyRACmcAAjs8JjY7BFehLx2q5c+3H1Ec3377re3mUC70H0qdf1esWNF2kFCZ//XXX3JzczPFD915ggQJ1LNnT6VLl85SeOfJk8cUOgs+z0qVKpVSpkxpVgNAxrVr13Ty5EmzJmCJ4Jm8GwWE0j9x4oQpd3ahHTp0MEXOtdGiRbN3XLp0SfC2b9++3awK7E4HDBigzJkz286WOrCjDRo0qP3Oc2hH2rRplT9/flNmjFEUJnUEcKDQsJ745N0qlgIAAko9R44cihIliooVK2bggP5CdvQvVhp2/i5iOaw9KHnyobRo0cJAGv3Jjh7ggFUGa07Lli1NjgAOZLd27VrrT8DcjRs3zJrTrl07s8Rg8aEfAASMET4DNLkfUFayZEmzKmGFoI70x5UrV+x9jB3AIm0BrP7000+f76RxavbBJPBOAAEUiqmMnYpXZfPBauU86INJgAWBEFTMkPSXAxA+mGj/kwehpNldo1zJY5IxY0atXr3alMm2bdtsd4mSQTn36NFDI0eOtO+Y2K4dPIo/fvz4plBQLJjyuQdljVWCXS7HB5s3bzbFAI8JlgF2igAEfuMalBrK3itA4HmAFBQhCp1wZnbBKHivAAFhYdUA1MC0CjhhJ42yIUcLO1pAC0caAAKYWdnB8ocS86llw4YNWrVqlQEDLCFYUtasWWMgiP5EDqylWBE4jkAeHCUA6AByyIvrsADw3bp16+wYhjByrwABSwvv4PgGkAiAc3d3N1DhFSAgR6xB9CtWII6KAHoc/TBG+HeuXLlsreDYifWD8ZM7d247WgIAYtWAFdcpX74E3gkgMMhZXBxw4DMGCBOd3YpjQfAZ/eW1lihrlDKL/cWLF223iSLnM8qFYwIUDz4CmJZR/IBAdqLwkXB+zJkz5mNYTT08PGwnyFhIlCiRJeliHvOMQ4cOWa4UFDkAhALw4AiDHTDfATZ37NhhRxe8D4XOu7kPqyKWDerMbpZjAnbAfOcqHF8ABNilosx4Hjte6kF9ABoABpQYawzt8e/fv8/ruL9rjKyQEZYW+gTFC+CiL+kfwAHWHtp47tw58zFAbsiTjRj9R+H63bt3284fAIWyxqrD2AAw8hm50QeADwqgjj4HSH733XfPE+XxXPoUfxHWBnxUGB+MJ9c9jBmAJv8FRAAOGXfUl+u8S9bnYzvJqfhLJfBOAIGnOQPEZ40qxwfBZ/WXU1tHAo4EHAl8agk4AOFT98B/9H4HIPxHgnZe40jAkYAjgS9EAg5A+EI68nXNcADC6yTk/O5IwJGAIwFHAl4l4ACEr2Q8OADh8+toIkhwHsVngCM712d8AlxJzpigFM6WcRjD94DC71zHZ753fXZdz/N4Ls/nua7fXZ85S+bc+cXP+ATgY4RjHH4K+AZwTs0ZOefn+DBwhv3iZ67lHoqrDq42uOrsinxy1dlVx5fV+cU2vFgn12dXnakf9XrxM/Wl3q46utpA+5ED7aOdrs+0n2e82C+0zVWnF9vgkpNLrq7Prjq+TG6uOrvq6PrsqsOLdXS14cWx8uJYco0V11jyOna8jiWvY80lt5f1rasNrjq8WMeXyc3VhtfV2TV2qJPrCPtlY+dl4/3FfnG1ydUvn98q8HnXyAEIn3f/fLDaOQDhg4nygz2I8DE80nE8xKMch0NCzXDaI8adkjVrVlNsCxYsMMWbN29e+wwJEgs9IYJ8D3EOCzGhdCzkhBkSqsjziFpwXU9IG45ngwYNMgc212eIiXAS7NSpkzmtEanAs/B2x3Oe/xJ6R0z8iBEjjLyHZxM1AedB4cKFLUYeRYfHOws1sfQoG7zvUbbwKqAAixcvbg55s2bNssgHyJyoM8/GKY+Y+71795pXf6xYsYwLAYc+6ubif6BOxP7j8EcoH+F/hOjxR8gk4XiEUkLqM336dIuo4F6eQUgh8ua9cATgmU+UQIoUKSzyA0dKIi2QH3J09RP9QVtxJKTtRGwQAkqkBddzH/fzHJ7Hc3k+74FngDBR12euIwqB+lFP6ku9XW2gv+CbwKETvgIcP+EncNUZeSAX5IOccGwkKgT5IUfkSf/hXIqckTdypz+WLVtm/UG/8Jl+osBLgcNj48aNjYeBttK/tJX+pt95NuPA67hw1Ynn0j7GEeOJccb4Ypwx3lyfcT6lvxiXPNslZ+pMVAzjGHkwrhnfjHPkwbgnHBOHTOYDn5kfFOYL88Y13vmdSI+uXbta+4iSIRTUKW8ngc8OIIAyQd9edx+uf79d055dzWBiQFJ4NpOdCe1d4Xc8g+PEifMur/qs73EAwufXPZcvX7aFFiZBwtmINCFEEK9xFnOXQmIxJ6wM5QvLHp9RLCzuKDAW1jJlytj3LOCMYxgXWSB5Hs91XU/4IV71KAciDFyfWYiJZEDJEUNPFALzAKWOIiSaAG97IiDwiicOHs94/s13eNbDacC7UYTsJqkTiz0KzMXOx2cUNnVypYN31RnOAyIeWNyJvwd0EKsPORAx/XAqEFLpqhPKBK9+lBpETygA/gAPKCO87Ym8AGzAE4EyhazI1QbXZxQVCgt5IBfC+gizRH7IkbmDHCmEEKJ0UUhEeLjkTLgoYYmAI8INUUpEHrjqDPkRUQiuz0QEoNSTJElibIbUl3q72gAAIBwSpUfYIWGQRH246kwf0ndEkKDMGUsoVeSF3LCKIFfWTpQmdaXOjBFYEukP+oX+YGxQeD7vIboBJb9z504DOQBYgIqrrwmHJIrlxTrRB/QFoA8QAbcGIZtEZECw5foMSISQyTXeiZYgvJY6M3aoG2OH8c74dl1P3Rn/jHfmg2u8U3fmC/PGNd75HasBbaZvmWc+mU/jU61eHxUg0OEMMCYAyJIdBjsLJsrLYpsBByhxV3gPMcRM6ncpmNXYDXE/CJrJBtMYMd7eFcxR1BNGOa+F8C8WR59cHIDgk3vPqbsjAUcCjgT+ewl8VIBAczDtsDvCFAf6BV2CQCEQAdVDugFaxLwGcsS8BaInZhiQAEBgd7NlyxZj/IMoBhMfSJNdBeY8EDNxvTwb5M0uhvhgwAb0pewMiEcGKYOa+Yx5CrMZKBTlickRqlLMvJilMImBujH5YZYEUWP6BGBwbks9XWeu/323vf0bHYDw9jL72HcAoBnD7Hx80lj62HJxnu9I4ENJAB2ApQJrkE/O6fGh5PG2z/noAAHFnzhxYiPa4IwKxYyJizNB6Dsxo2FWxFzWtm1bU+qczaHg+ePsjnMnFlJMmihyzIY8B0ABiKDzMWlC3IIiJEEJ5lHMYtDGYm7CHAaYgPsdcxP1gj0MExwmTUxmmKQ49+MPQAJtKaYyLB6YQzF58Q5AC+d9mBJ9SnEAwufXU1jKMKvDgOiT2QI/P8k6NXIk8EwCHHHgo4IeYf13yttJ4KMDBJQr50IoXcz9MKRBHUsSEb7DuQoAwTU44QAQsB5gYSDpC44xAASOJgAD7OCxOKC8cVDxmhOC8yrABh6wWAywELwIEFxHDF4BAg4wnAVyFsbxAqxnWCVczGUugMDxA6CG80XOjR2A8HaDzbn6nxJwAIIzIhwJfFwJOADh/eT70QECO3vM/+zQceLBbI8yxpTP93iwYl3A8QgHH3bpWAu4D0sAiV2wJOAfwHEEu3cccXDyARxgmnU5dPEMrAuYbnEAcqW6xZsXKwHvwRkI5yaUPL+7wqJwSsKCgDkKZys+UzfAAk4xAA6cngAu+DJw5ICDkE8pjgXh8+spjsJwogXQvmj+vDdmjB6dP6+gZHOMGFH3583ToxMnFAz/mcePdadPHz19+NA++/LvX259++KFq+DNmkl+/cpt6FA9uXZNQevUkZ+QIZ9fH7RaNfmJFEn3cCQ8dUpBqlWT30iRdHf0aD2+cEGBCxaUvyRJ5D5njjz37VPgEiXkL3583V+0SJ779z97vy9fcuvVS08fPVKwOnXkO0wYuQ0apKd37ihYs2by5c+f7o4cqceXLilIxYryGy2a7o4YoceXL8v1/ufPL1ZM/hImlPvUqfI8elSB8ueXf+b72rV6sHq1AubJowApUsh92jR5HjmiYBwLhgz5+XWmU6PPUgLoE46EsRRjdXbK20ngowOEt6vOm12NHwHeviyuKHw8Yp3yagk4AOHzGyE40QI+XUm0vNbwZsOGenT4sEIOGSJ/sWLJrV8/eezcqTATJ0qPHnbyMPEAACAASURBVOl6mTJ66u6u0BMmyFfgwLpevrwBhzDTppmCvlm7th6fPatQw4fLd4QIuvH39SH795ff2LF1q3VrPdqzR88/N26sR0eOKGjjxgqYKZMBCo81axSsTRsF+Okn3R08WA/WrlWYyZOtmtdLlpQ8PRVqxAj5iRxZN6pXN0ASZsoU+QoYUDcbNNDjEycUomdP+UuUSDfr19fjkyefv8+tTx89XLNGwVu1kv/UqXWnUyd5bN2qoA0aKGC2bAYI3H/7TUFr11bA3Ll1u2NHeWzerNDjx8tPhAifX2c6NfosJQAIByR4N8c+ywp/ZpXykQABCwGhS6BCHBad8noJOADh9TL6H3tnAV3V0cTxCcHdraUUK97i7laKu7u7OxR3d3crboXi7u5OoaUUCsUlBAjJd34DN18I0thL3kt2z+GQ9969u3Nn9+78d3b2P4F9BSdrALdst3Gs0Gt5feKEuD99KuFy51aD7+HqqgDA6X2adffnz/XyUNZnCJQ8PCTU+yO9gAcPd3cJFTGiSKhQ4nn9+88eL1+Kx9u3nr9b12PcnUKH1vbwEHh+fvVKPN688az/o/ret4d8xAZ5th8hgoiz8/8/W+17r9+SB7Ilnvf1a/3nFC6cPr/btWviduuWhMuRQ2UyxWjAJxrAU8w2M1wSeJBN8Z0GHBIg+O4RzdVowAAE+xsHXwIIGHC2DPAO4NIP6QWwgMfC6COkjwTfPb8BCL7Tl/erDUDwn/4c5m4DEBymq1RQXPRsMcRes8asmKFvnjNHXJYu1S0Vs8XgWGPZSOu4GjAAwXH7zleSG4DgK3UF+cUGIHzYBQYgBPmQNAKEQA0YgBBCOt0ABPvraAjBGjVqJN27d9dTPl6L++PHGozICQGzxSDi8eKFsO0SKmZMjakwxWjAJxqAewfOHbhGOD1niu80YACC7/TlsFcbgGB/XWd4EOyvT4xEwUsDhgfBf/1pAIL/9OcwdxuAYH9dBdcHXgSS/3hPSPZ04EDlPYgxZYpG8of04rJypbhu2CDRhw+XULFjh3R1mOf3oQY4Cg+vDonI4LkxxXcaMADBd/py2KsNQLDPruPILvlAOBrotTxu317eEKS4apX/ghQ9PPT4Y5AVnisATmG8mDtXXJYtk5hz5vg/SNHdPcjUobr4nD6Cuq8+t3UTlPqip/yxpQTXCFwIn3rHgm4QOE7LBiA4Tl/5S1IDEPylPpvcDJsoMQg9evT4OAbhyRM91uffGAS8EM8nTbKJ/D6pFCbH0EmT+uTSL17jDs+Di4s4xYghTs7Ofq7P/ckTeTpsmMirV36uw883OjlJpCZNJMxnuFsAQK8PH/Zz9f650Sl6dInWs+dHxhgujKcjRojH/fv+qd7P94ZOk0YiN2zo5/uh97diEGDZNcV3GjAAwXf6ctirDUCwv64jBoGcH+QF+ShZk7Xq9+fq+83Zs/K4c+cge/joo0ZJmLRp/d9+AOnj7YMH8qhRIw14DPQSKpREHThQwmXK9Mmmn40bJ64bNwa6WLpIjx1bYs2bp6RWXgv8E4+aNVMa7qAoYbNnl2j9+vm5aWIQyM5Lkj+TrMn3ajQAwfc6c8g7DECwv277UrrnJ717i9vvv0vMWbP8tcUQXAACHAgv162TGOPG+SsGwQCET78HwRUgmHTP/pv3DEDwn/4c5m4DEBymq1TQgOJBCC4AIaB4EAxACFkAwbHeevuT1qYAgQyMJ0+e9HxqsiCyakqcOPF/auLOnTuCCzZ58uSavdFrgaKWQn0UMjBSb3QfZnnj2nv37kmCBAn+U45PXcD9a9eu1TTVKVOm1EuIliXQjAyTRM2Sshp5UqVKJf/8849mfiTzZFAVAxCCSvOfb5cx2LdvX41DIPmY10LmQs7+h2Xf1B9BWsEFIODiJhsk2xVkr/RrMQAhZAEEsu8uWrRI2rVrZ/L2+OGlsSlAIFPdxYsXBbIKUiyTbpMUznHixFHD7+zsLA8ePNB0nJax5xlIzUzkKamWycSVPXt2TRNN6uckSZLIqVOn9FEJOrl+/bqmyyValTpIKc2xMQz148eP1VgnTJjwg2NkN27ckGnTpuneFDJw1AwZuCdevHjy+++/f3QP9WBkSQG9b98+NfrsH3M/Zfz48ZIuXTopVKiQ7Ny5U78HIJFOGkMAEU6UKFE0zTUAKbDBggEIfng7bHxLYPAgBBeAEFBdYQBCyAIIhgfBf2+OTQGCJRrpmWvVqiVXr16VX375RcqWLSsHDx6UatWqCR0YK1YsNczZsmXTW2bOnKmrKoyydURlzpw5kiNHDvUWcKaVcvPmTfnqq6/kwIEDaqypM378+ApKaK9t27bSqlUrBRy9evXSoy4AiWHDhknhwoUlUaJECiLOnDkjnEmHaevChQuSNGlS2bZtm3Ts2FHThDKRk/QDbwCGHW8BwKVYsWIKerh3xYoVcvfuXWnRooUCCOrGo0B97IMBEHjWnDlzKlCgjcAsBiAEprZ91hYAknTlAMZo0aJ9cNOzsWPl7c2bEm3IEH/xIAQXgPBywwZ5tX27ROU99uZR9Jm2311lAELIAgjYEDzOzLeR32c69c14CenXBjpAwGOAR6BLly662l6/fr0SWJC2uWnTptofuIRq1qwpR48elb1790rx4sUlRYoUaqyHDx/uGfG9detW6dq1q67mMdiTJk3SrQYM8oABAzRyFRpbUn22bNlSjTtGHNrNfPny6T2Aju3bt+tvZcqUUWBBW/fv39e28HZg8HOTdtfJSUaMGKHy8DceAwqpp9lKwVPAM2GMAUMZMmRQ0LN8+XIFCJcuXZJDhw4paAnswWoAgn2+6gBW7xwISGpiED7sLxODYNvxG1yDFNHa594x22o0eNQepAChTZs2utpnJY5Rt5iuWOFXrFhRtyGWLFmixpw9ff7nMyt5ClsN9evX19U7hp4Ver169XTLge0Nzr96Bwg7duzQVTzehMGDB6unAg+CtQXSr18/BS9sEeAd4DoMO6s9Yg42btyo2wwWQMDD0bp1a805zrUrV67U2Aa2P6zYCQsgEIeAXHhI2rdvH6gjyACEQFW3jxoD2Hbq1EnHD6DZa3H76y8RV1cJnSyZiUF4v/L3ePhQnHn3woTxkX4/dZHxIIQsDwLbvbNmzVKukTRp0vh53ITUGwMFIBA7wEocEMCqHRf7n3/+qa5V9uRdXFx0z58YAApGl1gCjCnX8htuIoy0FZfAdRhkvmeLwlqRsx2Acec6Ah3ZgiDGgK0HrseDwHYGhe0FvBDJkiXT3/BWNG/eXNumDgsIgEDZzkB2vkMuCvS43gMeqR+gw7MAMCh4TaJGjerp6eB5Apv20wAE+3vFvxSD4PH2rTIgOr0fQ36V3sdbDNb5d1jz4BwgMBIOBuTgfz7zvVcmwPcyfkm2gOJB8NQHcvqDG8JXAIF2aA+d8I+/LX3w0JbO0Avf/1fxDw8C48BiWkQWa1xY7Vp947UfreBWrrf67TN9FqAeBEsG2rL6y6sM6MnN7b+0pb8HBA/CwIEDZerUqYYHwUca//CiQAEIfpAr0G4h1gCQAUBgmwNPRHAsBiDYX68SGHvkyBFd2QCgvZbHXbuK29WrEmvx4kDhQYg2aJC8/fdfefvXX+J+966E5T14/VpcDx6UcFmzCox6b06fllBx4kj4okXl9bFj4rp+vbg/evRFxQYUQHixcKG8XLVKYkydKs7vY5D80qO+AQjOX30lkVu0EA9XV3k+YYJEatxYno0YIRErV5bX585J2IwZVU+vtm1Tjob/LH4FCM7OEn3YMAHsOX/9tbYVqVkzeb1/v7w5c0ZCp0ghL1evlrC5c2vfvLlwQdyuXJFw+fNLqChRxHXXLolYvry8Pn5c3pw6pb97LwEFEMLmySNhs2UTvD0wQ0bt3fudPJcuqTcsfJEi4rpjh7xcs0ZP6fxX8S9AYJGI9xmPrk9Puf2XTCHp9xAPEEJKZxuA4Fg9/aRXL3G7dk1izp0bKAAh+ogR4rJ6tYIBjAX0uqxYo0HYBGj49195uX69eDx7JlH79pVngwaJx5s3/6nUgAIILkuWqFGJPmGCOHsDU/8phJcLfAUQvv5aIlSooHTXL6ZPl0j16wtJtCLWqKEBkxy7JGiS73xU/AEQonbqpBTREcqWFefEiSV08uTyYuZMgToaI/py2TIJly+fhPn+e3Hdtk3cLl+WsJkyiXP8+PJy40ahf1/Mm6fAAcBjE4Dg7CzRGBtjxohzokQKcGFBhOSKvCIeLi4SY8IEedS6tc88LgHgQfBRv5iLPqsBAxBCyOAwAMH+Opojv+yPli5d2pNPI6Cl9OkWA4Ycg/dy5UqJWLu2PBs5Ut3DrACfdOsmEUqVemcoZ84MEoAQUHrxFUBIlEiidusmrps3C6coovboIU8HD5ZINWuKy4YN4sHWYWAChOHD3wGERIkkbIYM8nLtWnlz/ryEyZLlHUDIm1fCFSggr/bvl1c7dnwIEMaPl1dbtojr7t3iQZ4PbyVAPAihQ0u0gQPl2bBhErlZMyEDJx6YV/v26T9AZmADBOLLtmzZIlWqVNFtZ1N8pwEDEHynL4e92gAE++u6L8YgsMpzdxeniBH9JbhPAUK0AQPk+cSJChLC5swp4QsXVoCA6zpMmjRqlFgFuq5bJ1G6d5fnI0cGqgdBvRVv3ohThAiBFoPAFgMuezJJUiK3bv0uJsTZWZ6NHq39E6VzZ9128FHxhwcBAIdHCZCG6z5Kmzby+uRJTe4UsWpVpeV++88/Ei53br0OmfEmOMeLJ65btwr34+p/c+KEbjXYBCCISLjChSVcrlzqfXqxYIFEad5c3P78U17T7rFj6snQ3CA+idkIAA+C4UHw0cg0HgT/qcnx7zYAwf76kOBcjr1yXNbi9rCkfNyu3bt0z6tXB8oWgwaxeU0LbQUCWsFvCOY1YZIPU0gH1BaDpnteulS3XDB6fi2+8SBoG1/Sy6d+/5JgfgUIVjtW3d775FNBm977yus1n+i7APEgWPJ9auxY48e7Pv+jI/0bg0CAOqfQMmbMqGy2pvhOA8aD4Dt9OezVBiA4VtcZHoQP+8vwINh2/AYoQAhAUf0LEAJQlBBZlQEIIaTbDUCwv44mBmH69OnKLGpxe1hSEnzGUTBlDfTHsT6fbjHYSjsB5UEgwI0UzaFYBfojN4WvPQgBqRj/eBACUo5P1BVcAcLp06dl06ZNUr16dROD4IcxZACCH5TmiLcYgGB/vfbFGATOjePh9ocx5P7gAhDY3lBGPH/qwwCET78HwRUgmBgE/817BiD4T38Oc7cBCPbXVfQJeUpg8YQ11Gt58vPPGngWc/bswIlBsJF6AsqDoMcc162T6OPGBdoxxwBXifEg+Fql/t1iIBcObIp46bwmBPS1ICH0BgMQQkjHG4DgWB39uFOnd0RJS5cagCAiL+bP1yOYMWbMCDSipAAfMQYg+Fql/gUIvm7Q3PCBBgxACCEDwgAE++tosoLC5Jk1a1alBLdFCTZbDAGkHLPFELK2GKDNJ2cPyfa8s5UG0JAK1tUYgBCsu/f/D2cAgv119JdiEAJKWgMQPtSkAQghCyCYGAT/zSQGIPhPfw5ztwEI9tdV9AnZSYsUKaIJw7yWp0OHyts//tA9d6dw4fwsfHABCNAsu27aJOSMgCzIr8UAhJAFEMgWvGfPHmUrJUmeKb7TgM0BwsmTJ+Xo0aOSOnVqyZs3r2Zx3Lx5s2Y3LFeunGY1JEvjb7/9JuXLl1fpoZ8lS2KePHl8nKITVxJ1UC8BKdRJGmjSMlMvhBkkxiEYDIIaEjSRNZLAlTJlymi7fKbthg0bavIm0Oe9e/ckRYoUkj9/fq0Pyk5HLAYgOFavGR6ED/vL8CDYdvwG11MMttVa8K/d5gBh0qRJ0qJFC02V/PTpU1mwYIG0a9dOnj17pga4Tp06arivXr0qNWrUUIO+fv16KVmypMycOVMaN26shnvfvn2SL18+BRiAisuXL0uYMGEkZ86c2ksw0pH2OWbMmLJ8+XKNDOfvaNGi6e9Ei9eqVUtTTnM//+PixfhbhVTNoM3ChQvrvYsXL1aZOEdbsGBB6dChg4wfP17bouTKlUvldYRiAIL99RIvH+MtQ4YMkiBBgg8EfHvrlni8eiWhkyTx17n/N9euaSbCoCpR2raV0EmT+rt59wcPxP3xY3H+5htxChPGz/XBL/GURFOvXvm5Dj/f6OQkkZs3lzApU36yihdLlsjrgwf9XL1/bgwVPbom5vJMYf2+MrJ4PhsyRN7ev++f6v18b5i0aSVykyZ+vp85/ty5c5ItWza1D6b4TgM2BwgQwSROnFhzcd+4cUMDRfhMGTRokHTr1k2WLVumxpZVPcEkM2bM0A4l0Ubt2rX12mHDhimwmDx5snoj4sWLpyk8WelbAAHQgfEnjS6eAkBFhAgRpFixYrJhwwYdIMjB/58CCFzDtWvXrpVKlSrJtGnTNP0zA6xq1arStm1bad26tTx48ECyZ88uoa2c7L7TeZBcbQBCkKj9i41+KQbh7e3b4vH6tYQmwYw/z/7b35P7XiLSSmPcSXes+RBMMRrwgQZMDIIPlPSFS2wOEGgbghOMLVsGGGaMtGX0GzRoIE2bNpXIkSPranzu3LlqzEuVKvWB2I8fP1YPBLzaGPHDhw/rVkVvUK8XDwLbGRj3v//++wMPAtewbTF69Gjp3LnzRwABuapVq6YeBwAAXojVq1erB8G6t02bNoJH5Pjx47Jx40bp3r27ODs7+68HAuluAxACSdG+aIbtqz59+kijRo0kc+bMH9wZUFsMvhDHri8NqC0Gu35II1yAa4BF4qJFi3RxmfIznpsAbzQYVWhzgICbPmLEiPLPP/9IkyZN1BOQJk0auXbtmgZnnT9/XgNIokSJooY3bdq0evTLO0Bgm6F9+/bSsWNHASzwDxpNVvReAQIeCtosXry41kfbeAEw6HgT2MrAa+Hdg3Ds2DENYuEfsjJ54znwDhCQAfBx4sQJadmypYQNG9YhhoMBCA7RTZ5CGoDwYX8ZgOBY49dIGzw0YHOAwKqf+AMyabEdgKF/+PChbgXgNSBgECNO4Te8DVzP794LoIAVPtfBYx8pUiQ1+pTXr19r/bj9OV/O/VxDiR49um47UC+xBXgqaAePgrVNQFBjOC/R4nzmd0s26qF9giCpl3a9/mbvw8EABPvrIUAq22hshzEuvRZNb0y6Z3+cYLC/J/aHRG/fCvvhTgByB4n78cfTmlsDSAMs9AhgJ9cJc7cpvtOAzQGC78QxV9tKAwYg2Eqzfq/3SzEIBORhEJ0JrDIGUUjW5O7iIs4AKROT4fdBF8LuNDEI/utwAxD8pz+HudsABPvrqvv378vQoUM1EJeAW6/FbDF82F9mi8H+xq8jSESsGvFkzZo1+yjfiSPIH9QyGoAQ1D0QSO0bgBBIig6gZp707v0uWdOsWf7KxRBA4gR5NS5Ll2qyphhjx0qoOHGCXB4jgNFASNCAAQghoZdFxAAE++toNzc3DYjl2K0VS2N/UhqJjAYcVwMYOGLGCF73GmPmuE8UuJIbgBC4+g6y1gxACDLVf7bhwMjFYH9PbSQyGgg8DZgYBP/p2gAE/+nPYe42AMH+ugr6b1hG4eWAIMxredyli7hduyaxFi82Wwyke164UF6uWiUxpk71V7pn+xsFRiJbamDLli1KrjdgwABJnz69LZsKlnUbgBAsu/XjhzIAwT47muO2n6LrNkGKH/aXCVK0z/HrCFJ97h1zBNmDWkYDEIK6BwKpfQMQAknRvmgGXo6bN28qbTicIF6Lx/Pn4vH2rYTi7LY55igerq6aPyFUlCjmmKMvxlhIvxQenn///VcJ8Eycj+9HgwEIvteZQ95hAIL9dduXYhA8Xr4UD3d3CQWJmAEImpcC8iijD/sbx/YskYlB8F/vGIDgP/05zN0GINhfV925c0eaN2/+yRiER+3aiduVKxJ71SoTg0AMwty54rJsmcScM0ec48Wzv840EtmlBrZu3ar5c0wMgt+6xwAEv+nN4e4yAMGxuuxxhw7yBoCwYoUBCACEefPEZflyiTl7tglSdKyhbKR1YA0YgODAnecb0Q1A8I22gv5athjk7VtxihTJbDGQEfb1axKuGH0E/dA0EoQgDRiAEEI62wAE++voW7duSfXq1aV///5SsGDBDwSERRGQECZNGhOUR6r2u3fF/d9/JXTKlOIUJoz9daaRyC41sH79es0gPG7cOMmUKZNdymjPQtkcIPTo0UOzaJEZkVTJdBjZtTjaxf7rrFmzNNPid999JwRtMWmSfTFv3rySL18+QcAOHTpIsmTJNEMjKZadnZ0DTKdHjx6VrFmzan0ch0HGmjVr6nfIycAaM2bMR+1Z961bt06KFSv2yeyTXm86e/asnDx5UurUqRNgsvumIgMQfKOtwLmWtOH169eXXr166Vj3Wswxxw/7wBxzDJwxGdxa2bhxo87fw4cPlwwZMgS3x7P589gcILBCmjZtmqxevVpTbp46dUqqVq3qmWaZzuvZs6c+KOmaZ8yYIcWLF5dEiRLpdxxTadq0qSxevFhXW5BeYJz//PNPSZkypeTMmVMmTpyox1igri1cuLDs3btXKlWqJL1795Y+ffooKCHtZ+bMmfU6ZAkTJozkypVLAQCAoECBAppGunz58tr2+PHjZfbs2XoMjRXe/v375fz585I4cWL59ttvNclOlSpVNM00wOLKlStSrVo1TUFNchDqQl6A0fz58zU1NP8yZsyodZG2mus/dQbeFr1uAIIttOr/OhknjAHv4+D55Mny9tYtidq377sUxyG8uG7eLK9275YonTtLqBgxQrg2zOP7VAPMzRYPQmDNtT6VzRGuCxSAgHcAQw+Kmz59uly+fFknxJEjR8qyZcsUNDRq1EgN/qcAQsWKFdWYw1nPdRh9vgM04IWAzz5//vwKNPgdAw07XcmSJWXJkiUyduxY+fHHH4XVfrly5dTQlyhRQvm5AQh4KChM1tSL96BevXoKLJ49e6aZwCpXriw///yz1gUgmTp1qn4GbGD0Y8SIIRs2bBAy9BUqVEi9JoAZzrp36tRJAQ0gImzYsPobzHmAhMAqBiAElqZ93g7gkX6BA4FxYYrRgNFAwGrg1atX6oWOEiWKLgpN8Z0GAgUgYExHjBihK/q5c+dK3bp1PT0IGNDnz59L9+7dFRx8zoPAVgQAA2OOR6Jjx466Or906ZIOALwDrPQbNGggixYtUqP8008/KQABGODKtVZrtFejRg1d2eMloC68FxZAmDJliqxYsUJSp06t4KVx48YKPH755RdtE3AzZMgQdQ0DIthi4DvAwt27d/UznoQJEyaoh6Fbt276/ZkzZ7RdtlIaNmwo0ICGDh3adz3mx6sNQPCj4mx425d4ENyfPhVxc3u3WjY8COLh4qJkSaGiRzcxGTYck8GtasOD4L8eDRSAgEHHa7B7927NqIXRpgAWunbtqkYXl/3nPAhsMWCcWZGzpcBqnLOtrNQx7k2aNPHM1tWvXz81yLBnEauAscfTsHDhQt3a+OGHH7TNHDlyyMCBA6VLly4SM2ZM9T5YAGHp0qUKCGjPAiNsa1Av+1iAHbwYgBs8G14BQunSpRXEAEIAO1wDKChTpowyeYFi8aKwrQFICCy3lwEI/ntRbHH3lwDC43bt5M3lyxJ79WqbH3N0f/xYU0uHih1bQn/zjbi/eCFuly9rWuXQbPU5Ocnbv/9WV23or7/WEwWvT53SrY/QSZO+Y3u0cdEYBHgQ5s4NsTwIFy9e1MyECRIk0G3Oa9euqfeUkjZtWt1ivX79um6jsjCBZ8MqLHZix45t416yv+oNQPBfn9gcIPhPPN/djcsfQgxTPtaAAQj2NyoApGxhEZvi3f35pG9fNdoxZ84Up3DhbCY8nopHTZtKhCpVtI1wWbLI0+HDJVz+/PJq/36JVKWKhM2ZUx736iXy5o1EGzxY3B88kIf160vkNm2E2IBo/fq9o0C2YQEcvPz1V4k+Zow4h0BDh2rbtGmjcVwAAxYcv/32mwZvJ0mSROLHj6/R+sRQEfSNRxXvJwur1q1b6zYoW6ohrQCU0Ace3cDy1gYnHQcrgIAL//vvvw9O/RNgz2IAQoCpMnAq8vDgWI3N3enuz57J4zZtJGyuXBKhbFl5feiQvLl4UaJ27Spvzp9XBsPIrVuLy4IF6jmIVLeuchE8bNBAM00+4ZRSnz62Jy8KJH0ETuf6rRUMPQDg2LFjGkh94sQJ+frrrzVwGgDAibE8efKopxSvKJ5Wtm7xoJpiNOAXDQQrgOAXBYSUewxAsL+e5pgj20xM7N6POb69d0+JgZy/+srmMQjuDx+K644d8nrfPgmTMaO4378vUTp2VKCAaz9MqlTidv265kII/e23EqFCBQUIYbNmlbCZM0uEkiVtD2SePBGPZ88kVPz44hRIcTv2NmIACGyd4m0iWJo4KLwCgASCrwkEX7VqlZ7yImaLI+MhHSBs2rRJdYV3he1lU3ynAQMQfKcvh73aAAT767ovESUFFg8CgX9sEzhFjiwv162TSLVqyYsFCyRCuXIKGsIXKiQvV6+WiFWrKrPjiyVLJGqPHvKoeXOJvXKlTbc/vPaY4UF4t8VA4PW2bds0hontA2KikidPrnEJeBbYtmLffd68eQIAJW4qJHsQfv31Vw1uN0RJfpv/DEDwm94c7i4DEOyvywj6I7CMYFpO0XgtT/r0+X8MQvjwNhOebQPXrVs1riB8kSLinCCBuN28Ka927pQw6dJJ6DRp5NWePRKhaFHxEBHXDRskbLZs4rptm0SqXl0kAEnLvvSQLkuXagxCjLFjNZgyJBZOTLGFSuDz8ePH9bg0BGwUjm1zjBq+F45qE5DIOw9REHwrIbUAmAiCJ/4gsALCg5OuDUAITr35hWcxAME+O9oicbFP6YxURgOOrQHeL4oBB37rRwMQ/KY3h7vLFMxdGwAAIABJREFUAAT767IvxSDYn7RGIqMBx9OAiUHwX58ZgOA//TnM3QYg2F9XfZEHoWtXcbt2TWItWmRzHgT708zHEr1YtEherlolMaZMsf2JCUdQiJHRRxowPAg+UtNnLzIAwX/6c5i7vwQQiIxmL9x7gYzFnB22XRezl0xCMALMoFv2Wp50764AIeaCBQYgiIjL4sUaLBl98mRxDoHn+W03CoN3zcx7xGVw0gOiOlN8pwEDEHynL4e9+ksAgSCeTxUIfAxACJou96BPPDxC7JG+j7Tu7i4eJLYiKNJQTwfNoDSthjgNGIAQQrrcAAT762iocDnbDjU3lN1eC1TGHs+fS7icOQPtpID9aej/Ern98YdmtwybJYvxqNhzR9mZbBwJJRdQ3759JV26dHYmnf2LYwCC/fdRgEhoAEKAqDFAKyEGgSNpEN6QptxrCSwehAB9IBtWZngQbKjcYFz12rVrZdCgQZqTB/ppU3ynAQMQfKcvh73aAAT76zq2dh48eKBpv0li5rU8mzxZ3P/6S6L266dJkUJ6gczp1a5dEqVLl3cZLk0xGvCBBlxdXZVhMnr06Calug/05f0SuwIIJ0+eVGYwW5xZhZc8bty4muWMCTmkFQMQQlqPm+c1GjAaMBrwnwZsDhBIi0wKZgopl2vVqvVZibmOjIzeWeU+dQN841mzZvXx03PchVTRRLSmT5/eR/dBz0maVFzB9erVkzp16kjdunWV/xxkSvQ/gXx58+bVVNawlkGFSippWM7sqRiAYE+98U4Wxk///v2lQYMGmmzHa3l97JjmHgiXL5+JQRBRVsm3N29qZkknGzJL2t8oMRL5RwMHDhzwzGj53Xff+aeqEHlvoAOEkiVLyowZMyRp0qSahhMa0Dlz5ujqfsuWLTJx4kQFEmHDhtUsZTBhkfOc38nWCIUok+mCBQskd+7cUrBgQYFvG1772rVry/LlyzX16e3bt6V58+Yyf/58CR8+vJBLvVmzZjpYMPbQlpL0hONl0Jdu3rxZecxJn2rtB69YsUIqVaqk12L4mzRposlP8EBAcYpbmOAyy+NBUpB27drZ5UAyAMH+uuVLPAgmBuHD/jIxCPY3fh1BIsOD4L9esjlA6N27t66SKBj1UqVK6Uq7Ro0aMnLkSM1rjvu/aNGi0qtXL+natasa5Hjx4sndu3flq6++kixZsugZ1mnTpkmaNGk02IQ6MN7sL5Gk5PLly1KkSBE5cuSIJjK5cOGCJjGZPHmyGu2VK1dqKlQLIHD+nO2MmTNn6vcACFKkZsqUSaK8z20/YMAABQ18B9c5HgT+ffPNN+pZIN3q1q1btX7AggEI/huMIe1uADJjN1WqVOqV8lqejRunK+ZoQ4aYGAQReblhg7zasUOi9uwpoWLGDGlDxTyvHzXA4vLq1au6CAyJW8t+VJvnbTYHCIMHD9aVN+fplyxZornKt2/frsZ9xIgRuurfsWOHpisFHIwePVoOHz6sIICVORNotmzZ1KOAsBD6HDx4UIFB2bJl1XtQvHhxdfHjQsJo0wYAIUWKFLq9QTrdRYsWKRixAAI0t2nTplVvRpUqVeS3335T8IJHwfII4EEg/7pl+Fu1aqWghuQ6AAe8G4AbAAX52Q1A8O9wNPcbDRgNGA0YDdiLBmwOEDCiuO8xungJXr16JdevX1fjvG/fPt0mAOFdunRJvQWs1jkfzvlVPAKwzcGCRVwCq3UExpA/fPhQ2F/C9Y/R539ABIafGANiDdiOoL3Vq1frd0mSJNFtCtoAYLBtQVY06j516pRuReD27dKli/bP+fPnVU48GcgPGAEYwDCIBwGggxfCyjOOPN7Ps9tLR5stBnvpif/LwbgCvLL15T2exv3RI/F48+Yda6AhBlJOCHcXFwkVK9Y7siRTjAZ8oIE9e/Zo6uvOnTurp84U32nA5gDBd+IEzdXsU1lgAuBRuXLloBHEhq0agGBD5fqx6i/mYmjXTt5cuSKxV60yQXki8mLuXHFZtkxizpkjzvHi+VHj5raQpgETg+C/Hrc5QCBokO0EVuCguXxEZfug4C1g34hYhIAuxCUQwIhMeBTWrVsnLi4u0qhRIw2eDMhy48YN9VwEdTEAIah74OP2GXNsl8Hw5n2cPx0+XGAPjDFmjDh540iwvyexvUQv166Vl5s3S/SBA00Mgu3VHWxaIFid+DK8xjEMf4av+9XmAAGKS446YoytY4502JUrVzQ4kP17wAD7+sQSsDVw6NAhPZVAjAEnDXDdE19AgCJbEdeuXVO3PrwJbBNwrJDCiowYBLYq2BpgK+P333/X7QDiEdhO4GgZ9SEXWwtsZWDAOZZIECXuXrYO8ChwLJJ7kIUgRU5ZsOWBnNRNAAy8CpEiRdK/iXHg886dO1WulClTqmurcePG6t4iTiJhwoQq++nTp1U2tlh4Dqs9X/egD28wAMGHijKXGQ0YDRgNGA2oBmwOEDp16qSnEAAIrKZbtmwpEyZMkKZNm+rJAlbt9+/fV0OMsezWrZuMHz9eTx9AQ8vqniBCOAl69uwps2bNUiOO64jrMayACwrcBDDTYcgJehw+fLgQJElgIWfNCUTkWCVtc3rBAgjcA58BpxgAG+wN8zvGnaBJgidp49GjRwpsiHUAxMCJsH//fj12SUQ6yuQzRznhaShWrJgGSUKlyzOzdbF3714FGO3bt1eOcEAJXhVAik/4H/w6bg1A8KvmbHff48ePtf+Jn+HEjddC3gEPV1cJjUcrVCjbCeEgNbs/eCDEZTgnTixOYcI4iNRGzKDWAHFkBMETbE4smym+04DNAYJ3DwJGEyPPihqDjFHnZALuH7wEgAOORbI1gbEGKHCKAeOJ4cUw43mAphaQgNEGZFAwwvAicIKBgEivpyVY3eMJgOMAMiYMt1cPAvwHVh0ADwYV2xDLli2T+vXry82bN9U7gTfi+fPnChSqV6+u31lBj1wDOCGI0fKI8PwABP7xzHyPjPA9wKlAECceFE5D4GmwVTEAwVaa9Xu9hgfB57ozPAg+15W58v8aMDEI/hsNNgcIcAnAb4AHgaOGGFV4AypUqKCS4z3gCCTbDngXMJxEdOP6b9u2rR5zxIiy2oKFEYCAAd+1a5caW4yrxbMwdOhQXc3jvudoJUaedkaNGqV1YaSzZ8+upxomTZqkAAEQwerdij0APAAu8G5wPUAFTwHbAcgIfwIABd4FjlOyPUCbnIoAIHACg5MUcH8DSgAvtM1vXMN2BCAJMINnAvk5PXHu3DkFJLYqBiDYSrN+r/fZs2fq1WIrC24Nr+Vxx47idvWqxFq2zAQp4uqcP19erlghMWbOFOe4cf2udHNniNIAW8F4cwsUKGCTeLbgrkybAwSOGVqJaNi/J6YAg0+AFoYRI417nmssFzu/4cYHAAAs+J2/uQZvA4CC/6mbrQGLt4DvaIN7qYvPtGfJYP1OXVxD4TuutdrmGCPt8TvtWPVxLcpCZtrDg0Hd/E99PBP38jf3cw3XUj/XILv1PX8Tq8D//IYXhWutrRJbDDoDEGyhVRvW6eamY8q409/r+O1b8XB3F6fQoc2xTxsOO1O10YBXDdgcIBh124cGDECwj37wKgXbY7Nnz5bSpUvr9prX8vr0aT37HzZbNgUJHi9figdg9j3Lp/vTpyIeHu8+OzmJ+7Nnenuo9zlA3J8/F3n79t3voUKJ5/WRI2tuB/cXL0DH4gQxGJ/fX+8E4A4TRtxfvhR5/Vo++Pzmzf/bpz2rfer3+hl5rPYjRRIJHfr/n9+3r8/jpX4PFxflfXCKEEGZI4m/8Hj1yvOz2/Xr8vbOHQkLgZrJxWB/g9lOJYISn21f4tggszPFdxowAMF3+nLYqw1AsL+u+2IMQvv24nb5skSfOFHCJE0qz8aMkdcnTkisBQvUsD+oWVOJg2LNm6dG/EHt2goIYi1dqgb+UfPm4nbrlsScOlVCxYun12OEY4wdK6GTJZPHPXvKmzNn/v+5Y0flXYjSoYOEL1hQno4cKa9275aovXpJuOzZ5dnEifJqzx6JtXChKvJBtWpq0GNOmybOCRPKw8aNxf3+fYm1ZIkey9RcEtevS/RhwyRMmjTyqHXrd8c237f/bORIcd29W6J17y5hc+WSJ/36CQmqorRtK+GLFBGXJUvkxaJFEqV5cwlfooQ86d9fXh86ZHgQ7G8Y27VEJgbBf91jAIL/9OcwdxuAYH9dRVwNicoIvvXuQXi5Zo28vXdPIlSsKM6xYonrzp3CyYZIAAF3d3kxb54a6Ei1aumK+znAwd1dIterpx4CSIXcHz+WiFWr6qqfPXxW7BErVJBQsWPLy/Xr5e3t2xKhQgVxjh1bXNasEfd79xQchE6RQly3b9cMiuGLFZPQ334rrnv3itu1axKZ9kXk+bx5Cki0/mjR1KDjNYhUr55uA7isXCmcPIhQpow4x48vLitWiPvDh57te9ZftKiETpJEXDdtErebNyVc/vwSJmVKeX38uP4LlyePAgzXzZvF7c8/JWL16p5eDPvrUSORvWkADwLxbHDxGA+C73vHAATf68wh7zAAwSG7zQhtNGA0YDQQZBowACHIVB+4DRuAELj69klrBOOSjwTGUFKUm2I0YDQQsBrgaDvH3uHi4Vi9Kb7TgAEIvtOXw15tAIL9dd2XYhDsT1ojkdGA42nAxCD4r88MQPCf/hzmbgMQ7K+rOMUwffp0pRQ3mebsr3+MRI6vAThxNm3apPw73rlGHP/pbP8EBiDYXsd20YIBCHbRDUYIowGjAaMBh9GAAQgO01X+E9QABP/pzxZ3W6cYSEIGuyYxCWQ8hfwrf/782iRnuCHdKlSokJJuwQ7K5yJFiiiRF5/5HgpxvoeZE8KuvHnzSuTIkbU+6uV3iL3IFQKjJ/TlsWLF8vwMmyPsn6y4yIBHQjESi5EjhQRqZJwkChxGUWjG8XjAQMrffMfqjARptE3UOARgtGmxlfIsMJTymaRlyMQzQhBmyQxDKknTyHCJbqxkbsRpwDqZIUMGSZAggadM7CvHiRNHM7LCXko+C5KyEbnO3jPJ0mBIhf0UFlTupQ7rGazP5GI5cuSI6gO9kHgNhlRYT8mTwiSJHimWjHzme0vPXM99ll6pj3otPcK8Cquf9dliZUU+5GS7CTZV6xl4Hp6LXDMwy9IH9IUlM31IX9LHyIA3CpZZ9IeM9AN6hYwNFkH0jd7RP2OHsQKLLJ/pJwq08eShoR/pT5LiXb16VanjoZi3+ppxwHjgWu6xZGLcMH6iRYsmuXLl0nGGjJZerc+MW9qEOA49Wnq2ZEY2frfGu3U9sjLeIa/jfeAz7weFscR7Y413fofsjtw3sPGaUwx+m8EMQPCb3hzuLgMQ7K/LrBiE9OnTa3IwjBoJypiAoQOnMPnDsImblJf1xx9/VGDA5M7ESuIvvt+8ebN+jzGApROKcAw4VONM3BhtjAl05WREnTJlihoe6/PcuXN10odqfOPGjTJw4ECtu2PHjmpYevTooXVB7ER+FJKN1axZU+shtwoTMInWmLyZ3DFITN4YKAwSkzlZTpm0SZzDs69du1aznjK5IzNU7BhLEqthHJcuXSrkSKlRo4Yap0GDBunzd+jQQQ0BeVswROQ7Wb9+vdKr8w96d+pu3bq10qQvXrxYk64BwkjexrNC6U5d1AkVLzTn6IPnQbfQoGMYV6xYoTTpFjW8JSOf+Z7fuY7ruc/KHUN91GvJTHu0a31GHuRCPuREXuS2noHn4bkAbtCy87w8t/UM6AO9ADDIF4O+0BvHZakXfaJXABQJ76yxhv7pBwso8BkgQenSpYsaYJ6FxHL0K/qgn+lvno3+p/9InMe4YHxYeoQ2vHfv3gow5s2bp+OM8QWQIzGd9ZlxyHgEBDHeLT0jM+OX8c7YYVwzBhnn6JbxTVvkwuF94DPvB4X3hfeG+qiXMUx+H3Lu/Prrr9o+cpjiOw0YgOA7fTns1QYg2F/XMSGymo0QIYIkTpxYjSufWelb2R2ZVFlRsTJmhcWKjs8YAiZ5PrNa5zPfs1KFohnDgXGmPtrB8HI9GVWh9maFyMRrfWaSRg4mV1Z6eA9YCWJYmJA5ZcGES+4UUqZj2FkZ8jff8RvX0DbGC1mRmTb5TEEGZGRlyrNi/HlWnpECoMGjwIqf1aX1DKy8oUsnjTsrZEsmDALGBgDE+Ga1jUG0PlsyspJnBU5qeTL6Wc9AXdTJJIixRx/ohedHDxhPZLT6yauMll4tGQF3eDksvZJ8DZBk6ZH2kcP6zOr74cOHqkPkxGNCHhfrGXgensOSibppw5KZPqTvLBlpizbpc2RC/+gdI8pYsp4B/dMPFH63xhKfrWeIFy+eRvxberL61noGPE14DbzLZMlMH9KXloys7Bnf1mfGBOMVmehb6xkYO4xfCr9b4926Hlm9ji1rvHM9/UQ9Vr8w9nh2ayxY/WJ/s4B9S2QAgn33T4BJZwBCgKnSVGQ0YDRgNBAiNGAAQojoZtEVFq470LiV3IpHB6WzAv1UAfmDwk0xGjAaMBowGgh5GrA5QGD/DJcVLiZSLVNwtbHHhksIFxv7ap8ruIhwceH+pJw/f14DTzBcpFnOnDmzj3oNtyZuKPbN2OfyTTl16pS6RGnvSwYTNx/H1nC/YZAbN278gTGmTYJ4CFQK7GIAQmBr3LRnNGA0YDTg2BqwOUAYNWqUBrJ4Lexbst/EfiEBNQTErFq1SvcfCXA6cOCAGmT2Ra1oYs6KswImahZgwb7auHHjFCCwF0b0MGCCf+yfEXBE8A57clxLUAyBRUQXk9mLACj2P0uVKqVBO+yHYbiJBiYaGSNP3XxPcBF7agS5WFG0BM+wd8q1AAcAEHu1hw8f1mdgLwxQQqAQATbIyPfDhw/X7H2w5xHhC6ggwMvrqt4WQ8oABFto1dRpNGA0YDQQfDVgc4CwYMECNYIECBF1SyHYhehfjC+GkkAcAmwI1uF/y1jzG6t3omK5nwJAIKKXQBkiWDnag8HH2BPwgiHGS4AxBmBQN/UBAoiAHTZsmFStWlUDsPBM0N6GDRtUDiJfM2XKpHIABiyvBW3kyJFD+vfvL506dVJwQ5Qt/wMwACwUrwABg4w3oWXLlhpYw/VENhMF3axZM/UwEIxF9DJRwwAZWxYDEGypXVO30YDRgNFA8NOAzQECe9zse//yyy9qmPnb8iBgiCdNmqTGGIPN2Wqup7ANwfEUzohzBpffLYCAQeZIFgVPgLUC53oy43EcB4BAxDL3ARBYxf/000+eAAHggAeDSGD+cW6WtjH6RExzLIljPxQLIHD0i+M+eDd27dqlwKBEiRKeo8ICCNSF54NzvHhIhg4dqsd+AEgAhKZNmypY4NnHjh0rrVq1MgAh+L1b5omMBowGjAYcWgM2Bwjdu3dXjwFndCHwoAAQWrRoofv5GEfOMmMsiS9gOwLvAkd+2HrguApna4llwCDjUeB/gAOFrQlr+4EVPr8BNFjZ9+nTR7ccOC+NISYGgjbatGmjZ47xHnAeGQ8CXgnO9yIbhCRlypTxJBDhPDNbFgTzsdoHXHAuHE+F1/gJlFmnTh31PACG2EqgXmTkOTjzjCcBTwefuZ8jSZx9trwQthpNxoNgK82aeo0GjAaMBoKnBmwOEIKn2hzvqQxAcLw+MxIbDRgNGA0EpQZsDhAIOCTwD+ILVs1eC6t5ggH9koaT7QCoSYkdoBCEyPYAzGMEM0JEQgwCq35W7dbWBbEEnJz4r0LcADIHl2IAQnDpSfMcRgNGA0YDgaMBmwOEXr166fYC2wwYXbJq0SgMcLCC4a7nHwGDfMeJA7jUYWUjRgFGMwAGRyWJGbAK1+CiJwiQEwDz58/XLQxoQ8uVK6dHIdmiADSwlYCbny0E6iXGgBMGBCQCINi2gJWNoEFY1OBfZ4sDuYiZgLkNDncKsQV8BwObV3kCp7v83ooBCH7XnbnTaMBowGggJGrA5gABPnFiATDiS5Ys0ZMEY8aM0SOH0JviVcDo8nnEiBFqiDG+JNiAV5trCe5buXKldO7cWY9CUohT4FoCBgliBCDgHQAYEKhoAQSrU+fMmSP169dXelMCGwsWLKhHFC9cuKABisgHOAAUIBP385kCUOFvTkjAmw/YIG4AWlRHKQYgOEpPGTmNBowGjAbsQwOBChCI6OckAScKOHnAqQOMPNwEHGUkuI9kKgQZwtuNt4FrSGbCNgHBjHCvc1qAIEN4C7gXEEGwIbwFXAMI+BxAgLsAcMGxSbY3uH7NmjUKLth6YLuDkw/wHQAK2LIAlAAwABVsXeDVIBiRrQxHKQYgOEpPGTmNBowGjAbsQwM2Bwhkh8PA49KHPIjTBd4BAicHIBji6B9ZuTjCCM8B/8jC5R0gsILHsLNdAHCAGZH/qZuCZ+BzAIHjk3gQqlWrpqco8EDgPSAbHullMaR4JNi+8A4QSFfLtXgU2BIxAME+BrGRwmjAaMBowGgg4DVgc4DAfj9xAOzbc5SPv9n3xzjzP99TMNTWUT/uofAZLgFIkKxrMdB8Z1EeUx+FIETLYHttw1KZ13v4m/qsermX+pAFzgTatYIavcpHilO2TMhyRj532BQdpRgPgqP0lJHTaMBowGjAPjRgc4BgH4/pfykAHZA9EchIEiPynJsYhP/WK8Bk4+YtUjB/Pg00xSuzbcdOSZM6laR6n3YWMHbjxh+SLFlS3VpavXadgrSSPxX3jDmhpUePH0uE8OH1u+s3bsjhI0fl28SJJWeO7HLr778lYYIEnoDzvyUTefz4ibxweSFfJUzok8v9fA1gtE//gdKjaxf569ZfktLGp2Pc3T3k9u2/lSjsxQsXufnXX3Lq9GlP+QkOtuJrANXly5aV1WvXSpTIkaVwoYI25+TwrSLp2ydPnkraNKk/e+vBQ4cldaqU6nX8XOEdXr1mnYL/woULSozo0XVhsmXrNokWPbrkzplDPYTXr9+QU6fPSL58eWTrtu2e1WXNklmSJ0vmY/GnzZgljRs2kFChnHx8j/cLr/1+XRJ/k0gXM17L5KnTpUWzJn6uN6BvRIeFChbwVXK3t2/dZdPmLVKyRMAstNasWy/lyrzzIvunbNi4SbJlySJx4nw5xuz369d1nJQq8ZMS3d344w85cfKUznXWybynz57Jm9evdfv6n7t3Zeeu3RI7ViwpUvhd3Jtfyq8bfpPSJf9P0Pe5OriuRPEf/eXpNgDBLz3kgPcEhQfh+YsX0qfvAGndqrk4OYWScGHDysrVa+Sn4sXk1q2/9YWpUqmirPt1vZw7f1G6d+0k9x88kNlz5kuVyhVk8pRpMmzIIE+jP2HSFDV43bp0lOUrV0vCBPFFnJzk8qXL8s03iSR/vrxqSE6fPStM5lHf03PTXRjI79Onl6vXfpck3yZW+u9Xr1+roUSWHNmzaQzMnzdvyr17/+r9ly5d1gnvhYuL/PB9es9ep447//wjObNnEze3t3LkyFHJkSObTuIvX76Uo8dPSNbMmd5RiN/8S0/wjB0/UWbPmCr/3L0nYcKEFve3b+X2nX8kW9YsaqT27j+g4AfgZLGGXrp8RVxcXkjGDBnkjz//lCTffquBsgAkZPz79m2Vky06CvpOmiSJyrQdavGiReTv23dk2/YdUiBfXtm4ebNkypRRARGeMvTZrnUr3arbuXu31r9j5y5p1qTRByMcXR05ekwy/PDuSPGx4ydU19TBBHj16jUFaZYRO3XqtHz/fXp59vy5nhiKFDGi7D94SLJmziwxYkSXk6dOS7SoUSVp0iSe7dy5848w4VLPs2fP5Y3bGzlz5pwUyJ9X/vjzpm4b0seJvv5a/v77tnz1VUL1Rnbr0UuKFS0ir1+/keTJk+rz5s+bRyffM2fPqU5TpEiu7QDUBg8bKbVqVJOly5ZL61YtZMTI0VKrRnV9lk1btkrtWjUURBQpXFCfx/2tu0yeNl2v+TbxNxq7xPNSJ+0DWpnmGb+5cmaXl66uEiZ0aLl05YqsWr1WKlUoJ2HDhJWUKT8+Mo0eAGjfp0+nslLChw8n36VIoXo7dPiInvRKkzq1hAsXVvt79px5UqF8OVn8y1KpXKmCgjqANV5RQBJ6R7dWsXTwzTffqH4ZX8dPnJRMGTPo/xEjRtD6GTN79+2TVCm/k2kzZ0nuXLmkSKGCqkfG5+69+yRThh/U8PGOHT9xQtKnSycdu3STdm1aqbyMZd6Vo0ePa7/xbA8fPpILFy9qGzFjxvCUi2fn2fYfOCh1atWQM2fOSvgIEeS7FMm1v5mveH+TJPlWn23X7j06NjDE//xzVxcImTNl1HcMAKkEdydOScP6deXoseMSNmwYyeAlKd7lK7xLLyVjhh90jmEs/P77dX3v8RKzMOna/WcpXryo3L33r6RPm0bc3N5ItqxZVeYjx45Jgvjx5ZtEifTzlStX5dCRI5I3d24d04cOH1U5AbH7Dx6UfHnz6LX9Bw7R/qlZvap+/9Llpb5vv23cJF06ddC6bt++o/PJ1199pQzCjDvGFzKxCMqeLav89dctWf/bRqlWtbJs3rJV0qVNK3HjxNF3gmdBP1mzZlGdsfA5e+6cPl+tmtV9Bdq8mzYDEBzQ2PtF5KAACG/euMnwUaMlc8aMUrhQAVm6fKXkyZVTvv02sa7iqtWsI0sWLZDRY8dJ2rRp1BsQO3YsmTJthpQtXUqBQ68e3XSSevDgocxfuEhcX72S9m1aya8bNkr0aNHE9ZWrTuKRIkVUo8ULWbd2TZ3I48WL66mqeQsWSfFiRWXh4l8kS+ZMGujKi4dMoPmDhw5JzuzZ5ejx42pkmTTWrPtVfvqxmBp1QAUTIIBi0eIlUiB/PmHSXfTLEsmfL48sW75SunTuKNOmz5QfixWRvXv3S/78+WT7jp2SK2cOGTZilEyeME5Onzn7fsJ8F4ibMmVKGTFqjHTp2F7mL1osndq3VQAACOF4LkG5T58+00mwXp1asmzFKilTqoSs/XW9HuJuAAAgAElEQVS9GhLAx+MnTyVy5EiSI1tWPXrLZN9vwCBJmvRbncxjxoopdWrWkOUrV0nuXDnV04L++w0cLP169xL6iVUTgOv8+QtSv16dD4YY4IbnZQJ7/OQJmEymz5wtTRo11BVg3jy59Tnbt22t97Vo3VZGjxyuz4B8p06elooVy4l4YEgvSNSoUdQIYESYRJm4V65aLRky/KBAjsmPldZPxX+UpctWqNG+f/+BnL9wQXXQb8Bg6denlxroTl26S9s2LeXChYv6rN99l0Ju3bolUaJEFbe3brodmClDBv2eibTfwCFqtFnx/lisqE68JX76UeXu2qOXdOnYQcdZ9qxZJVeuHPr9oKHDpWWzphI9+ju6981btknBAvnk8OGjasAAXrly5lSZCxXMrwAoT+5cMnrMeJX98pWrOtaSJ0vqqdfXb95osjdAIOMSnXVs30727T8gpUuVkE2btkjBgvll0+Zt0qxpIwXXGNsFi3+R2jWqSZ/+g6RZk4ayZet2qValshqcnDlzaD+0btlc29m1e6+nDjCMGJssmTMriE2fLq1cuXpNDX35smVkzPiJ+s7FixtHpk6fKQ3q19W+4d27feeOvH71WuYvXCydOrSTSVOmKij7KmEC6dytpwwfOkjmzlsgzZs1kQkTp0iliuVl2oyZMmTQABk2fJR+xqi1bd1S5Tp//qLcuv23Asdz5y7I99+n075hbOXIlk36DxoijRvWV4BUvlxZmTFzllSvWkVmzp6j7Y8cM05q16wus2bPk4H9+wjvdu5cOWTl6rWSL08e8fBw1xU7z4j8u/fslSdPnypwunv3ns4Lz5+/UMDCvFj8x2IKgtq06yjdu3aWnXv2SJRIkdXwM+8kSBBfFw+8uwBHQOrDR49k5qw5ki9fXsmeNYu07dBJRo0YpuAQ8E4/tW3VQhYuXqJGv0njhnLm7Fl5cP+htgvAqVOrpuqD561QrozMmbtADTrvVKMG9WTVmnU6p234baNULF9OAV3xH4vqeKxZvZrs2btPr+vQuau0bd1Klixdpn2P56pCubK6ABg1YqgBCH4xmCHtnqAACJaOcdkuXrJUDRorHFYpoO2adRrI1EnjZcy48Xq0FeNbr25tGTx0hBpBDI8Va7Jx0xa5eu2aEHLCJMzECrplBUB9rJJ5mVjp4uZj0k+W9P8TMsYDAwMwYOXOS9ygXh15+vyZJP32WzV4uP5Y7TAZpEqVUvbu268A5d7de7rCK1e2tBrWZStW6oRTqXx5+blvf1318DytW7aQK9euSvq0aWXmnHnyzddfSfr06RTp16nfyBMg4A1gRYEH5ebNv3SSTpY0mXo1KlYop2pbt/43+enHorqaWLBwsa5CePjNW7er3AAdPZKbPLmu3sqULiWhQ787VePdg4A34b8Awuw5c9VA45Gw4m6oi4mbVR4rIp5xxqw5CkYwTH1795IHDx9KtiyZZcjwkdK9S6f3AKGdjB45TFdZ/96/r+Bq1ep1UqhgPlmwaIkaFuoqU7qkrizx2kQIH0Hixo0jk6ZMU0D16tVryZolk9St30j69e2t7fx186Zuz1y6clWNPKV3vwHSu2d33bbKwooycmSZMnW6TuxRo0VVnQEAWW3yLJ269pBSJYpLrlw5Vff0a+WK5bWuDp26ysD+fXVVfeDgIR1LrI69AwRW8vy+ddsONY79Bw5WY8rWY948uRToMoYYGwCwG3/8KafPnNFJ2yqACFal/979Vxo3biAdO3WVeXNmytFjJ9RbwOSPQUU+npnvkH/RL0t1xd2zd18Z1L+venMwfBiFr7/+Sq/p2L6tNtPz574f6ACA16BJM1mzYqm+I3ja/rr5lzRr2lgGDBwiUydP0PsArDw3Yw8QNmvOPAUojANA8ImTJ6VShfJqVNt26CyTJ4zVe/BoYIzr1q6lcpYtXVI9Y4DsBYt+UaNOoY8xcFGiRFYDSj28l7poqFJZgUDvXj3UILq8fKmy8T7/++991cmOXbulWpVKMnDIMAUSPDOgd+bsuVKjelWZN3+BbjVRFwABgMt1bFsCAsuVKa1em8iRo8i69es9+6Vjl+4yYuggWfjLEilcsKBEiRxJ5sxboO+XFQ/HMyb+5ht9DnRDP+GR2LN3vwwfMlA9HHi4APBZMmWSw0eP6nvNu8V7c+7ceX3HMmXM6DkW5sxfKPXr1JK58xdIvTq1ZduOXZIieVIZPXa8evWIsuN3xgLvoXXd5q3bJGvmLDJ91kzp1rmTrFm7Tvl86Fued/bceQpCrDnULzbPeBD8ojUHvCcoAAIrZFZozqGdZenyFerOZu+0fLky8vv1G7oHvGnzVmnVspl6A1gJ4BZft36DNGnUwFPLvIjjJkyWdm1a6iSCWzNnjhxqmPBGUCyAwGqHPXjc3EyYeAusvT5Wm+3btZbtO3aJu/tbKVWixAcAAeCxf/9BKVAgn0SPFl2GDB/xEUDAsN36+7YepXUOFUoOHzkmxYoWllChnHVl4hUg4OoGZGA0WPVOGj9WVyHeAQJufYxltKjRJFGir1Ve9IbbkUkF93v+fPmkbfuO0qF9GwVT69at11Vp1GjRZOeuXVKmlP8AAsDI2kZhLxUvBi5VyviJk6V0qZISNkxonYRr1qguAwYN0Un8UwCBlQtgjRUr2wjJ3m8lzJg5W/LlzSsRIoRXgxo/fjxtBzDw64YN6mk6cOiwusE/BRAAGgMHDVXwYQUk45mpXLGCroazZP4/QAA4slIGWMWNE1eNPoZk4uSpnitZxtLAwUN1+wAjgEEqVbKEeh1wlbMa79CuzUcAgfHYpn1H3R7DU4BOihYprEYc9y5bEQCEVm076Di+eOmy5MmVQ44cO66rdADY9Pdu/EOHDkupUiU+Agi4yXkXfv3tN41jwEAzrqdOnyHVq1bWVbRXgIDRZEsAQ8YYogBiLB3EihlLDUb9unXUBX/qzGkpUby4xlhUr1ZFxk2YJA3r1VW3/5Jly7Xt5MmTKZCr36ipDB7YT4aNGC2jhg9RHQJkY8eKrXoYNmSgehBYvdL3lStVlOEjR8uEsaNky7btHwEEwD3AEQ8C2yJsd6ATYpS+/iqhNG7WUrp16aTelCqVKsjY8ZOkZo2q6oHCQ4a3ywIInTu0k5Vr1qpnbO7cBdK2dQvd9jp+/KR6YjCOeCIePXosMWJEU3c+sWOfAgiDhgxXELNzz17VpQUQGEts5USMFFGBCDqmPjw6L11d5OKlK5I65Xfaz5kzZ9S5qFqVKtKmXQeZPXOaPhteUdrEC5X2fR4ha4L7HEBgUUQ/hA4TRufHFatWS9XKFXWBApAAIBDv0K5jZ92umL9gkXpYpk6bKRUrlpehw0fIhLGjDUBwQHsd6CIHBUAI9If01qCFtINaji+1j9HCALNi27hps9KDYyCDsuAqx8B79SQEpTxW2xh0VoMYbUcreHV69+0ngwf2dzTRA13egYOHSa8eXQO9XdPgxxowHoQQMipCIkCwjqzacxezGh08dLjusX+d6Gtp07L5RxHrgS3/G44Whw4d2M1+sT2CM7t07yndunTWqH5HK/Qz4xEXtClf1oABCPYzQgxAsJ++sKkkIREg2FShpnKjAaMBo4FgrgEDEIJ5B1uPZwBCCOlo85hGA0YDRgMBpAEDEAJIkfZejQEI9t5DRj6jAaMBowH70oABCPbVHzaTxgAEm6nWVGw0YDRgNBAsNWAAQrDs1o8fKqgBAmeBOfrlU3pRCJHCfyKgyzqT/Ll6YNSDRc0/xcr7gcxwDXyucH7bOwUucnP2nqNQFkMb93Msj2sJVLM+c79VCF7z+ky8mJ9r28o/4lNd+kcXXu9F916D7Lx/Dqh2qOdTuv1S/QERkMqRQI5dBrZeP/dcPtUvYy5smDB+OnXiF7359h7eJ+td8noyhmPQjCf+Z24IqEJb9OGn6oSUiyOvXnPzWO1+6jv/yMRzMZ4+NZbhfYAEzSqfm+982v67/EPkFArYDMMGIPi0Bxz8uqACCJzbbtaksXTt3lP69O4lET8zERw4cMiTuY4JZfeefUqI5L1wdJFz758znvAMeKVF9ku3cZ6Zs+xt2neSaZMnfHLi9UpGZLWB3B06d1PuBXJLdO3cQVq2aa/PAXkOhCcHDhzUSQPynmPHj8uSpSv0jDfn461nUla3Dp1lyoSxnxQfuml3Dw89px2YBfKnRvXrejbJ2XsonDnLzjn0zxWOJ86aPVcae+G2+C+5yd8BwY73go4h3apds8YHP61as/YDLoj/qv9Tvw8YPFTatGwh0SBY+o/CWftQTk4fTPJfuoUJfOr0WdK86Yc01l+6x6fHdKfPmq3c/BZvxX/J7vV3CH1gcvTN6Qrf6hoGRs7rQ4/tFSDAvVC/bm2ZNHW6J8mWb2T/1LWwjk6cPEWPDUNc5b1AMNWnVw8lE4LfgLL/wCFlYoQvAU4GK2mgf2WBuht+DFg7vY5lxkL1WnVl8YK5nvp4x0z6f+4X37YN/wb8JTBmBmSxOUAAbU6aNEmJZapUqSLp0/+f0956kI0bN8pPP/30wXPt3LlTChYs6PkdSiWbIpNNzpw5pWzZsjJo0CDlpoc8o23btjJ+/Hh5/PixlC5dWlauXKm/gdL4LWHChHLy5ElNuAQZSOfOnT96KY4cOaL35MuXL8iPmgVkJ1NXUAAE6EgbNm6mzG6QH0GhC2e6EtO8fqW0uxDFNGpQX2bMniNVK1WUdOnS6ip79LgJSmHK8T9yE0BGRIHshbEAVWqJn4rruIJjHoMMTeqq1WuUTQyjFSt2LIkTK5bmYDh24oQSr9SrXUvSpEmteRj69R8kqVJ9p1Sze/btVyZH2BRJcmQBBJgeZ8yardS9336TSJImS6bUp0x0MP+RqMUqXol44DaAF37U2AnSu2c3vQRynEIFCigBDQUg0KBxU1kwd/YH3c33lavXUhpV2PxgCoS8JmKEiPL8xXP56ccfFWwsXLhIEiRIoIRKGF/oiqEUXrVqrfTu1V3HOdSy+w4cUG727l06KztbihQp5ObNm0qNbK2WV65ao+9O1qyZlQjq2rXflWhm+YrV+pxQZMMwlzZ1arlw6ZL06t5V+yhfntyajAu9njl3TklZ/vzjT2napJFMnDRFokWPpoROkNB07the6ast5kN462EAhFmxRrWqsnX7Dnn86LGkTZta7j946DmpQiwFYx3kVbBmjhg9Vlo0b6K89rAuQn3NahE2ycVLluh88OTxE+Wtp8CcSTp5cmT0/bmnjB03UZKnSKZkVG1atZBRY8crh/68BQtl2qSJChAAmpBcJUiYQOLHjas5LKbPmKW/wWwIQZTbmzea3Apab5gbYayE7a9l86ba7suXrlonTJoQ6HTs3E16dO2sK7279+4qWRCMhL369FPqYhgKe3XvpkRE3yT6WvNXDB00QOYvWKxesXTp0mh/Xv/jD0mXJo2cPXtOycB+Xf+b9O3T6wOAwGqYcXruwkXp0LaNUp5zD+RJQwYPEEiroBA+ePCQskdaK3mIzEhlf/vObfkueXLNS0BSKHKfMD6gxz5/4aIUL1ZMGVC7d+0iY8aPl3hx4urY451/6/ZWxxXsh8gBlXDhggWUJh3iH8D11atXlUTJO0Do1buf/Nyru/zxx5/KUHjzz5sSPUZ0gegJEiVoiJ+7uEizxg09s+5yTBg2UxJuQWO8bNlK6da1k8SKGVPJsdauWy9//vWXNGlYXwYPG/EBQGC+HzJshBJkAbqhGsfbly1rZu1XKKydnUNL08YNPd8V6qPvyMMwZ/58GTKwvwLgsmVLa04ECJSghh4+aoz0/bmHjmuYPPfs2Sd3791TfZavVE1q16qu5Eod27VRpkloxGHlhG0WMiXG5F+3bsmJE6ekVMmfpFPX7tKgXl2l8kZuAAWAh3cSuugp06br3IbuGaPMiQBZco/41Stmc4AwePBgadmypSobo12yZElZu3atVKtWTQcJlJhMVlmyZJHdu3fL+fPnpXbt2rJ3717JkSOHXLt2TbJly6ZGoUuXLjJixAhZsGCB1jNjxgzp2vUdocaePXuUiYvJz0ov3apVK5kw4f8rQEDHDz/8oMZ/zZo1UrNmTZUJEJE7d24ZOnSoZMqUSUqVKiWrV69WQ8H3W7Zskdu3b0vdunVl/fr1yk5Wvnx5lQ2+fBLJ1KlTR6l/qS9x4sQqO3/zslGfXzsooIBCUAAEwFzTFq1lxtRJ6kHo2b2b8rqDdNOkSqU0pCtWrpH5c2dqYpsa1aro4+JaJfsh/OOsskuXLKkTIWXOvPk6qWIQWMlcuXJN4seLq0l6SPbE6hJ+/HBhwyma/rnvAGUf46UHycMkR5a2CxcvKTNbmjTvSIn4jcQ7sBbC0W8BBBjdyK8AIx8JX6AG5kVmkoMB0eLxpw4mI5jl8BaQ2ChvnjzSsm07KVOyhL645HiAnQ8mOcADK5XPAQTY5ObOmq45J5ImSSxTps6QH374XoHP4AH9VGZWYH1+7qkU0m/d3WX5ipXSqX07mTB5igzo21vHHABr6/bt8s+du1K/Xm0lZfq5Zw+d+CBDgqmR94VMeC4vXkiEiBHkzes3ypRnZT+sUrmitjd52gxp0bSxGk+oqJnMmNxgpsQ4V61RSwETq1L6Gn2wMiOJFIyFGLv2nbrImJHD1ahlzPiDMu8NGzxQ2yIZzbOnz9SoxIkbxxMgQF0LixyTYPx48WT8pMkKUDC4Pbt3lYOHDyuoLFSwoNSp1/BdLoPNW2XJonn6rjMp01dMmK1aNtdcC62aN9PEYfnz5lX6aMZOj5/7SNdOHRUEwHrIFle6tGlk0JBhShMOeKJv+w4YpMaGOc1KrIVRgEEPowbzIQm5mCdYGQKQoNrt0KmL0m1Dt3vp8mW5cOmytG3VUoaOGCVDBvbTfAx9f+6lK1mYNSdPnSZNGzdSUOXh7qFMfi+ev9CkPORM6Ny1h0wcP0b1gVfNqwcBN/v6DRsVGAIeSe7EWIYEK2PGDLJ+w28K1GHlw3sFQEBe8kYA5PFeWDz/I4cN0XfN9aWrzrHkTID2vF3rlro9AEtg3Lhx1WjhPYPVEspjy1uIBwH2R/oXME7uD5g7MabeAYL3PB48L6ADanJotUk0dvfuXU34Rv4LgBrt0i8AK4DmitWrpUnDd6tx5EMP165flwply8i8hYs+8iBYnhreLeYMdAFbI1TceIkwsuSESJE8mS5QqQ+2zShRo+ozFi1SSN9FwOaG3zbpHAfDJn0/bvSI9zTgmTQhGkyOAMiq1WvL8qWLND8DycmYE8jzsGTpcgWUJP2CmZL2Ro4eJ40a1NXcJnPmztexdOXqVU2qNmrMePVy4kGgjhzZs8rsufP1veO9RO4E8eP52YzYHCDMnj1bGjR411mnT5/WFxaPAoYbow5t7IkTJyRXrlxy5swZNfwUjCuGomrVqjq5M4E0a9ZMypUrpwlgMO7dunWTzJkz6yoqe/bssmzZMv27UKFCes+nAAKGkgkoQ4YMCkIAJjdu3JDvvvtOzp07J5UqVZL+/fsrSNm+fbt6I0aOHCnDhw9XIHPnzh2dGLiHugAKKJEJCu8EYAgX8q+//qqy8cyADjJ4BWUJKoDQpHkrBQhk3WOLgVUbE8iOnTtl9IhhUq9BY5k2dZIsX7HKk6vdAgj9+/wsIk6aHMZKBIQHoUypkkptvG//fnn46LFOHqxcMYi87AAE+Okx5qzOoATeAVd/5sySMGEC7Qa8DrxwuFeZgI4dO65ZE0HyTD4WQCApEHz3tMnKnkx/TN5MSmRw40XElUmfWx4EXlxWtTWqV9NVhOVBYNLmWlzz0aJE0ZWCBRB4ZnjnrRTEuCCXL1n0nsa3kGzbvlMnbMYuRv+dwZ6uq/Gz584rNfGzZ0/1/cIgWfuvCxchRxVN1MTqDWPISn7Dxs26+ocPnxU67bNSImcAmTdJHkNbkyZPlTatW6rHgomHLYaz58/Ld8lTSP9Bg5XalUQ8FcuXl54/99HcBBgAEiaR0RD9siXSu19/7W+S2vD/3PkLNakVxgXK4Jt/3dL3GhpcDAe01ZZbFr3zPsPhj1eAhED9+/6shpQcDPDOkyegWJEi0qtPXwUgyG7FhzCpkuODZ+d+vExQ1WL0CuYvIEOGD5fhQwYpNTKyWACBFSj0zgACklVBd4sHgz5t3KCehA0XTuLEfpcSmLqh6cVdDV8+AIHxwJjEOwO4GzVmnE7mffoNlL69e6pRAbBi4H/u0U0BwsB+fRXQQVc8ZOhwTZyF4WZcHDpyVAECic8iRYoszVq21gyhAJiGDeqJkzgpfTWle6/e6jH6ZekyHc+8X3jy8MRA+UuuBFay5FlAbgsgkESL1biV8wFAxxYh21lPnz1XowmQRg/QmZNZ8vyF85Ije3Z9XgwaY5FnmTd7hj6/BRBIckUCLnJZ4EnEo+cdIHTu1kPHNJTbvNOMUbyFjDWSJPGuA0ZohzHBe4hHi/TMeD9YuXsFCKPHjZfqVapo5kVW2p8CCIwP9Ox1i+HX9Rt03GK0SfxE4VmQGWDPe8zqv2jhgnL46DH5Gg/16dOabOrev//q714BAplh0Tc5TEi4VK5iFVm57BfdSmWs4ylksfH7teuSP3/eD2IkaBPPEfMOJFLQrUP9jL5ZeJEYDYCAd4i636UZr68yN2vZRkEKycEYQ74tNgcIrMpZ+eOSBRCkTp1a+vXrp9sB27ZtkyRJkihAwGDzQid9n2Bn4MCBauzr1avnCRCoh3s3bdokFSpUkGHDhnl6EKwHv3jxoly5ckXKlCnzSYDw/fffq3eAFT9Gny0PXg6Awq5duxQgACxKlCihMgNcpk6dqs9w8OBB9Rjg9SALH4CGrQ4mfiY3vBLt2rVTUaZNm6aeBApbFp/aD/NtZ/nn+qAACMgLfTCo2SmUkyZowbj9feeOPH3yRFeiTGhw2mPAcCHzkmAQSOLCqp2X44f06aTke1c+q7TrN/6QR48eKcLmJSbOgcmka+eOulJklUN2R/j+mZxImPTLkqXq+oR3nr1HACf5IXApQt0LsEiYIKHEjRdXs+7FixtXs9q1atFMVz7sWRYqkF8TreCSxEOQPHlyBYnQIyf6+iudtMjBzoqMRD5MoiPHjJXQzs7qoma1yQoOVy8Gixcc6mCMLEluSKVLBjq+Rx743kn7Sn1HjhyTDRs3KpAlxzsFFzLPw6TOSomthMuXr+gEjQHFwLGNg0sUI4HbcdPmzVKxQnnl42d1DJCgvWEjR8sP6dMrgMIg4bqnHDx4WH7bvFn7iJURIANAwUrulyXLNFshEzOZLjGWJLdhwmvetLFmuMRT06VTe/ll2XJd4XIfqzMSB5UsUVx++22T1KldU2UYOXqs6oz+oz9ZjVKu/X5dli1foatEnhdjTA6OooULaWKvnt276OSYPVs2Be6/LF0uiRMn8syWd/Lkadm0dasUK1JI5x/iQIgBse45cPCgAgzkq1SpguYIYIWmGUHjxlWvFGOXPiEzn+ZGCBdec3UwPnhunpMtHpJAEZeB8bL2w5kvcFGTmTJceILyXulCA0OdO3cuWffrBl1hA4BwG7O6v3b9hmTM8L26sUkWleH79JI6VSpdMRNjg2ynz5zTMUDWTsAR2wBNG79bjOEtYXynTp1KcuXIIXv379ekROfOn9fxSnplxiLji1W9FUCLt4U+2rl7j24LYOTwmJFbgT4mzwPjEl2jN8AoQOvixctSqmRxfb9Pnz0n+fPkkZw5s6ssrGTJeIqXhfiAzJky6ftz6swZ7UPeL8YXhSRqJGtirCZLnlQuXLikYJP8LXjgAFUEGpKXxQryY9WNR4NMiOSH2H/ggHqbKKRyx2NEum2MNx48vBuMKcYahfGAsacvePcZe+QRQUbGNkaS7Uv6lLaRARDFOOc9geGTxQzpzcnwyBYi8wReLDKekqGUOunXbNmy6jbj3HnzdcuFzKbE0xCvAJhesWqNZialT8hySWEbFaOPDGxbjZ84Sb8nzoL8C3iIkJH28MxUqVxJ5wO8hCSs491nEWG9076xIzYHCGwZsBKnMxG6RYsWMn/+fDX+7AvWqFFDV9nEIPTp00eNKf8OHTokyZIlUyOM14AJnd9Z3a9atUpd+FOmTJGMGTNq3e/yhP8jf//9t1SuXFm3BzDqgAgrMAaPQbp06fTaxYsXS/HixXXLgNV9gQIFFMAALIhVwJvA5GltZbRp00YNAMAGwwBAYIsEIMGECiI+e/as7tORBhiUu3//fn2RueZL0fC+6TC/XhtUAMGv8gbkfa3bdpAe3brIs+fPdG+T/V57KxiY1KlS+nkriv5lMmtYv56w+ilevJhO9MG18C4ykbJvjKEN6QWAhRcGj4cpRgMBpQGbAwQE5WVmZY/BbNKkicpuHSWzHgT3DSDAch3xN9/x2TLw1t/WMS/+t67jGqtOa7/f6720Y11rycQ9XEPhb++/W997rcdq0/v11nNwLe1bslt1BFSH+bWekAwQ6DM33L0i/sps5lfdB9Z96uL18NB9UyvbYWC1HRTt+PYoZFDIaNo0GnBkDQQKQLAU5P3spyMrztFkD8kAwdH6yshrNGA0YDRgDxoIVIBgDw8cUmUwACGk9rx5bqMBowGjAb9pwAAEv+nN4e4yAMHhuswIbDRgNGA0EKQaMAAhSNUfeI0bgBB4urZFS8S2wL3gXxppW8hm6jQaMBoInhowACF49utHTxVUAOHPP28qG93x4yf0qE2RQgUladIk/6l1DCL/OBLGMahqVSp99h7OCHOkC6ISjqJxJpo2OKLFd58rHIHkdEnF8mX1EhjrOKMNaQ4FtsV1v67XI2ycyeeY1z//3JWyFSrruXOLGhWCktVr1ioRDcGpkP9wXAw5YEBbsHCxlCtbWo85ogNkpYQJHVp69eguzs6hPisjpFIc74PVD4IWeAYCskD4AvfAipWr9eRD5C/knvBJuzw3RwMXLv5FSWusAGOL2wKyJO8FjoVdV57IjQeukitpFOhpNUIAACAASURBVPkubkQ5feuFnPjruXwTI5wU+C6ahHF2knvP3sjxm8/lp7QxxM3dQ2buvyvhw4SSwimjSaIY4Xwinuc1S47flxev3krS2OElf4qoMm7XHYkSzlliRwojRVNHl00XHunv5X+IJctOPpAnL90kanhnKZoquiSOGY50G3L67xdy/K8XkjhGWHn+yl3SJIgo38UN/0k5Rm7/Wxrnii/rzz2Umlnj+ErWL11MAO7Zs+c9j8TBWMo7R+EkF4yYHOP90hj7XP0vlGzpN6la+fPvnk8fBH4R+Ba8Frhj4ClJkSyZHgOGbdBr4egvZF6cEIMdMygKJ9QCMk+E9QzMWRyTtOimYT31SfkS/TZjAXkD8ki9BRDWrVunxy05AcipQs2r4+Liwrv7yWILpflEQeYav2kgKAACZDUQ40waP1a85lrA8EOuEzlyFGUcc3V9qUYTBkPOor/jrZ+h9LXVqlZRcpdQoZyk5E/FdaKAhe7kqTNSqWJ5NbJPnjyVgkWLy9GDe6VkmfJSuFAhKVa0kIwZN1FmTZ+iPADcX7pUSTl67IREixpFzl+8IC4urgoQIEFasGixniWGlMUCCJA8cfQQIFClRm1l7zt69JjSNg8e2F/P8lN+7ttfCZ2gNE35XQr5qXQ5feYBg4YoY+LM2XOVjhVqWwpEKrXrNZTNG9bp5zNnz8mRI0eVxIfTB5zjh94XwpSCRX/SOgoWyK9nnLNkyiQuL12U7wHWQojG9h04qEf+YsSIriyTGOW/bv2tHBTwSsDMBvFNwQL5FGzA2cHZ+zx5cku7jp2lSsUKSi6VM0d25VDgPL+yFsaPJ7//fl1JZnLnzOkJ7Og/2BLDhQ2r1wGQlCzszRsZMHCwEisxkcAbAVUs9Licc4cxEICwa88eefPaTUloAFSv3Txk26XHUiJdDNXH/t+fyr8v3KTc9zHF9Y27rDz1QI3qgiP35LHLW2ldIIG8cnOXk7deSI5vo8joHbelQ6GE8tT1rVy84yLZk0SRHVeeSNoEEWXzxcfybcywki95tA9enPG7bkubAglly8XHkiNJFKk3/6qsbJxKnJxElp64LzmTRFFwYpXOq/+QEeW/9fx88R8XeeL6VtunrDn9UMKHcZJ/n7tJjayx9STJypMPJFp4ZymSOrqM8gIQamSJI7+efSixIoWW3Mmiysbzj+TZ67eSMGpY/Xzutosc/fO5RAgTSqplji2bLzyS1+4eUipdDLlx31V2XX0qhVJGkySx3oGRocNHSeuWzTyPUv9z954mDKP/IHXKlSObPHv2Qs/D804CjAHq5EaAyQ9OAMYNHCOMP8Ya/cKxdMiDYCyEMpqz/XADUOAdcH31+n/tXQeYFMXWPZM278LukpMgQYKSJQiCZFFERRAFRAyYBR/qAyOiqIAiiCIY/qdPH2YfIgoKKEgQRYISFskZFhZYYPOE7v871VuzNU13z4C+TH/ffrPT013hVt17T92qOiV2p/Fd9gkyPtaqURNt2rQOy4m8HOTiIEcA+RRIC04WzaFDBgtOjsXfL8N999wJn9eH3BO5Qo/IZXF136vEe9WqVsVNw27FkMGDcMP1A0TfJFcImUl50VZwvz/zJ1fK1q3bcPJUHo7kHBH6QWI2cgyQO2TP3r2CA4UkXbcOG4ol3y/DpR0vEfahXt26gsqabIr7DxwQNO7kwxj3zLNCx8hjQe4Q8kv0u/bq8G4owdky6wNc1rmz4DQghTa35y9ZslScwUJZd2jfTjCPEoz//fMvBG38bXfcLWRAPhfaQG5PJQ8KdZ+cGJRvRnoGCgoLUFxUJDh1CL6//XaxYDtt2by54HbYuWsX5n+9QBA9Uc+WL/8Bdwy/LczxcHbeouwtCRDYF8gP9NJLLwkKd17nAMLvle6/0fv/CoBAYh0S7ZC2d+orrwqiIo7oFy/+XtDWUpF5+tjs2XPEiJxELzffNFhIjSRKdN6klKWDJbf/hAkv4JExDwvDQcdtRBYGCCNxw6Cb8Obrr2HiC5MF9z6JWUqKSwTNL4l3gsGAYBvzen2CM59UxCQ/Yh5fzJ0ruOU58iIiJkCgwWnX8TJ8OOtdnF+ntiDnoWPlWRE0YPfefZcgl+HOHLIeTp38gqDq5fNX9L1WMO99+eU8/O3dvwjmPDuAQArv0Y8+YbDa/eUdNGt2EXJyjuHmoYNFuXv27oO/f/yhOOeAbHg8t+LRx58Ez4i4d8QDgmqZbHkkViFd8itTJwv5TZn6Cu684zZh8F9/8y+ChfHTz/6Obt3IyvitIEsiuLr/gQfFO3QkPKiIZz6QuOX7pUsFmRDL/sRjY0T9SUwltyOTMIZkQkyfYI9kR6SdHf3o43j5pRcx/vmJuPuO4cIZkMmRz5GRkERLZKYj0yDJdWhsORqftPAA3G7gvs5V8em6Y+jfIgOJPuNkOjrnSdfWxrQlh9Cudgq8bhcurJaE15ZmIz3JK7av3tyuEkKajrs/3IGZN9bD2C/3IiXBg4EtK6BSqg9JcZFRmvFf70Ob2qlYuu0UnrqiJnpNzxIO++LzUnBb+8p4at4+EZm4umlGuAwqQJixLBu3X1JZRDYkQEiJd4sowrs/5WB0j+oo9IcEQCFQmbvxeDiCcDgvgGubZmDLkSJkJPkwc3k2Xrn+fHy0JkdEKL7YkIvBF1fA+Pn7xWfFVJ5O6sKmg4VYf7AA93SqAo/LJaInvFavWUdXGSaWUgHCY088JVhICaoZ2eH5GS9MfA4zX38TQ4cMwpRpr4rzH8jpQkdIit99+/aJw7cIvMnymJaaKsAvR6ZyYCgYGnsZpGY5R3Mwb/4C3HH7LYJwiDpNMiSCEZ7TQcIlkkDdPHSI0IkbbxwoGDrZBwkw6OgOHDiE7Tu2C8In6h5pzXOOHsP1/fsJuvbXXn0Zz5JF8IERmP/NN+jVo4c4d4EXydLoKOlMeW4BSa3oqHmuyktTX8GjYx4WDp0kXn37XIE5c78SNNPst8YgpD/WriPjbXP0HzhIMJiyzuzrJIG6sndv4ZxLiosFyJ89Z244GjJu/PN46E8jBADngVmsLym6JYigDEiGRkItHnZGBk7aDQ4QyDRJAiTW8eNPZwuWyEXffSdsGsmoSEXPKMu2bdtxzdV9RftNfHGyIEwidTYHDvLkynfem4We3bth585dgmnzj9rmrE4xmLcVnwMI/0YO/vcW5V8BEIjYt27bIehIefGAk8/nzBWGhix+dOzkN3/9jf9Dt25doGua4BnnRUPDcDfPspBTDHQ65KYnMxlHxVRijnx5kat/75594lAcMvyR33zcU48LRzn6zw8JFM5T4+rXqydGV/fde5dA9wQIPLhm4vPjBf3yli3bBEBg2Xpe0RfPPj1WTC08+dQzYgTNEfi27dsEmx4vOsDRjz4mwvQMG675aYU4aIkUuuR1Z/2G3XaHLUBgXV5+dQZuGTpElIVMbu9/+LGYspg393Nc1v1yfLdgHpYsXRYGCGSGmz5tCrr2uByffvS+SJ+o/qFRI9G8mSE/Mtr9vGaNoKJdvmKlMCZUcMqLrIGMmrCOd983EjNefVk4dBoxUklzdMVyNbzgAgEYSEv82sw3xSiKoeqff14DX5wX2dlHUKVKJaxZ+4tIn6OMh3g+wMsvibM0GJrmFAkjP3KKoU7t2oJpLiM9XTAQyjM2WGZOIXyy7iiql4tH0+pJIvzPa8LCA+hUNw3zNuWievk4bDpUiMn9amPhbyfRqlYyqqTGiZE/r2XbT6FOZjyy8wJoUiUJa/bli2mJkV0iSaNeWHQAVzZJx+z1xzGmR3UMeGtLOILAdDQdWL03H6eKQujesJwAKSpAmP3rMfRsVB7JcQaIYQSB4KBKmg/PfbMfjSononaFBGw9XIQO56diXlZuGCCs2pMvgEu8z4XzMhIEmJk+8HzMWX8MF1VLxtyNuaiU4hNgJSu7EFXT4uD1uFA1zQeP24UfduYhtzCIYe0qibzZb3leBSmeeakA4YXJU4VT3bBxg3C8zzw7EWOfeFQ4nsaNGgpqcbJefvHlPHFoFh0LIwtsGwkQxjz8oDggiOyC7CN0nLPnfBFxrgJB54N/ekCwnJKlkVNqjBqQYpiRB47aSZv8/bJlaNmihYhyMeLF6TtOMTDitXPXTnGmhKbp4vA02ixOLcrzXO6+b4TQfzpd2g/Sm69fvxFFxUWin3NkvXPnbuG8pQyYD/XA7XIL4OLxeoU+M7LBui5c9K0gTiOHCEf5D/35EbymnKJK0jFGHkmFLPstKcepI9SfW26/UzAa8uCuJk0aC+pkslaOHzcWT4wdJ6bZ3nv/fYwaORKff/GFsBvqaY6cjiTdNKMcjEhe3Lq1AM+8yBApKJLTy4v2JX0yI53UR9ouRlw/+vgTEZFgFIFMmZQ/I4V/1OW4BiEnJ8d2ioHCVQ8gUkmGWDjz97MpsFMa0dK3+j2Wd1jO33OwUqxlliOxM5VLLHWwKj8NNO+rx60KQ1hKFGVVDnm+gZNMnMpDdEuQQNpUSW7F0T87PHntyTLJi5S3DP2p5aNx0qGLMB+dDA/LoZJynpIGkd+p1BIp05iQ5piOj2csEHUPGHCdCJFv37FDjDLpHBlC50W6WoIQjqJpnDgFQWXgFAYNGi+G7Tf/9puYy2WaXKtAqlueOMhIAuvEECydHU+y4/xvl86dRYSia5fLxHkQvL5ZuEichijZNDlPOP+bheK8Axpqgpv2bduKtpGEX+Si5yFTpCtmXjwzgfPJPEiHZWIYmO+R256hT9L7qpc8B4CRGIb7Ja0sn+EpgDwHgm3PMCtHHJStlAk/uVaCoVzmxTMtmA6/s3w7du4SVMdZm7JEGPtIzlFx8hwNN8+MIB/8yp9WoVWL5iIdHqHL3+hgSP3L+pPlkWVkH6NDoKHh34YDBQIYMMzOcPue48WI97qxP9cvogYcNf+8Jw+taqXicJ5fOE/14pQEHXurWilwuyDe3XCwEPUrJqAkqCMtwS362br9+WhRI0WsdWC687NOCMDAUhQHdCTGuXG0IAh/UEO1cnECeHSsa4wqeRX4Q1h/oBBta6eIyMXe435kJHuRHOcGAQAvloGj/joV4rH7WInIh+ssGDGpkOJDZrJPHLK1bEceujYohx1Hi1Eh2Yvdx0vQtHqy6LMni0Io9AdRtVy8WHdBWbEIK3floXH5oDjpMOdIjpAjDyETZSssFMIk3fjqtetEOzC8zSgEp4Pat2tDIyeAMh00mSh5ABPfKV++XJicjrpCoMj+QGfMPkLnyovTEgSz7EPUCZ7RwD5AqmTqN3Wb+sHDnzjtRh3nlNZPP63CpR07iP7A9UU8B6V8uTTk5RcI+nVSP7OOPE2S+fNdTn0wmsX82f8TEuJFP2Rb7Nq9R0xLElyQqv3kqZOCkpq6zPrKZxlBYQifI2zSQxM0E8DTtrAerB/Lqx4zz+/8/bxatUR5GYFk1IL2hOCZ+RMMERjIfkH7RnuQVi4Ny5YtF1MVLD+nIAiyLm7dUsiM51JQT6hXlBtlyOkQ2h6Z1q+/rkdySoqwI5xeJADcvPk3Mb3CdiOgI409mX1JW9244QVi+pIg3OpSbXWs/of1pp5KHyDtuPh+4sSJMEAwJygrob4gCxVr5molnNLjc06OyKpsslx279mVUWVvjFa33yOTWGRk94ysUzSwYJavWh/+L9kg7dpNzd/qeav3nOQaTZ5O5bXs8cpNVRZnqgiyzFbyjKWdrMrm1Celssl+bX7/bPI8pz+nt8I5/bEd350mrHP6YwA/Kxt1zv9EdhfZV1wnT57U7QRmhSjMvc6u00UzqGZDHc34RXMeVo7Hzrk6OUIrwy6NkPnTTj4yff4uaZnVjqnW1ezAz6SeZ/NstLo7pRnNGNu1ubnuLIMKgFSZx1qnaM45Wjpn46DPBlxEy+e/RX9YD7WvW7W5lR7Jtpc6Id9TqdfNtuGc/pzTH6nf/y36Y/ZfsejPP8P/hAFCNEMW6whIgg31HAMzADEbWivDG6sji2U0a/WM2SBZAQz1PTuHZPWMWnYZrYjVCTpFDuxkYlc/ObWg1vVsAIB8JxqIc+pDsbSn1fuy75jby85p2IEUedaGlRNT03ZqZ1VpVZmYwU40cGKn2Gr6/2n6Q7nKxW12/Y1yKiopREj3w+3yIN6bKBaUcm6Zi7qk7M/pz+k96Ez0h1ONPK6Y8mQIn7wadvoj+5yTjZA2zGowYzXQU+29CgrP6U9Zu/6n+B9Xbm6uiFGxwNFAgqrAsoJ2DtDOaanGNJYRmZ3BVg20+YAnO4cWqwNTnZLawdWRr6pYVjKIJkt1pGQGUDI9O6V1kq3Z+URrByullWk4ydWqzKp81HxVGaoHZ5nz5vtyzlquOzAbG7PptOpDdg7aDDbUtPk/5+LkvKdTGlbK/b+sP5Qd24tOya69eH/2d+/ih+z3EXT54dLdqOith/uvfBFxvrjwOhnVrpj7mFXbWzmt/1X9oXz279uGtUuvQErlCahQqQ62rhuKirUeR+cuNwjx2dmlP8Km2NkStd2sBofn/I8x7SH78r+T/4lYgyAbUm1E9f9YOxe3iO3cuRNdu3bF6tWrxbHIHF3wfHSuBOcxz926dQPPULfKU3YYJ8R5NqM0c11k+ub6qvlLg6We4Kg2oJ0Rk+85Of9oSmmuo12aTrKwc6DmepllY54aUfOW4V8JCFQjbQZUatmcys/8uIhILppUgaRdmmYAZX7HbJisgKO5TAQoXKlvflYFgfKEUDsA93v1x8qgRnN65nZ26n9RHS9Xyft1rMnzA+4Q6iW40SAxAa7S01fN+sm2Y7uZAYLQr6NHEMzagIMFJzEtdwZcbheqZ9RFXlEujhdko27iJRje+8mw87JqI3MfstJF9b1oOnm8IIByiV6xwDHaZaU/rpJi+JbMA7QQENIQaNsZWoXK4VG6ua3M/cFOfxYe8qNFhg8V4q0Ha5FtqsNfdIiTmBFV2LblF7SsdRNe+WAYMis1Qd/2o7Hg57tx5bXjbasaza479T27d81g/B+tP9yebEW0JGX/z9Qfu74Yzf+wX7///vuCpOizzz7DzTcbu5Jef/11ASB4SvJbb70l/GqjRo1Ef5s3bx66d+8uInCffPIJBgwYgO3bt+PXX39F//79T1tvocohFv8jphhiQX7m3uU9+CV0tw+hKj3FSlLV0bOArCyBwfr167GXq9wvuAC7d+9GzZo1BckE90nLUaKTU7EzluYOyOfM4eNoyu/0u13Ht3LaTgbXqmNGc9rRDLhVudXyRnPS0rGbHZxVnaMBxB0lHkw5lIBAIIRgQEMwEELrpAC+2V/23aPpmN07CUlea4vMPAggzVEDtXxOIw8reUa7ZwUm1HtcIc38reSqpp2SkiKag31PylUyRHL3gnlHiVXb7d5yAllrjuD4KR0hXzxSMlNRu24KWjSJEzsvzA5SLSd/Y+Rj2849xhYBsS/E+FR1slaN6khJTrKsk3yO5c4JuDFxj461BUUIuAqguYoR5yvEBWkncXfF6mgeF7mVUNoOcwRBP3wIBdMmIrh+HfRgEMtraPjusnikJ1dGg2qtsfngKpwszEGyNwOPX/U3uN3GVsJwmQMnkb/i2nA9vJntkXjheMAVeWS7WTZOtoxbLEfP2YMFWbmok+7FmF410Kepwd4Xk/4ESxD/zV/gXbka3jU/Af4SIBBAqGYdBC/thZJbRkKPT4yshwlUWek2dy6M+XYP3t5wDI3bXIzO6SGMqgdkJhhH1VtFSfz565Cadz1csrV1YxS6eU9lNG6UhRl/a46K5TT07rYJ36xyBgjm+ssKOMmEeVlNg5ltTzT9cRo0nIn95qCzaVOD4EmyDFqCO5fLcv2TWaes8lbBxj/C/1CP6eQ7deqEjz76CLfeeqsACATezz//vABAd911FxYtWoSrr75a/Pb444+jTZs2uO666zBq1Cg8/fTTmDt3rmBEvPfee0W/jjatqra3WX8sIwhm4Vg5DveRhXDvmwWt2nXQql4VoWSnTp0CaRuvv/56vPPOO6KQw4cPF88sW7YMJI658sorIY1rLB3BXAan707O3Q5BxQoIrJTHXH6pPKqBjjV9O/BwNjIyG0/VODmBlFiURaa9odCNp3YbACHgN/4uKxfEnF0BARYM0KDhxwGpKBdvkL6ospBz1yrph9moyLwOHz4solAXXnihJbiUndtsdNTvZlCkysRs3CRIkGW2cj7swxIcSGDANPk/54LVuXWrNtz1Wy4WfLAZQZcPekIS9IRE6PH8TELjhono3o7zx2VvWhlU7ge/TYuD5tcQLAkh5NcQEp86giUatJIgJqYeQZdL2oYTstKf/CDw4DYvthUUwR86BS2+CLorBJ+nCBmp+1Cz3F6MTuuFaqgWATRYX0YQWFcho+JinLh7KLQDe8V2P14rqmtY3D1RAIRaFRphy6HVKAoUIMWbgceueg8ul7GlLSxj/1HkftdVuD9GLlIzKiOlfBVADwB6CNCD0LUgQuV7IFTzgXC9rPo16ZRnrjiMyYsOCDDl0kJwhYJwayH0bJyOMX3qoWH1NMcpVpbN+9OnSHpvJHDzG8CJYuDCVkDWr4A3Dnh6BEouH4CSh587zQE56W5hIIQxi/bg3fXHxGP127YTnxObaOhakdsdDYdmBuolp35AWv5N4lnNXR2eio/BE98A69d+ikY1xhsAoXwIvbtmxQQQ7GxFNFsabXBkdqRWz2/dulWQAakXnWLjxo1Psxd2svzpp5/EtscTJ06gX79+tjvirPSHesoy0AZxIGtFQMT32Heo1+znWVlZ4fKpNo2DAv7Z+bZo/ocRgQ4dOuDjjz8WAIH57dixA0uWLBED7XHjxuHrr79G37598dtvvwmwQEDAv+XLlwv7SOBAcjeyIkp9ys4rwLTla7B8934keD24omFd3NWuORJK+RikXM36E7GLwcpoqEYxwnAf+AA48KGRbou3ofsMNjJezzzzjAhvVKtWDStXrsSePXtw5513it+I9Fq3bh2msZTvqMZZRTyxOlarjhPN2dqhW6sV1OZyqt/PZPrBCoVapWWlsCrwiObE/yhkrpZNGCNNi1jwtL7Ajce3+wQwICAI+DV0TQ9h9g6/OHgoSKfFfeuDy6NcnOEAVLmzHuQOUB23eXTP70uXLhWK0aJFC6xYsQLPPfeceI+/ES1TKchKaNWmah1oDOR0RrQ8OdUg10xIPeA7x44dw7Kl34v69ezVS5TBAAkc7XkE8RO/06CoYXdz2UqKg3h7/I+IT0tEherp0L3xCPnisHVPACFfIjwJCRjUJw41q3jCoUJLgJB9GDcVxZUBgxICBA0hfwihYgMoTK5wGN06Gs7H7np3nxuTl+zGiewj8MT5EJesIa1RKpLSi5CZvBMVy21BkyQX7o97OKIdpdGk4aQspv44E32efRflOEPRdzA2dRyG44X7sWzn/XB5NXjdcSgJ0iG40SC5E27t9UjEHCwTd2v5SD08VgABaEFA95d+GuBA/gWS2qKw6uhwecz980hBEP1nrMV5aWRj1OEiJ4iuwaVrxhSBFsLx3FMYOag9utU3OAZkH5VtLu/FLZqJxOO7gL4PAwtmAv2fBKY9C/TuD2xai8CCOSic+r6leGW7bcv147IvczC+dRr6npeA++Zux7wdJ0QMdljzSlgWX1+8P/FCDd0qWW9hZFoqQPDU+Awubw0BnrK2ZqN+2mUGQEgP4fIuBkDo0298WDfM+ifLFs1mnI0tpnMjhTABpJU9ZrR57dq1OP/88wV3Bqf4ONXIQSanoNu2bRvR91XAoYKNBQsWCKfN6PRVVxkDVrUt7YDKDz/8gDVr1qBVq1YibwKNnj17hqMR0qGzPAz1d+zYUciRek2GyCFDhoTzIciZOHGi0PsqVQzKdX4y7G91WdkqAgH6RwKFSy+9VNA0095wqv7yyy8XAIDnvbC8BAc9evQQ4IYkapxm4XOMLtBWDho0SGSr6TqGfTQPW3KOo0GlTHHvt8NHcd1FDTC6S7tw/F8FL2HZyW2O0vnEMsqkcmprb4ReclhML3iavASUM4hnol1Wnczccay+M12nLYHRwEC0ckmj4LQwTzoLJ8di1SnNeduVVbaBmk8sSukk0zP9zS4/c52lvH455cKY39wCBMgIQvdMzQAIvFcaRfhlaAbKJxjhYfWiU5FO1MpAyXucf6OC8qKSbNy4USgHwcHUqVOF4vI7V8QTvRMwUFEZbpSHsfA3onAqe/PmzU878EStI/OhweC75rovWPAN3nh9pshjwsQXDCXUQoL8hW3HUCc/+T4JjOyuo4cKMOvldeh5YxO061RGfPLqzJ0YNrQWnpl6CK2aJaJXR2NkLmVuluGhQ9m44agbml8XwCBYEhRgQSvWECRIKNEw7bxj6NHpEsc94DfOOYylu4vhSUoCBxa3NvSgnC+AOXFbUT51B9KTd6JaUjHGpRp1lpcZIFw3bwQ6Ld6MYQnN8Wyz57FiW1BMFdRPmI2qld5GMfxww4PqSc1wZ6/x8HpOdx5u7RRSD44ORwsMkKCCA+N/f3I7FFV7XBTFSn+y8nTcv6YEY88rQPsaaeHV/UabaTiUX4SpOXGol+LD8Ipl8/lWQN638kMkLXkTGLcU2PIDUKcFsHgBcHk/4E9D4E9MRvGT0yxlLPtQnl9Du8+ysb8ghIRAEYqPHUWy14V3+jVAj/oZaL3QiLJNbKYLgGAHeP15K0UEgerkq/MDtJLtKDn0GI56X8byhf2RWa4mKpYPYP0OP6rVHY32HThdc3ofUmVmtZZIlavV6N/J7tL5b9myRTg4OlJ1SkKWZdOmTWLETTDACCF1imRHnHLkOjbOrztd0UCN+V1VnqSe5uB1//794UFGw4YNhX2gLZFOnusCqMsc9BKIEMBwnR3LySi5lNFDDz2E+fPnC8fM0D8vjvhvu+02QcQW7ZIO2mnhrbQBMi3zYMqqjX85eATDP/06nP24Ky7DuPnfC+Aw77YBqJhsTItZOoIarwAAEqdJREFU+h8SJUmh2TkHs7Lou2dB2/ZqeOmBu/GjcFUrQ20yHbXzWOVhhVhUIVqVx+meWZms5l5U4TuN5tWGsButW9VTClqtrzktq0a0u6fmwWeiER/JvFhmK/mbO6naKdQy2/UF80rb7BJgQY4LoZAOLahBC+mom6Ij61hI2HPhKDUd9zRPQIL39BMN6UDVtShW5eM9zr3NnDlT/EylpvHhQlcqLhVThhUJOIika9euLfjmOT/33XffCUdPx82oAEcN/D527NjTVt2bjaDB1mZc0hh9/fV8zHhtuoggTJg4qTQEbJxMGQppaNasWTgszPrZ9bONa4/iy/e346ohjXBJ51rhfN55by8G31ATo5/ejYYXJGDgVcbaAXM/lPqTffgw+u8mODAiNmFgIKYajL/XGh5Hj84dLMPoMu1esw7jl6MaPF4XMnf9iHUT+8LrcePurfNwRNuEtMT9qJHiwjOZU8MGRb7LNpTTKZfPvh3HC3MxQ78S9+29AUHNMBUp8S4s6jMS3vwV0JMvhN74I5GOuig0bKi0U0g7MCoSIIAdyphi0PUA9FAAgZRLUFyz7PRIc78lQLh1dUDkc567GK82AyqWTxPgcc4RP94pSBOGsm85DXdWNsCrnf1yHdiM1LHtgXbXAfe8A9x0IfDcl8C8T4GpTyH/vUUIXmiw5Dnpz5F8Py56bx+K4EGCW8eGwdVRMcmg3m31taEjk1po6F6lbMrF7IgDeSuRWjrF4Kn6JjxpfeByeUR0JP+3pvC5joh08itsgNeXGDEXbWe3zDZItc9m2yqftVr3xbLydEbqH0e6DHcT3D/44IMR8uUXAn3qCEfFdLgclWdnZ6NJkyYiIkCAEM1Om23GmfgfRgwY6R49erSQ0ZQpU0R/pEOXtu7NN98UTp7fV61aJQYotAs816JzZ+PQK5aR0+gEHY899piIQlA2XBPA9LiGwDwIj1YvFfw4+T27Aba8v3Dbbjw6f6kQU/s6NVAcCGLd/mzx/bOh16BW+bJTJs35iDUIdgBB3A8UAu44gIuIig5DW/c89CMrOb4KN7ar01/hSjfmi1RDanZSUvn5aUaTVmF6q4ZX01B/jwYOzM9GS8cuPStFsULWqqFR/7czHLGUz5y3zDfWNOXzTh0zWlrmd9ce03DPsiIEShco0kH1qROHv29heF6HXjqqXnd7JaQnnA4Q1AiC2UDJ78zznnvuEYrWvn17cNQxadIkgeQ54qBzeuONN4RR4toWGhqCgqpVqwqAwIjCE088IaYlqMA0WAx9Dhw40HHemX2SQELuWpB9dt68rzB9+qsIBIKYNImjaW7PNAACpxmaNm0WXlzGMlrpBe8dPVyE6RM2od/Q+uh4WRlAmDZtK4YPr4uHn9yBls3jcV2fyN0+Zv3hwVV9N5aUTjFIUGBEDoKMKviDeKtlHnp2MXj8rfor273PBzlYedAPT6AIyTvWYs2UvkhJ9GHAhulwuQ+iYlI+xtQYgboJDSLSYXoMIcsdKH3/fhf2FWSjW5XW8Jz6MxZsMqivh3dOxH3lewDFe6Fn9IJef7q4bwYIQl9CJ5C2737oehABfwBayJhW4LoDXfPD6wrA7QogmNoJJbUnRZgK1bBmndJxy89+AVzZH+Oh4aqKxdiZnolDQa9oN/bZazJ03FvTfluD0ItQCKmPtYC7RiPgigeAj2cCra8BNq6F/ulfcWrxdrh8kVs9zTYsJ9+PTjPX4FB+EOWrVMUJzYdErwtTO2ViYMNktPzKKMMLLXV0r2bP/KcCBE33wZXSD67EZgid+BCe4PpwtvkVNsLrM/qgqttmpyJBjTlKajU4UoGDqqNS7rxHJ8oRuEyX0TtJzayWg7rMPBhKV9uNzpeL2rli305/7PJW07Fynmb9OXDggAAqnKLkInraD/ViBITz/aR6Z7ST0Q6CHwIYggEpW4b3OV3CaAn1nuV45JFHhN1RZaOWjxHNWrVqibV53OHHdRcG5fMJsYaJZeKAqE6dOiI/2jKWpVevXsIO8iKY4q4HDphYRkZtCFCknAv8AfR882NUTkvBqC7t8MPOffjs181IjY/D17cPgJcnqClXBDCJxqSIkzsR+mIA4EsEAgVcMVSWFBcVub3w9F8C3WuMcngxZMOFiAwTcTTHgkdrZPV32ahW6PT3pKMCIaZjdrB2QMms5LE4arMSnYbM1AVZDvuTVcWOlqbZCNiVW6ajKor53Vhl8XNOCMO+LRBrD8R0gj+E/g0S8NHm4lKjTMepY+s9VZCZVDaXrpZNnl9gNULmPSoYw3tUFk4pcE5TRh3owLlThn2tQYMGYj6OwIDPsf9wTpKOiwaKIUv+xhGLHAGoiqv2Cf5vXoMgy/zll3PxyrRpQpE7XnqpSE8CBOY5ZswY8aiMjpgdssyzqDCI8Y+sR1J6HKrXSoOuGyOR9RuLkJgA+JGE4bdm4IL6SY76w0WKAz//BSFGcAIaQoHST38IWlBHKBDCtKtqoEvH9o7pvLDiFJ5fkQdPoAAJezaiVmYi3h3RAWmZOoq1YiQiARUSykUuJizVI7lIkeWftOotzMqaC4/LjSvOvxxtMgYBrhJU9z+PNiWfifMB9HpToFe8TpSHhtDc9u7QSaTuGY5Nuem4Y+sdKPK7oAWCCAUC0AMB1PAexEetX0R8hUtRcv7LtkCPAOGmlcXQCRBK/xjR8sW5kV45kZsiBIjqXwkYUdc4e8YJ8Md/9hTi508B2vQDRn0MTHkKmP4sgm06ofCNL2xtihT8ntwidJq+GhOurI8rGlfCQ98fwydbjHMdBjRIwWq/cTjTC611dK9qvbuCv8sphh9/CSD7iIaKmS6kpriRWd6FYMjYYFG/jgf5FTfC6y0DqWZ7YlfXaHbWzj5YAQ+nPBgBXLduXbhPqfK/6KKLhA7Z6Y/M6+GHHxahfjpXOmROOdqtI1Odn2qDCBJoQ7i7zs7/0M7QBtH2yLV0chqCaRE00IET2MjBMW0V05RASZUP+/3kyZPB8nNw89VXX4mFidzBQKdPR0/wwPRYv1mzZqFLly7CpzLKQhtGwMJdDywT1y9wzQZBB8vJKIis72cbtmLi4h/De5t4VPlfb7gSDSsaYMiu3592FoPZSFKZtbUzoP88Q4SvjBUNLuPTGw9P37eBisb2Enl98MEHuPHGG8XXzz//XMz3EoXREXDER3TJMCxHc5dccomoXLSOqqZv1QntIhBOCh9RaJsvsTrKWNI6k2f+iHLL9RRqm9opiFUnUeVs9R7vrTwUwM0L8iN2MQxsnISPsowFfiKKoOvYdm8VZCSWbWWT9eMz6hZHs2Hid4JNhgHlpZbLaoQj62JXbzNQVNNV24iRBnPfZH5fzp2LqVOniEN4QuKgEw3BENcgGOsOaPCsLrMM8/KCGPvIJpSEfAjpRPFcyW+8yc8WLRJx660MdTofLibrw7KdOJmHzdt24HDOUXRo2woV0sufttXSTn8KAkCf949gfXYxknasEQv5XHoITaqlIjnOBV0L4W9jLkdivBEOV+UmtznyXknIjwGzR2JH7h5hK5hfvFvH8gvWI9UTgp7eE3rD/wNcxtoKuXA0YpQVykXarlvw4tbOeHbXddAP7YUW5LRVCBpcCCSUQ1bXO1CtxsUI1J9xmrilTDae0DBkeVEYHIh1IqVAgeVKSvEhIcWHgdXdGNUwcq2Hlf54Dm5G8qQr4Co4AVTtAsxfBt3rQ+GLf0WoY88IOxaL/nAXwxPLjuOtX/NEJKp27bqiLpPb6uhW1d5iBPJ+RGr+EMz/3o8qFdxYuS4A44wyHfmFwF03JqBiphvmCIKqE7HYI3MdVDttN1BS0zXbsWjpOZXPznaNHDlSRBqkI+ahVVyoZ2Uv7PTyX+V/6PQHDx4spkwZEWC5uSCbTn/OnDnic+HChejdu7fwnVxTRZ9av359ode0nRwEMWLKe4xCcJ0Ep1zNW6y3H83Fz/uzEedxo0vdWshIitySa9VuEVMM8gGrRsW2+dDW/Q2uUwegu71wVWoEd8dR0MvXiQifMI0PP/wQN9xwg1AWVpIokAXn4g+O+IhwuCKT94lyrIy87AxOUQTDkEYifjk6tlvQqDoHpwWJVh3GFmWZyqDWR0WO5s4Za3pWDcc8Yj3HwSwTs4OIxVBIxTXn+WN2EIO+Olm6QNFYqDi4aTI+zCoKgwMa5B0jqkYABDVPtgM7vrlDm8GZ6kBk+1i1v9kwqM+aDZBqdNS0CA7U8qgy++abrzFhwgQBBiQIMj4NsEMFV/uP2lZqHtu25GPGa3tRuWoCgiENBw8GwEX26ek+tGqVhGuu4dG8kTs/rOqrjnhWrV6DYCBoHOTHOe0WzUW40+4yp5dTqGH4F8ewYvtxxB3YAk9JITzQ0KZeJiYP74CalYwT/NQ+RTlwqkhuc2ReRwtzMWbxi1h1YD0CIT+er7EL/SoUQcvsC9SdAHiMUz6ZFhepqXrOex4tD0l7RmDm9jZ4dX8fET0I/wUD4v/vLh2DKjXaIFjn2YjqqXXak69h1Cpluiskp72MTx5iRwB2Q5Nk3Fy/DCCYdU61Fa4Th5H01u3wfr8CobSmKHpqOkL1m0RVIyudZVkZ0XhsyVG8+cspNKpXB52r6hjdzI200l0/VjYwULAeKSf7GxHd0qBuXgHrBKSlGn0mqKfDX3k5PNyGqVx2OhPN1jr1Iav1XmZ9Vb9HK08s+iP7D+f5uZ7olVdeEfrHkf60adMs6+ykP2bwwwSiyeT3+h8ugCQo4JQpo6SMQHA9BsGOBAh0+Bxgcx0Wn2NEntMgixcvFj6U4IjESIygcqqCa624BovP/F7/EwYIZsNpN8qwa2S1NRje5TYLEjswBMKCcysJEQ7nepg255IlcHDqLE5a54RgpQGzEpBV3cyAwIxW1fRUICXn7KIBEvM7dnI0O7NYZCPrYwc4rGQo8zcrgNkpq85WZYCT90+W6PhqZ7EwTGJkpuuon+nD9uNcGGYcN0sLNuiiZHgV0h9zG7AcdGQciVrlw/ys2sQOKNg9r8pCLYNMh+XgdiUrgiNz/qrc/0j9kWk5AcCzAZfmfuCkP8eKNHy1rQjuYAk61EpCnQplIMPcdvwu1yBEyB06cotO4ad9q9A7sxh6ene43KcTCTGC4OR8zIbbyWj/0/SH8Z5fvkfwog5wecoiKmeqP2pbL9wbROtKHpSPj6TetZKNAFYleUK9Sk91Ln3MAG/UOY8nTixQjEW2VvZNtqWVjTD3d7N9s1uJr773R+kP5/1btmwpItL0MdwNQZK+f6X+nK3/4TQD11GptoYAmusOOOWi+g2ZB2X6j/I/pxElWRketdPbdYxojswOuVm9F+sI185gWzlMszOw68BmoGBXL3Pedkos620ejdqNJuzyPxOZyDSs3rFzLE7p2zkSqzaV/UMFIKrTMMtTBSA0RJz3NzsbJxBgBQSi9UWr3zkKZgiPoJVtZa6zk3ONlt9/u/6IEb9yFoNs+0DpGfPmPsFFUaqhY5tb9T95T+qKPLNe6m4sO3rU/mUHyu3a75+lP6wX66IC4+j6o0Pnwk0JC0q3D0f0W483zFCp1sUcrYlFLmYZRURUHCKoTrpvZevO+R/747utbJKTvzLrj9pXYvU/0dcg2OLPsh/snI7sHGpB1c4YbfTH39WOreZjd9/KINg5PzOCNSubWn4VIZvLfSajOdkwVnk5gRG1IzgZ0xiaK+z8zCAnlg5o17GsIimxGli1HVRw4+T87UCLuZ2iAVOz81blp9Y1FoAWC2i0ap//dP1hnejk5GJTfv9570GMmL2glElR8CGKqjOINOuma1A7vWyxI6ceGWl0AmFclEW2ODrR22+//TTH6PSuWb7/TvpDIjlGVSk7rtuy2oZtZRd2Ln8bG+c8aTBNlhJSq3sweL9W+2Fods04yzVeZ6s/TnI2/3ZOf8p2oViBsP8E/xMGCKqhVB06G93KKdh1lGgGOZoDM5cjludlGZ2etVKIWIy+6nCs8nEy7lagIto9u7rE0gbRnGM0Wcq8Yx1R2LV1NJnYtXG091RQpZbRydiZAWk0wyhBiRMyd3LyVnWLpe1+r0zOtu1jBTXR9IcAgaFQKbfiYBBZR46LKSchUwUgXFi5AnweY2sVHSLBgdWUjlon7hghSGA5uGDVqq841SWWNjhbGar94UxtCnfXcEsb5865Tstse+36mr/wJE7sWxex1sUsk6TMOkipcN5pSZjLeE5/ykR0zv9EboM+o7MYzMY2FmdndnhWih3rSNPKQZijE2fawLE4zViesXOWTspoB7Jiyc/syJxGRapMZHuciSGzc8xO5YzmeNTfncBprKDBqS/aGXC7/hxLWmdSLrP8Y9GJM9G1c/pjtNiZtMk5/bHW3mgyVPvaOf0xnKmq3/9t/uf/AZ/AoMjs8EssAAAAAElFTkSuQmCC;clipPath=inset(39.35% 10.33% 20.41% 33.33%);" parent="1" vertex="1">
          <mxGeometry x="10" y="680" width="520" height="209.23076923076923" as="geometry" />
        </mxCell>
        <mxCell id="ulPZ76-8H28wxEypy-h8-10" value="Header&#39;s information:" style="swimlane;whiteSpace=wrap;html=1;fillColor=#FFFFFF;" parent="1" vertex="1">
          <mxGeometry x="20" y="260" width="300" height="200" as="geometry">
            <mxRectangle x="20" y="200" width="160" height="30" as="alternateBounds" />
          </mxGeometry>
        </mxCell>
        <mxCell id="ulPZ76-8H28wxEypy-h8-11" value="&lt;ol style=&quot;box-sizing: border-box; margin-top: 0px; margin-bottom: 1rem; list-style: none; counter-reset: revert; margin-left: 20px; color: rgb(33, 37, 41); font-family: &amp;quot;Open Sans&amp;quot;, sans-serif; font-size: 16px; text-align: left; background-color: rgb(255, 255, 255);&quot;&gt;&lt;li style=&quot;box-sizing: border-box; list-style: decimal; counter-increment: li 1;&quot;&gt;Request and Response Body&lt;/li&gt;&lt;li style=&quot;box-sizing: border-box; list-style: decimal; counter-increment: li 1;&quot;&gt;Request Authorization&lt;/li&gt;&lt;li style=&quot;box-sizing: border-box; list-style: decimal; counter-increment: li 1;&quot;&gt;Response Caching&amp;nbsp;&lt;/li&gt;&lt;li style=&quot;box-sizing: border-box; list-style: decimal; counter-increment: li 1;&quot;&gt;Response Cookies&lt;/li&gt;&lt;/ol&gt;" style="whiteSpace=wrap;html=1;fillColor=#FFFFFF;" parent="ulPZ76-8H28wxEypy-h8-10" vertex="1">
          <mxGeometry x="20" y="40" width="250" height="150" as="geometry" />
        </mxCell>
        <mxCell id="ulPZ76-8H28wxEypy-h8-12" value="" style="shape=image;verticalLabelPosition=bottom;labelBackgroundColor=default;verticalAlign=top;aspect=fixed;imageAspect=0;image=https://developer.mozilla.org/en-US/docs/Web/HTTP/Authentication/http-auth-sequence-diagram.png;" parent="1" vertex="1">
          <mxGeometry x="530" y="20" width="360" height="205.62" as="geometry" />
        </mxCell>
        <mxCell id="Tkw-WJS7hZwAQ3qnwtzE-1" value="Header&#39;s types:" style="swimlane;whiteSpace=wrap;html=1;fillColor=#FFFFFF;" vertex="1" parent="1">
          <mxGeometry x="400" y="260" width="300" height="200" as="geometry">
            <mxRectangle x="20" y="200" width="160" height="30" as="alternateBounds" />
          </mxGeometry>
        </mxCell>
        <mxCell id="Tkw-WJS7hZwAQ3qnwtzE-2" value="&lt;ol style=&quot;box-sizing: border-box; margin-top: 0px; margin-bottom: 1rem; list-style: none; counter-reset: revert; margin-left: 20px; color: rgb(33, 37, 41); font-family: &amp;quot;Open Sans&amp;quot;, sans-serif; font-size: 16px; text-align: left; background-color: rgb(255, 255, 255);&quot;&gt;&lt;li style=&quot;box-sizing: border-box; list-style: decimal; counter-increment: li 1;&quot;&gt;Request&amp;nbsp;&lt;/li&gt;&lt;li style=&quot;box-sizing: border-box; list-style: decimal; counter-increment: li 1;&quot;&gt;Response&amp;nbsp;&lt;br&gt;&lt;/li&gt;&lt;li style=&quot;box-sizing: border-box; list-style: decimal; counter-increment: li 1;&quot;&gt;payload&lt;/li&gt;&lt;li style=&quot;box-sizing: border-box; list-style: decimal; counter-increment: li 1;&quot;&gt;representation&lt;/li&gt;&lt;/ol&gt;" style="whiteSpace=wrap;html=1;fillColor=#FFFFFF;" vertex="1" parent="Tkw-WJS7hZwAQ3qnwtzE-1">
          <mxGeometry x="20" y="40" width="250" height="150" as="geometry" />
        </mxCell>
      </root>
    </mxGraphModel>
  </diagram>
</mxfile>
